<svg width="84" height="84" viewBox="0 0 84 84" fill="none" xmlns="http://www.w3.org/2000/svg" xmlns:xlink="http://www.w3.org/1999/xlink">
<g filter="url(#filter7_240)">
<rect  x="0" y="0" width="84" height="84" rx="10" fill="#ACB4BE"/>
</g>
<path d="M64,30.134L64,53.866C64,56.149 62.206,58 60.003,58L36,58L20,42L36,26L60.003,26C62.211,26 64,27.859 64,30.134Z" clip-rule="evenodd" fill-rule="evenodd" stroke="#000000" stroke-width="1" stroke-miterlimit="3.999327"/>
<path d="M47,40.586L40.636,34.222L39.222,35.636L45.586,42L39.222,48.364L40.636,49.778L47,43.414L53.364,49.778L54.778,48.364L48.414,42L54.778,35.636L53.364,34.222L47,40.586L47,40.586Z" clip-rule="evenodd" fill-rule="evenodd" fill="#000000"/>
<defs>
<filter id="filter7_240" x="0" y="0" width="42" height="43" filterUnits="userSpaceOnUse" color-interpolation-filters="sRGB">
<feFlood flood-opacity="0" result="BackgroundImageFix"/>
<feColorMatrix in="SourceAlpha" type="matrix" values="0 0 0 0 0 0 0 0 0 0 0 0 0 0 0 0 0 0 127 0" result="hardAlpha"/>
<feMorphology radius="0" operator="dilate" in="SourceAlpha" result="0dropshadow"/>
<feOffset dx="0" dy="1"/>
<feGaussianBlur stdDeviation="0"/>
<feComposite in2="hardAlpha" operator="out"/>
<feColorMatrix type="matrix" values="0 0 0 0 0 0 0 0 0 0 0 0 0 0 0 0 0 0 0.25 0"/>
<feBlend mode="normal" in2="BackgroundImageFix" result="0dropshadow"/>
<feBlend mode="normal" in="SourceGraphic" in2="0dropshadow" result="shape"/>
</filter>
</defs>
</svg>
