<svg width="48" height="48" viewBox="0 0 48 48" fill="none" xmlns="http://www.w3.org/2000/svg" xmlns:xlink="http://www.w3.org/1999/xlink">
<path d="M42.206,38.199C42.065,38.107 41.003,37.363 39.94,35.113C37.987,30.98 37.577,25.158 37.577,21.002C37.577,20.984 37.577,20.966 37.576,20.948C37.555,15.456 34.266,10.721 29.559,8.596L29.559,5.347C29.559,2.399 27.164,0 24.221,0L23.779,0C20.835,0 18.44,2.399 18.44,5.347L18.44,8.596C13.718,10.727 10.422,15.486 10.422,21.002C10.422,25.158 10.012,30.98 8.06,35.113C6.996,37.363 5.935,38.107 5.793,38.199C5.199,38.474 4.906,39.11 5.042,39.754C5.181,40.404 5.789,40.853 6.453,40.853L16.76,40.853C16.818,44.803 20.042,48 24,48C27.957,48 31.182,44.803 31.239,40.853L41.547,40.853C42.211,40.853 42.819,40.404 42.957,39.754C43.094,39.11 42.801,38.474 42.206,38.199L42.206,38.199ZM21.253,5.347C21.253,3.952 22.386,2.817 23.779,2.817L24.221,2.817C25.614,2.817 26.747,3.952 26.747,5.347L26.747,7.683C25.859,7.5 24.94,7.403 23.999,7.403C23.059,7.403 22.14,7.5 21.253,7.683L21.253,5.347L21.253,5.347ZM24,45.183C21.593,45.183 19.63,43.25 19.573,40.853L28.427,40.853C28.37,43.25 26.407,45.183 24,45.183L24,45.183ZM29.662,38.035C29.662,38.035 9.657,38.035 9.657,38.035C9.901,37.656 10.148,37.227 10.394,36.742C12.279,33.025 13.235,27.73 13.235,21.002C13.235,15.057 18.064,10.22 23.999,10.22C29.935,10.22 34.764,15.057 34.764,21.007C34.764,21.024 34.764,21.042 34.765,21.059C34.77,27.759 35.726,33.036 37.605,36.742C37.851,37.227 38.099,37.656 38.342,38.035L29.662,38.035Z" fill="#FFFFFF"/>
<circle cx="38" cy="38" r="10" fill="#FFAA2B"/>
</svg>
