<svg width="32" height="32" viewBox="0 0 32 32" fill="none" xmlns="http://www.w3.org/2000/svg" xmlns:xlink="http://www.w3.org/1999/xlink">
<path d="M26.86,2.156L5.109,2.156C2.835,2.156 0.984,4.006 0.984,6.281L0.984,19.592C0.984,21.861 2.827,23.708 5.094,23.716L5.094,29.757L13.775,23.716L26.86,23.716C29.134,23.716 30.984,21.866 30.984,19.592L30.984,6.281C30.984,4.006 29.134,2.156 26.86,2.156L26.86,2.156ZM29.227,19.592C29.227,20.897 28.165,21.959 26.86,21.959L13.224,21.959L6.852,26.392L6.852,21.959L5.109,21.959C3.804,21.959 2.742,20.897 2.742,19.592L2.742,6.281C2.742,4.976 3.804,3.914 5.109,3.914L26.86,3.914C28.165,3.914 29.227,4.976 29.227,6.281L29.227,19.592Z" fill="#FFAA2A"/>
<rect  x="9.014" y="8.367" width="13.941" height="1.758" fill="#FFAA2A"/>
<rect  x="9.014" y="12.117" width="13.941" height="1.758" fill="#FFAA2A"/>
<rect  x="9.014" y="15.867" width="13.941" height="1.758" fill="#FFAA2A"/>
</svg>
