<svg width="44" height="140" viewBox="0 0 44 140" fill="none" xmlns="http://www.w3.org/2000/svg" xmlns:xlink="http://www.w3.org/1999/xlink">
<path d="M17.934,96.865C17.934,96.865 22.612,115.982 21.761,118.955C20.911,121.929 35.369,120.23 35.369,120.23L36.22,114.707C36.22,114.707 27.715,101.113 27.715,95.165C27.715,89.218 17.934,96.865 17.934,96.865Z" fill="#A0616A"/>
<path d="M35.369,110.884C35.369,110.884 46.851,119.381 40.898,123.629C34.944,127.877 12.831,138.922 12.831,138.922C12.831,138.922 4.751,140.197 10.704,132.975C16.658,125.753 18.359,124.478 18.784,120.655C19.154,118.109 20.047,115.667 21.407,113.483C21.407,113.483 27.29,125.328 35.369,110.884Z" fill="#2F2E41"/>
<path d="M0.498,8.926C0.498,8.926 -4.18,53.108 3.05,67.127C10.279,81.146 18.784,100.263 18.359,101.113C17.934,101.963 30.692,99.838 30.692,96.015C30.692,92.192 16.658,53.957 16.658,53.957C16.658,53.957 22.612,4.253 27.289,0.854C31.967,-2.544 0.498,8.926 0.498,8.926Z" fill="#2F2E41"/>
<g opacity="0.1">
<path d="M0.498,8.926C0.498,8.926 -4.18,53.108 3.05,67.127C10.279,81.146 18.784,100.263 18.359,101.113C17.934,101.963 30.692,99.838 30.692,96.015C30.692,92.192 16.658,53.957 16.658,53.957C16.658,53.957 22.612,4.253 27.289,0.854C31.967,-2.544 0.498,8.926 0.498,8.926Z" fill="#000000"/>
</g>
</svg>
