<svg width="134" height="238" viewBox="0 0 134 238" fill="none" xmlns="http://www.w3.org/2000/svg" xmlns:xlink="http://www.w3.org/1999/xlink">
<g opacity="0.3">
<g opacity="0.3">
<path d="M5.827,169.209C7.339,170.013 9.017,170.456 10.73,170.502C12.442,170.547 14.142,170.195 15.695,169.473C17.248,168.75 18.612,167.678 19.679,166.339C20.747,165 21.488,163.432 21.845,161.758C22.202,160.084 22.165,158.35 21.737,156.693C21.309,155.036 20.501,153.501 19.378,152.209C18.254,150.917 16.846,149.903 15.263,149.247C13.681,148.591 11.968,148.312 10.259,148.431L9.735,154.101L7.751,148.898C4.96,149.756 2.623,151.687 1.256,154.265C0.772,155.168 0.419,156.134 0.206,157.136C-0.298,159.485 -0.023,161.935 0.992,164.113C2.006,166.292 3.703,168.081 5.827,169.209L5.827,169.209Z" fill="#FFAA2A"/>
</g>
<g opacity="0.3">
<path d="M30.16,216.886L29.25,216.473L29.25,216.473L30.16,216.886ZM24.25,197.473L23.408,198.013L23.408,198.014L24.25,197.473ZM17.383,183.333L16.438,183.661L16.438,183.661L17.383,183.333ZM16.135,177.169L15.135,177.148L15.135,177.148L16.135,177.169ZM18.947,168.591L19.839,169.042L19.839,169.042L18.947,168.591ZM10.767,236.34C10.655,234.237 11.588,232.343 13.162,230.661C14.741,228.974 16.902,227.573 19.052,226.508L18.164,224.715C15.893,225.84 13.503,227.369 11.701,229.294C9.895,231.225 8.619,233.627 8.77,236.447L10.767,236.34ZM19.052,226.508C21.21,225.439 23.676,224.338 25.821,222.951C27.985,221.55 29.942,219.787 31.071,217.3L29.25,216.473C28.341,218.475 26.731,219.979 24.734,221.272C22.717,222.577 20.427,223.594 18.164,224.715L19.052,226.508ZM31.071,217.3C32.698,213.717 32.081,210.042 30.663,206.615C29.255,203.209 26.978,199.872 25.091,196.933L23.408,198.014C25.349,201.038 27.493,204.183 28.815,207.379C30.129,210.555 30.553,213.603 29.25,216.473L31.071,217.3ZM25.091,196.933C22.294,192.574 20.024,187.899 18.328,183.006L16.438,183.661C18.186,188.703 20.525,193.521 23.408,198.013L25.091,196.933ZM18.328,183.006C17.643,181.029 17.096,179.107 17.135,177.189L15.135,177.148C15.089,179.445 15.743,181.654 16.438,183.661L18.328,183.006ZM17.135,177.189C17.191,174.416 18.455,171.78 19.839,169.042L18.055,168.14C16.699,170.821 15.202,173.851 15.135,177.148L17.135,177.189ZM19.839,169.042C24.396,160.031 29.164,151.13 34.143,142.34L32.403,141.354C27.409,150.171 22.626,159.1 18.055,168.14L19.839,169.042Z" fill="#3F3D56"/>
</g>
<g opacity="0.3">
<path d="M6.483,167.823L6.953,166.94L6.952,166.94L6.483,167.823ZM10.915,147.045L10.846,146.047L9.998,146.106L9.919,146.953L10.915,147.045ZM10.391,152.715L9.457,153.071L10.991,157.096L11.387,152.807L10.391,152.715ZM8.408,147.512L9.342,147.155L9.009,146.281L8.114,146.556L8.408,147.512ZM1.912,152.879L2.794,153.352L2.796,153.348L1.912,152.879ZM0.863,155.75L1.841,155.96L1.841,155.957L0.863,155.75ZM6.013,168.706C7.662,169.583 9.492,170.065 11.36,170.115L11.413,168.116C9.855,168.074 8.328,167.672 6.953,166.94L6.013,168.706ZM11.36,170.115C13.227,170.165 15.08,169.781 16.774,168.993L15.93,167.18C14.517,167.837 12.971,168.158 11.413,168.116L11.36,170.115ZM16.774,168.993C18.467,168.206 19.954,167.036 21.118,165.576L19.554,164.329C18.583,165.547 17.343,166.523 15.93,167.18L16.774,168.993ZM21.118,165.576C22.282,164.116 23.09,162.406 23.479,160.58L21.523,160.163C21.199,161.686 20.525,163.112 19.554,164.329L21.118,165.576ZM23.479,160.58C23.869,158.755 23.828,156.864 23.361,155.057L21.425,155.557C21.814,157.064 21.848,158.641 21.523,160.163L23.479,160.58ZM23.361,155.057C22.895,153.25 22.014,151.576 20.789,150.167L19.28,151.479C20.301,152.654 21.036,154.05 21.425,155.557L23.361,155.057ZM20.789,150.167C19.564,148.758 18.028,147.652 16.303,146.937L15.537,148.785C16.977,149.381 18.258,150.304 19.28,151.479L20.789,150.167ZM16.303,146.937C14.577,146.222 12.709,145.918 10.846,146.047L10.984,148.042C12.539,147.934 14.098,148.189 15.537,148.785L16.303,146.937ZM9.919,146.953L9.396,152.623L11.387,152.807L11.911,147.137L9.919,146.953ZM11.326,152.359L9.342,147.155L7.474,147.868L9.457,153.071L11.326,152.359ZM8.114,146.556C5.069,147.492 2.521,149.598 1.029,152.411L2.796,153.348C4.039,151.004 6.163,149.248 8.702,148.467L8.114,146.556ZM1.031,152.407C0.502,153.393 0.117,154.449 -0.115,155.543L1.841,155.957C2.034,155.048 2.355,154.171 2.794,153.352L1.031,152.407ZM-0.115,155.54C-0.665,158.102 -0.365,160.773 0.742,163.149L2.555,162.305C1.632,160.324 1.382,158.096 1.841,155.96L-0.115,155.54ZM0.742,163.149C1.848,165.525 3.699,167.476 6.014,168.706L6.952,166.94C5.021,165.914 3.477,164.286 2.555,162.305L0.742,163.149Z" fill="#3F3D56"/>
</g>
<g opacity="0.3">
<path d="M22.301,138.311C23.171,136.675 24.439,135.284 25.989,134.266C27.538,133.249 29.319,132.637 31.168,132.488L31.311,137.969L33.779,132.582C36.096,132.945 38.237,134.034 39.894,135.691C41.551,137.349 42.637,139.49 42.997,141.804C43.356,144.119 42.97,146.488 41.894,148.569C40.818,150.65 39.108,152.336 37.01,153.383C34.913,154.43 32.536,154.784 30.224,154.394C27.912,154.003 25.784,152.889 24.147,151.212C22.51,149.535 21.45,147.381 21.118,145.062C20.786,142.743 21.2,140.379 22.301,138.311L22.301,138.311Z" fill="#FFAA2A"/>
</g>
<g opacity="0.3">
<path d="M23.176,136.463L24.059,136.933L24.059,136.932L23.176,136.463ZM32.043,130.639L33.042,130.613L33.015,129.558L31.962,129.643L32.043,130.639ZM32.186,136.121L31.186,136.147L31.299,140.457L33.095,136.537L32.186,136.121ZM34.655,130.734L34.809,129.746L34.061,129.629L33.746,130.318L34.655,130.734ZM24.059,136.932C24.85,135.445 26.004,134.18 27.413,133.254L26.315,131.582C24.625,132.692 23.242,134.209 22.293,135.993L24.059,136.932ZM27.413,133.254C28.822,132.329 30.442,131.772 32.123,131.636L31.962,129.643C29.947,129.806 28.005,130.473 26.315,131.582L27.413,133.254ZM31.043,130.666L31.186,136.147L33.186,136.095L33.042,130.613L31.043,130.666ZM33.095,136.537L35.564,131.151L33.746,130.318L31.277,135.704L33.095,136.537ZM34.5,131.722C36.607,132.052 38.555,133.043 40.062,134.55L41.477,133.136C39.67,131.329 37.335,130.142 34.809,129.746L34.5,131.722ZM40.062,134.55C41.569,136.058 42.557,138.005 42.884,140.11L44.86,139.803C44.468,137.278 43.283,134.944 41.477,133.136L40.062,134.55ZM42.884,140.11C43.211,142.215 42.86,144.369 41.881,146.262L43.658,147.18C44.831,144.911 45.252,142.327 44.86,139.803L42.884,140.11ZM41.881,146.262C40.903,148.155 39.347,149.688 37.439,150.64L38.332,152.43C40.619,151.288 42.484,149.45 43.658,147.18L41.881,146.262ZM37.439,150.64C35.531,151.593 33.369,151.914 31.266,151.559L30.933,153.532C33.454,153.957 36.045,153.571 38.332,152.43L37.439,150.64ZM31.266,151.559C29.163,151.204 27.227,150.191 25.738,148.665L24.307,150.062C26.092,151.891 28.412,153.106 30.933,153.532L31.266,151.559ZM25.738,148.665C24.249,147.14 23.285,145.181 22.983,143.073L21.003,143.356C21.365,145.885 22.522,148.233 24.307,150.062L25.738,148.665ZM22.983,143.073C22.681,140.964 23.058,138.814 24.059,136.933L22.294,135.993C21.093,138.249 20.641,140.827 21.003,143.356L22.983,143.073Z" fill="#3F3D56"/>
</g>
<g opacity="0.3">
<path d="M22.311,197.31C24.71,198.584 27.494,198.931 30.132,198.286C32.77,197.642 35.079,196.049 36.618,193.813C38.157,191.577 38.818,188.854 38.476,186.162C38.134,183.47 36.812,180.998 34.763,179.217L32.866,183.356L32.722,177.811C32.714,177.805 32.705,177.8 32.696,177.796C31.413,177.113 30.008,176.689 28.561,176.548C27.114,176.408 25.654,176.553 24.263,176.977C22.873,177.401 21.579,178.095 20.457,179.018C19.335,179.942 18.406,181.077 17.724,182.359C17.042,183.642 16.619,185.046 16.48,186.492C16.341,187.937 16.489,189.396 16.915,190.785C17.341,192.173 18.037,193.464 18.963,194.584C19.889,195.704 21.027,196.63 22.311,197.31L22.311,197.31Z" fill="#FFAA2A"/>
</g>
<g opacity="0.3">
<path d="M23.11,195.426L22.11,195.426L22.11,196.027L22.641,196.309L23.11,195.426ZM35.561,177.333L36.217,176.578L35.209,175.701L34.652,176.916L35.561,177.333ZM33.664,181.472L32.665,181.498L32.776,185.81L34.573,181.889L33.664,181.472ZM33.521,175.926L34.521,175.9L34.507,175.377L34.069,175.09L33.521,175.926ZM33.494,175.912L33.025,176.795L33.053,176.81L33.082,176.823L33.494,175.912ZM23.11,195.426L24.11,195.426L24.11,194.824L23.579,194.542L23.11,195.426ZM22.641,196.309C25.256,197.698 28.291,198.076 31.168,197.373L30.693,195.431C28.293,196.017 25.761,195.701 23.579,194.542L22.641,196.309ZM31.168,197.373C34.045,196.67 36.562,194.934 38.24,192.496L36.593,191.362C35.193,193.396 33.093,194.844 30.693,195.431L31.168,197.373ZM38.24,192.496C39.918,190.057 40.64,187.087 40.266,184.151L38.282,184.403C38.594,186.851 37.992,189.328 36.593,191.362L38.24,192.496ZM40.266,184.151C39.893,181.215 38.452,178.52 36.217,176.578L34.905,178.087C36.769,179.707 37.971,181.955 38.282,184.403L40.266,184.151ZM34.652,176.916L32.755,181.055L34.573,181.889L36.47,177.749L34.652,176.916ZM34.664,181.446L34.521,175.9L32.521,175.952L32.665,181.498L34.664,181.446ZM34.069,175.09C34.018,175.056 33.963,175.026 33.907,175.001L33.082,176.823C33.044,176.805 33.007,176.785 32.972,176.762L34.069,175.09ZM33.964,175.029C32.565,174.285 31.034,173.824 29.457,173.672L29.265,175.663C30.581,175.79 31.858,176.174 33.025,176.795L33.964,175.029ZM29.457,173.672C27.88,173.52 26.289,173.68 24.773,174.142L25.357,176.055C26.621,175.669 27.949,175.536 29.265,175.663L29.457,173.672ZM24.773,174.142C23.258,174.605 21.849,175.361 20.627,176.367L21.898,177.911C22.918,177.072 24.093,176.441 25.357,176.055L24.773,174.142ZM20.627,176.367C19.404,177.374 18.392,178.612 17.648,180.01L19.414,180.949C20.034,179.783 20.878,178.751 21.898,177.911L20.627,176.367ZM17.648,180.01C16.904,181.407 16.443,182.938 16.292,184.513L18.283,184.705C18.409,183.391 18.793,182.115 19.414,180.949L17.648,180.01ZM16.292,184.513C16.14,186.089 16.301,187.679 16.765,189.193L18.677,188.607C18.29,187.345 18.156,186.019 18.283,184.705L16.292,184.513ZM16.765,189.193C17.228,190.707 17.986,192.114 18.994,193.335L20.537,192.062C19.696,191.043 19.064,189.87 18.677,188.607L16.765,189.193ZM18.994,193.335C20.003,194.556 21.242,195.567 22.641,196.309L23.579,194.542C22.411,193.923 21.378,193.08 20.537,192.062L18.994,193.335ZM22.11,195.426L22.11,195.426L24.11,195.426L24.11,195.426L22.11,195.426Z" fill="#3F3D56"/>
</g>
<g opacity="0.3">
<path d="M8.334,213.868C8.419,216.401 9.372,218.827 11.035,220.74C12.698,222.654 14.969,223.938 17.467,224.377C19.965,224.817 22.538,224.385 24.755,223.154C26.972,221.923 28.698,219.968 29.644,217.616C30.589,215.265 30.696,212.66 29.947,210.239C29.199,207.818 27.639,205.728 25.531,204.32C23.423,202.911 20.894,202.269 18.368,202.502C15.842,202.735 13.473,203.828 11.659,205.599L15.499,213.626L9.383,208.789C8.631,210.373 8.271,212.115 8.334,213.868Z" fill="#FFAA2A"/>
</g>
<g opacity="0.3">
<path d="M12.315,204.212L11.617,203.497L11.104,203.997L11.413,204.644L12.315,204.212ZM16.156,212.24L15.535,213.024L18.92,215.701L17.058,211.808L16.156,212.24ZM10.04,207.402L10.66,206.618L9.675,205.839L9.136,206.974L10.04,207.402ZM7.991,212.515C8.083,215.277 9.124,217.924 10.937,220.01L12.447,218.698C10.934,216.958 10.067,214.751 9.99,212.449L7.991,212.515ZM10.937,220.01C12.75,222.097 15.226,223.497 17.95,223.976L18.297,222.006C16.024,221.607 13.959,220.439 12.447,218.698L10.937,220.01ZM17.95,223.976C20.674,224.455 23.48,223.984 25.897,222.642L24.926,220.893C22.91,222.013 20.569,222.406 18.297,222.006L17.95,223.976ZM25.897,222.642C28.315,221.299 30.197,219.167 31.228,216.603L29.372,215.857C28.513,217.995 26.943,219.774 24.926,220.893L25.897,222.642ZM31.228,216.603C32.259,214.039 32.376,211.198 31.559,208.558L29.649,209.149C30.33,211.35 30.232,213.719 29.372,215.857L31.228,216.603ZM31.559,208.558C30.743,205.917 29.042,203.638 26.743,202.102L25.632,203.765C27.55,205.046 28.968,206.947 29.649,209.149L31.559,208.558ZM26.743,202.102C24.444,200.566 21.687,199.866 18.933,200.12L19.116,202.111C21.414,201.9 23.714,202.483 25.632,203.765L26.743,202.102ZM18.933,200.12C16.179,200.374 13.596,201.566 11.617,203.497L13.014,204.928C14.664,203.318 16.819,202.323 19.116,202.111L18.933,200.12ZM11.413,204.644L15.253,212.671L17.058,211.808L13.217,203.781L11.413,204.644ZM16.776,211.455L10.66,206.618L9.419,208.187L15.535,213.024L16.776,211.455ZM9.136,206.974C8.316,208.703 7.923,210.605 7.991,212.518L9.99,212.446C9.933,210.854 10.26,209.271 10.943,207.831L9.136,206.974Z" fill="#3F3D56"/>
</g>
</g>
<g opacity="0.3">
<g opacity="0.3">
<path d="M93.749,193.861L92.839,193.447L92.839,193.447L93.749,193.861ZM80.605,150.693L79.764,151.233L79.764,151.233L80.605,150.693ZM65.337,119.25L64.392,119.578L64.392,119.578L65.337,119.25ZM62.562,105.543L61.562,105.522L61.562,105.522L62.562,105.543ZM68.814,86.469L67.922,86.018L67.922,86.018L68.814,86.469ZM49.403,237.185C49.13,232.071 51.415,227.547 55.057,223.655C58.704,219.757 63.649,216.564 68.504,214.159L67.616,212.366C62.641,214.831 57.466,218.152 53.596,222.288C49.721,226.429 47.094,231.459 47.406,237.291L49.403,237.185ZM68.504,214.159C73.367,211.75 78.744,209.353 83.435,206.318C88.145,203.27 92.283,199.508 94.66,194.274L92.839,193.447C90.682,198.196 86.891,201.7 82.348,204.639C77.785,207.592 72.584,209.905 67.616,212.366L68.504,214.159ZM94.66,194.274C98.079,186.744 96.825,178.954 93.737,171.488C90.657,164.042 85.676,156.741 81.447,150.153L79.764,151.233C84.047,157.907 88.896,165.016 91.889,172.252C94.873,179.467 95.934,186.63 92.839,193.447L94.66,194.274ZM81.447,150.153C75.175,140.378 70.084,129.895 66.282,118.923L64.392,119.578C68.246,130.699 73.406,141.325 79.764,151.233L81.447,150.153ZM66.282,118.923C64.753,114.508 63.47,110.059 63.562,105.563L61.562,105.522C61.463,110.398 62.853,115.134 64.392,119.578L66.282,118.923ZM63.562,105.563C63.693,99.077 66.646,92.974 69.707,86.92L67.922,86.018C64.89,92.014 61.704,98.512 61.562,105.522L63.562,105.563ZM69.707,86.92C79.848,66.864 90.46,47.055 101.541,27.491L99.801,26.506C88.704,46.096 78.078,65.934 67.922,86.018L69.707,86.92Z" fill="#3F3D56"/>
</g>
<g opacity="0.3">
<path d="M113.469,4.678L102.767,7.733L103.51,2.783C102.568,2.723 101.612,2.688 100.641,2.688C86.698,2.688 75.394,9.107 75.394,17.025C75.394,24.942 86.698,31.361 100.641,31.361C114.584,31.361 125.888,24.942 125.888,17.025C125.888,11.767 120.9,7.173 113.469,4.678Z" fill="#FF6B4A"/>
</g>
<g opacity="0.3">
<path d="M113.469,3.085L113.787,2.137L113.493,2.038L113.195,2.124L113.469,3.085ZM102.767,6.14L101.778,5.991L101.547,7.528L103.041,7.101L102.767,6.14ZM103.51,1.19L104.499,1.339L104.661,0.262L103.574,0.193L103.51,1.19ZM125.888,15.432L126.888,15.432L125.888,15.432ZM113.195,2.124L102.492,5.178L103.041,7.101L113.744,4.047L113.195,2.124ZM103.756,6.288L104.499,1.339L102.521,1.042L101.778,5.991L103.756,6.288ZM103.574,0.193C102.613,0.131 101.635,0.096 100.641,0.096L100.641,2.096C101.588,2.096 102.523,2.129 103.446,2.188L103.574,0.193ZM100.641,0.096C93.529,0.096 87.04,1.731 82.295,4.425C77.579,7.103 74.394,10.956 74.394,15.432L76.394,15.432C76.394,11.99 78.861,8.675 83.283,6.164C87.675,3.67 93.81,2.096 100.641,2.096L100.641,0.096ZM74.394,15.432C74.394,19.908 77.579,23.761 82.295,26.439C87.04,29.133 93.529,30.768 100.641,30.768L100.641,28.768C93.81,28.768 87.675,27.194 83.283,24.699C78.861,22.189 76.394,18.874 76.394,15.432L74.394,15.432ZM100.641,30.768C107.753,30.768 114.242,29.133 118.987,26.439C123.702,23.761 126.888,19.908 126.888,15.432L124.888,15.432C124.888,18.874 122.421,22.189 117.999,24.699C113.607,27.194 107.472,28.768 100.641,28.768L100.641,30.768ZM126.888,15.432C126.888,12.465 125.476,9.758 123.163,7.506C120.853,5.258 117.605,3.419 113.787,2.137L113.151,4.033C116.764,5.247 119.726,6.952 121.768,8.939C123.805,10.922 124.888,13.141 124.888,15.432L126.888,15.432Z" fill="#3F3D56"/>
</g>
<g opacity="0.3">
<path d="M82.11,186.8L71.408,189.854L72.151,184.905C71.209,184.845 70.253,184.81 69.282,184.81C55.338,184.81 44.035,191.229 44.035,199.146C44.035,207.064 55.338,213.483 69.282,213.483C83.225,213.483 94.529,207.064 94.529,199.146C94.529,193.889 89.541,189.295 82.11,186.8Z" fill="#FF6B4A"/>
</g>
<g opacity="0.3">
<path d="M82.11,185.207L82.428,184.259L82.134,184.16L81.836,184.246L82.11,185.207ZM71.408,188.262L70.419,188.113L70.188,189.65L71.682,189.223L71.408,188.262ZM72.151,183.312L73.14,183.461L73.302,182.384L72.215,182.314L72.151,183.312ZM94.529,197.554L95.529,197.554L94.529,197.554ZM81.836,184.246L71.133,187.3L71.682,189.223L82.384,186.169L81.836,184.246ZM72.397,188.41L73.14,183.461L71.162,183.164L70.419,188.113L72.397,188.41ZM72.215,182.314C71.254,182.253 70.276,182.218 69.282,182.218L69.282,184.218C70.229,184.218 71.164,184.251 72.087,184.31L72.215,182.314ZM69.282,182.218C62.169,182.218 55.681,183.852 50.936,186.547C46.22,189.225 43.035,193.078 43.035,197.554L45.035,197.554C45.035,194.112 47.502,190.797 51.924,188.286C56.316,185.792 62.451,184.218 69.282,184.218L69.282,182.218ZM43.035,197.554C43.035,202.029 46.22,205.883 50.936,208.56C55.681,211.255 62.169,212.89 69.282,212.89L69.282,210.89C62.451,210.89 56.316,209.315 51.924,206.821C47.502,204.31 45.035,200.996 45.035,197.554L43.035,197.554ZM69.282,212.89C76.394,212.89 82.883,211.255 87.628,208.56C92.343,205.883 95.529,202.029 95.529,197.554L93.529,197.554C93.529,200.996 91.062,204.31 86.64,206.821C82.248,209.315 76.113,210.89 69.282,210.89L69.282,212.89ZM95.529,197.554C95.529,194.587 94.117,191.88 91.804,189.628C89.494,187.38 86.246,185.541 82.428,184.259L81.792,186.155C85.405,187.368 88.367,189.074 90.409,191.061C92.446,193.044 93.529,195.263 93.529,197.554L95.529,197.554Z" fill="#3F3D56"/>
</g>
<g opacity="0.3">
<path d="M119.316,148.57L108.614,151.625L109.357,146.676C108.414,146.615 107.458,146.581 106.487,146.581C92.544,146.581 81.241,152.999 81.241,160.917C81.241,168.835 92.544,175.253 106.487,175.253C120.431,175.253 131.734,168.835 131.734,160.917C131.734,155.659 126.747,151.066 119.316,148.57Z" fill="#FF6B4A"/>
</g>
<g opacity="0.3">
<path d="M119.316,146.977L119.634,146.029L119.34,145.931L119.041,146.016L119.316,146.977ZM108.614,150.032L107.625,149.883L107.394,151.42L108.888,150.994L108.614,150.032ZM109.357,145.083L110.346,145.231L110.507,144.154L109.421,144.085L109.357,145.083ZM131.734,159.324L132.734,159.324L131.734,159.324ZM119.041,146.016L108.339,149.07L108.888,150.994L119.59,147.939L119.041,146.016ZM109.602,150.18L110.346,145.231L108.368,144.934L107.625,149.883L109.602,150.18ZM109.421,144.085C108.459,144.023 107.482,143.988 106.487,143.988L106.487,145.988C107.435,145.988 108.369,146.021 109.293,146.081L109.421,144.085ZM106.487,143.988C99.375,143.988 92.887,145.623 88.142,148.317C83.426,150.995 80.241,154.848 80.241,159.324L82.241,159.324C82.241,155.882 84.707,152.567 89.129,150.056C93.521,147.562 99.656,145.988 106.487,145.988L106.487,143.988ZM80.241,159.324C80.241,163.8 83.426,167.653 88.142,170.331C92.887,173.025 99.375,174.66 106.487,174.66L106.487,172.66C99.656,172.66 93.521,171.086 89.129,168.592C84.707,166.081 82.241,162.766 82.241,159.324L80.241,159.324ZM106.487,174.66C113.6,174.66 120.088,173.025 124.833,170.331C129.549,167.653 132.734,163.8 132.734,159.324L130.734,159.324C130.734,162.766 128.268,166.081 123.846,168.592C119.453,171.086 113.318,172.66 106.487,172.66L106.487,174.66ZM132.734,159.324C132.734,156.357 131.323,153.65 129.009,151.398C126.699,149.15 123.452,147.311 119.634,146.029L118.997,147.925C122.611,149.139 125.573,150.844 127.614,152.831C129.652,154.814 130.734,157.033 130.734,159.324L132.734,159.324Z" fill="#3F3D56"/>
</g>
<g opacity="0.3">
<path d="M75.322,51.016L64.395,48.904L67.298,44.826C66.486,44.346 65.648,43.883 64.783,43.445C52.347,37.144 39.36,37.76 35.775,44.822C32.19,51.883 39.364,62.715 51.799,69.016C64.235,75.317 77.222,74.7 80.807,67.639C83.188,62.95 80.82,56.599 75.322,51.016Z" fill="#FF6B4A"/>
</g>
<g opacity="0.3">
<path d="M76.043,49.595L76.756,48.894L76.538,48.672L76.233,48.613L76.043,49.595ZM65.116,47.483L64.301,46.903L63.399,48.17L64.926,48.465L65.116,47.483ZM68.02,43.405L68.834,43.985L69.466,43.098L68.528,42.544L68.02,43.405ZM65.504,42.024L65.052,42.916L65.052,42.916L65.504,42.024ZM81.528,66.218L80.637,65.766L80.637,65.766L81.528,66.218ZM76.233,48.613L65.305,46.502L64.926,48.465L75.854,50.577L76.233,48.613ZM65.93,48.063L68.834,43.985L67.205,42.825L64.301,46.903L65.93,48.063ZM68.528,42.544C67.699,42.054 66.842,41.581 65.956,41.132L65.052,42.916C65.897,43.344 66.715,43.796 67.511,44.266L68.528,42.544ZM65.956,41.132C59.612,37.918 53.086,36.444 47.634,36.703C42.216,36.96 37.631,38.957 35.605,42.948L37.388,43.854C38.947,40.783 42.648,38.942 47.729,38.701C52.775,38.461 58.96,39.829 65.052,42.916L65.956,41.132ZM35.605,42.948C33.578,46.94 34.674,51.816 37.667,56.335C40.679,60.883 45.725,65.273 52.069,68.487L52.973,66.703C46.881,63.616 42.122,59.44 39.334,55.231C36.528,50.994 35.829,46.923 37.388,43.854L35.605,42.948ZM52.069,68.487C58.412,71.701 64.939,73.175 70.391,72.916C75.809,72.659 80.393,70.662 82.42,66.671L80.637,65.766C79.078,68.836 75.376,70.677 70.296,70.919C65.249,71.158 59.065,69.79 52.973,66.703L52.069,68.487ZM82.42,66.671C83.763,64.025 83.731,60.973 82.687,57.919C81.644,54.87 79.581,51.762 76.756,48.894L75.331,50.297C78.004,53.012 79.873,55.871 80.794,58.566C81.713,61.255 81.674,63.723 80.637,65.766L82.42,66.671Z" fill="#3F3D56"/>
</g>
<g opacity="0.3">
<path d="M99.24,106.767L88.312,104.656L91.216,100.577C90.403,100.097 89.566,99.635 88.7,99.196C76.265,92.895 63.278,93.512 59.693,100.573C56.108,107.634 63.282,118.466 75.717,124.767C88.152,131.068 101.14,130.452 104.725,123.39C107.105,118.702 104.738,112.351 99.24,106.767Z" fill="#FF6B4A"/>
</g>
<g opacity="0.3">
<path d="M99.962,105.347L100.674,104.645L100.456,104.424L100.151,104.365L99.962,105.347ZM89.034,103.235L88.219,102.655L87.317,103.922L88.844,104.217L89.034,103.235ZM91.938,99.157L92.752,99.737L93.384,98.849L92.446,98.295L91.938,99.157ZM89.422,97.775L88.97,98.668L88.97,98.668L89.422,97.775ZM105.446,121.97L104.555,121.517L104.555,121.517L105.446,121.97ZM100.151,104.365L89.224,102.253L88.844,104.217L99.772,106.329L100.151,104.365ZM89.848,103.815L92.752,99.737L91.123,98.577L88.219,102.655L89.848,103.815ZM92.446,98.295C91.617,97.806 90.76,97.333 89.874,96.883L88.97,98.668C89.815,99.096 90.633,99.548 91.429,100.018L92.446,98.295ZM89.874,96.883C83.53,93.669 77.004,92.195 71.552,92.454C66.134,92.711 61.549,94.708 59.522,98.7L61.306,99.605C62.865,96.535 66.566,94.693 71.647,94.452C76.693,94.212 82.878,95.581 88.97,98.668L89.874,96.883ZM59.522,98.7C57.496,102.691 58.592,107.567 61.585,112.087C64.597,116.634 69.643,121.024 75.987,124.238L76.891,122.454C70.799,119.368 66.04,115.191 63.252,110.982C60.446,106.745 59.747,102.675 61.306,99.605L59.522,98.7ZM75.987,124.238C82.33,127.452 88.857,128.926 94.309,128.668C99.727,128.41 104.312,126.413 106.338,122.422L104.555,121.517C102.996,124.587 99.295,126.429 94.214,126.67C89.167,126.909 82.983,125.541 76.891,122.454L75.987,124.238ZM106.338,122.422C107.681,119.776 107.649,116.725 106.605,113.67C105.563,110.621 103.499,107.514 100.674,104.645L99.249,106.048C101.922,108.763 103.791,111.623 104.712,114.317C105.631,117.006 105.592,119.474 104.555,121.517L106.338,122.422Z" fill="#3F3D56"/>
</g>
</g>
</svg>
