<svg width="90" height="102" viewBox="0 0 90 102" fill="none" xmlns="http://www.w3.org/2000/svg" xmlns:xlink="http://www.w3.org/1999/xlink">
<path d="M50.313,68.716L75.403,68.716L76.679,81.461L70.725,82.735C70.725,82.735 56.692,78.487 48.612,79.762C40.532,81.036 50.313,68.716 50.313,68.716Z" fill="#A0616A"/>
<path d="M66.898,67.017C66.898,67.017 78.805,58.945 80.932,65.742C83.058,72.539 90.713,97.179 88.161,99.728C85.609,102.277 82.633,97.604 82.633,97.604C82.633,97.604 77.529,86.983 73.702,86.559C69.875,86.134 67.748,82.735 67.748,82.735C67.748,82.735 78.805,74.239 66.898,67.017Z" fill="#2F2E41"/>
<path d="M15.016,14.763L23.096,34.73C23.096,34.73 -13.901,75.088 6.936,80.611C27.774,86.134 35.003,76.363 48.186,84.01C48.186,84.01 54.565,74.239 53.715,68.291C53.715,68.291 35.429,64.893 25.648,65.317C25.648,65.317 52.014,42.377 54.565,41.527C57.117,40.677 65.622,27.083 52.439,16.038C39.256,4.992 42.658,-0.955 42.658,-0.955L15.016,14.763Z" fill="#2F2E41"/>
</svg>
