<svg width="104" height="184" viewBox="0 0 104 184" fill="none" xmlns="http://www.w3.org/2000/svg" xmlns:xlink="http://www.w3.org/1999/xlink">
<g opacity="0.3">
<g opacity="0.3">
<path d="M38.445,115.74C36.932,116.544 35.254,116.987 33.541,117.033C31.829,117.078 30.129,116.726 28.576,116.004C27.023,115.281 25.659,114.209 24.592,112.87C23.525,111.531 22.783,109.963 22.426,108.289C22.069,106.615 22.106,104.881 22.534,103.224C22.962,101.567 23.77,100.032 24.893,98.74C26.017,97.448 27.425,96.434 29.008,95.778C30.59,95.122 32.303,94.843 34.012,94.962L34.536,100.632L36.52,95.429C39.311,96.287 41.648,98.218 43.015,100.796C43.499,101.699 43.852,102.665 44.065,103.667C44.569,106.016 44.294,108.466 43.279,110.644C42.265,112.823 40.568,114.612 38.445,115.74L38.445,115.74Z" fill="#FF6B4A"/>
</g>
<g opacity="0.3">
<path d="M14.111,163.417L15.021,163.004L15.021,163.004L14.111,163.417ZM20.022,144.004L20.863,144.544L20.863,144.544L20.022,144.004ZM26.888,129.864L27.833,130.191L27.833,130.191L26.888,129.864ZM28.136,123.699L29.136,123.679L29.136,123.679L28.136,123.699ZM25.324,115.122L24.432,115.573L24.432,115.573L25.324,115.122ZM35.501,182.977C35.652,180.157 34.376,177.756 32.57,175.825C30.768,173.9 28.378,172.371 26.107,171.246L25.219,173.038C27.37,174.103 29.531,175.504 31.109,177.192C32.683,178.873 33.616,180.768 33.504,182.871L35.501,182.977ZM26.107,171.246C23.844,170.125 21.554,169.107 19.537,167.802C17.54,166.51 15.931,165.006 15.021,163.004L13.2,163.831C14.329,166.317 16.286,168.081 18.45,169.481C20.595,170.869 23.061,171.969 25.219,173.038L26.107,171.246ZM15.021,163.004C13.718,160.134 14.142,157.085 15.456,153.91C16.778,150.713 18.922,147.569 20.863,144.544L19.18,143.464C17.293,146.403 15.017,149.739 13.608,153.145C12.19,156.572 11.573,160.248 13.2,163.831L15.021,163.004ZM20.863,144.544C23.746,140.052 26.085,135.234 27.833,130.191L25.943,129.537C24.247,134.43 21.977,139.105 19.18,143.464L20.863,144.544ZM27.833,130.191C28.528,128.185 29.182,125.976 29.136,123.679L27.136,123.72C27.175,125.637 26.628,127.559 25.943,129.537L27.833,130.191ZM29.136,123.679C29.069,120.382 27.572,117.351 26.216,114.671L24.432,115.573C25.816,118.311 27.08,120.947 27.136,123.72L29.136,123.679ZM26.216,114.671C21.645,105.631 16.863,96.702 11.868,87.885L10.128,88.87C15.107,97.661 19.875,106.561 24.432,115.573L26.216,114.671Z" fill="#3F3D56"/>
</g>
<g opacity="0.3">
<path d="M37.788,114.354L37.319,113.471L37.318,113.471L37.788,114.354ZM33.356,93.576L34.352,93.484L34.273,92.637L33.425,92.578L33.356,93.576ZM33.88,99.246L32.884,99.338L33.28,103.627L34.814,99.602L33.88,99.246ZM35.863,94.043L36.157,93.087L35.262,92.812L34.929,93.686L35.863,94.043ZM42.359,99.41L41.475,99.879L41.477,99.883L42.359,99.41ZM43.408,102.281L42.43,102.488L42.43,102.491L43.408,102.281ZM37.318,113.471C35.943,114.203 34.416,114.605 32.858,114.647L32.911,116.646C34.779,116.596 36.609,116.114 38.258,115.237L37.318,113.471ZM32.858,114.647C31.3,114.689 29.754,114.368 28.341,113.711L27.497,115.524C29.191,116.312 31.044,116.696 32.911,116.646L32.858,114.647ZM28.341,113.711C26.928,113.054 25.688,112.078 24.717,110.86L23.153,112.107C24.317,113.567 25.804,114.737 27.497,115.524L28.341,113.711ZM24.717,110.86C23.746,109.643 23.072,108.217 22.748,106.694L20.792,107.111C21.181,108.937 21.989,110.647 23.153,112.107L24.717,110.86ZM22.748,106.694C22.423,105.172 22.456,103.595 22.846,102.088L20.909,101.588C20.442,103.395 20.402,105.286 20.792,107.111L22.748,106.694ZM22.846,102.088C23.235,100.581 23.97,99.185 24.991,98.01L23.482,96.698C22.257,98.107 21.376,99.781 20.909,101.588L22.846,102.088ZM24.991,98.01C26.013,96.835 27.294,95.912 28.734,95.316L27.968,93.468C26.243,94.183 24.707,95.289 23.482,96.698L24.991,98.01ZM28.734,95.316C30.173,94.72 31.732,94.465 33.287,94.573L33.425,92.578C31.562,92.449 29.694,92.753 27.968,93.468L28.734,95.316ZM32.36,93.668L32.884,99.338L34.875,99.154L34.352,93.484L32.36,93.668ZM34.814,99.602L36.797,94.399L34.929,93.686L32.945,98.89L34.814,99.602ZM35.569,94.998C38.108,95.779 40.232,97.535 41.475,99.879L43.242,98.942C41.75,96.129 39.202,94.023 36.157,93.087L35.569,94.998ZM41.477,99.883C41.916,100.702 42.237,101.579 42.43,102.488L44.386,102.074C44.154,100.98 43.769,99.924 43.24,98.938L41.477,99.883ZM42.43,102.491C42.889,104.627 42.639,106.855 41.716,108.836L43.529,109.68C44.635,107.304 44.936,104.633 44.386,102.071L42.43,102.491ZM41.716,108.836C40.794,110.817 39.25,112.445 37.319,113.471L38.257,115.237C40.572,114.007 42.423,112.056 43.529,109.68L41.716,108.836Z" fill="#3F3D56"/>
</g>
<g opacity="0.3">
<path d="M21.97,84.842C21.1,83.206 19.832,81.815 18.282,80.797C16.733,79.78 14.952,79.168 13.104,79.019L12.96,84.5L10.492,79.113C8.175,79.476 6.034,80.565 4.377,82.222C2.72,83.88 1.634,86.021 1.274,88.335C0.915,90.65 1.301,93.019 2.377,95.1C3.453,97.181 5.163,98.867 7.261,99.914C9.358,100.961 11.735,101.315 14.047,100.925C16.359,100.534 18.487,99.42 20.124,97.743C21.761,96.066 22.822,93.912 23.153,91.593C23.485,89.275 23.071,86.91 21.97,84.842L21.97,84.842Z" fill="#FF6B4A"/>
</g>
<g opacity="0.3">
<path d="M12.228,77.17L12.309,76.174L11.256,76.089L11.229,77.144L12.228,77.17ZM12.085,82.652L11.176,83.068L12.972,86.988L13.085,82.678L12.085,82.652ZM9.616,77.265L10.525,76.849L10.21,76.16L9.462,76.277L9.616,77.265ZM21.978,82.524C21.029,80.74 19.646,79.223 17.956,78.113L16.858,79.785C18.267,80.711 19.421,81.976 20.212,83.463L21.978,82.524ZM17.956,78.113C16.266,77.004 14.324,76.337 12.309,76.174L12.148,78.167C13.829,78.303 15.449,78.86 16.858,79.785L17.956,78.113ZM11.229,77.144L11.085,82.626L13.085,82.678L13.228,77.197L11.229,77.144ZM12.994,82.235L10.525,76.849L8.707,77.682L11.176,83.068L12.994,82.235ZM9.462,76.277C6.936,76.673 4.601,77.86 2.794,79.667L4.209,81.081C5.716,79.574 7.664,78.583 9.771,78.253L9.462,76.277ZM2.794,79.667C0.988,81.475 -0.197,83.809 -0.589,86.334L1.387,86.641C1.714,84.536 2.702,82.589 4.209,81.081L2.794,79.667ZM-0.589,86.334C-0.981,88.858 -0.56,91.442 0.613,93.711L2.39,92.793C1.411,90.9 1.06,88.746 1.387,86.641L-0.589,86.334ZM0.613,93.711C1.787,95.981 3.652,97.819 5.939,98.961L6.832,97.171C4.924,96.219 3.368,94.686 2.39,92.793L0.613,93.711ZM5.939,98.961C8.226,100.102 10.817,100.488 13.338,100.063L13.005,98.09C10.902,98.445 8.74,98.123 6.832,97.171L5.939,98.961ZM13.338,100.063C15.859,99.637 18.179,98.422 19.964,96.593L18.533,95.196C17.044,96.722 15.108,97.735 13.005,98.09L13.338,100.063ZM19.964,96.593C21.749,94.764 22.906,92.416 23.268,89.887L21.288,89.604C20.986,91.712 20.022,93.671 18.533,95.196L19.964,96.593ZM23.268,89.887C23.63,87.358 23.178,84.78 21.977,82.524L20.212,83.464C21.213,85.345 21.59,87.495 21.288,89.604L23.268,89.887Z" fill="#3F3D56"/>
</g>
<g opacity="0.3">
<path d="M21.96,143.841C19.561,145.115 16.777,145.462 14.139,144.817C11.501,144.173 9.192,142.58 7.653,140.344C6.114,138.108 5.453,135.385 5.795,132.693C6.137,130.001 7.459,127.529 9.508,125.748L11.405,129.887L11.549,124.342C11.557,124.336 11.566,124.331 11.575,124.327C12.858,123.645 14.263,123.222 15.709,123.082C17.155,122.942 18.615,123.089 20.005,123.513C21.395,123.937 22.687,124.63 23.809,125.554C24.93,126.477 25.858,127.612 26.541,128.894C27.223,130.176 27.645,131.579 27.784,133.024C27.923,134.469 27.776,135.928 27.35,137.316C26.925,138.704 26.23,139.995 25.305,141.114C24.38,142.234 23.243,143.161 21.96,143.841L21.96,143.841Z" fill="#FF6B4A"/>
</g>
<g opacity="0.3">
<path d="M21.161,141.957L21.63,142.84L22.161,142.558L22.161,141.957L21.161,141.957ZM8.71,123.864L9.619,123.447L9.062,122.232L8.054,123.109L8.71,123.864ZM10.607,128.003L9.698,128.42L11.495,132.341L11.606,128.029L10.607,128.003ZM10.75,122.457L10.202,121.621L9.764,121.908L9.751,122.431L10.75,122.457ZM10.777,122.443L11.189,123.354L11.218,123.341L11.246,123.326L10.777,122.443ZM21.161,141.957L20.692,141.073L20.161,141.355L20.161,141.957L21.161,141.957ZM20.692,141.073C18.51,142.232 15.978,142.548 13.578,141.962L13.103,143.904C15.98,144.607 19.015,144.229 21.63,142.84L20.692,141.073ZM13.578,141.962C11.178,141.375 9.078,139.927 7.678,137.893L6.031,139.027C7.709,141.465 10.226,143.201 13.103,143.904L13.578,141.962ZM7.678,137.893C6.279,135.859 5.677,133.382 5.989,130.934L4.005,130.682C3.631,133.618 4.353,136.588 6.031,139.027L7.678,137.893ZM5.989,130.934C6.3,128.486 7.502,126.238 9.366,124.618L8.054,123.109C5.819,125.051 4.378,127.747 4.005,130.682L5.989,130.934ZM7.801,124.28L9.698,128.42L11.516,127.586L9.619,123.447L7.801,124.28ZM11.606,128.029L11.75,122.483L9.751,122.431L9.607,127.977L11.606,128.029ZM11.299,123.293C11.264,123.316 11.228,123.336 11.189,123.354L10.364,121.532C10.307,121.557 10.253,121.587 10.202,121.621L11.299,123.293ZM11.246,123.326C12.413,122.705 13.69,122.321 15.006,122.194L14.814,120.203C13.237,120.355 11.706,120.816 10.307,121.56L11.246,123.326ZM15.006,122.194C16.322,122.067 17.65,122.2 18.914,122.586L19.498,120.673C17.982,120.211 16.391,120.051 14.814,120.203L15.006,122.194ZM18.914,122.586C20.178,122.972 21.353,123.603 22.373,124.442L23.644,122.899C22.422,121.892 21.013,121.136 19.498,120.673L18.914,122.586ZM22.373,124.442C23.393,125.282 24.237,126.314 24.857,127.48L26.623,126.541C25.879,125.143 24.867,123.905 23.644,122.899L22.373,124.442ZM24.857,127.48C25.478,128.646 25.862,129.922 25.988,131.236L27.979,131.044C27.828,129.469 27.367,127.938 26.623,126.541L24.857,127.48ZM25.988,131.236C26.115,132.55 25.981,133.876 25.594,135.138L27.506,135.724C27.97,134.21 28.131,132.62 27.979,131.044L25.988,131.236ZM25.594,135.138C25.207,136.401 24.576,137.574 23.734,138.593L25.276,139.866C26.285,138.645 27.043,137.238 27.506,135.724L25.594,135.138ZM23.734,138.593C22.893,139.611 21.86,140.454 20.692,141.073L21.63,142.84C23.029,142.098 24.268,141.087 25.276,139.866L23.734,138.593ZM20.161,141.957L20.161,141.957L22.161,141.957L22.161,141.957L20.161,141.957Z" fill="#3F3D56"/>
</g>
<g opacity="0.3">
<path d="M35.937,160.399C35.852,162.932 34.899,165.358 33.236,167.271C31.573,169.185 29.302,170.469 26.804,170.908C24.306,171.348 21.733,170.916 19.516,169.685C17.299,168.454 15.573,166.499 14.627,164.147C13.682,161.796 13.575,159.191 14.324,156.77C15.072,154.349 16.632,152.259 18.74,150.851C20.848,149.442 23.377,148.8 25.903,149.033C28.429,149.266 30.798,150.359 32.612,152.13L28.772,160.157L34.888,155.32C35.64,156.904 36,158.646 35.937,160.399L35.937,160.399Z" fill="#FF6B4A"/>
</g>
<g opacity="0.3">
<path d="M31.956,150.743L32.858,151.175L33.167,150.528L32.654,150.027L31.956,150.743ZM28.115,158.771L27.213,158.339L25.351,162.232L28.736,159.555L28.115,158.771ZM34.231,153.933L35.135,153.505L34.596,152.37L33.611,153.149L34.231,153.933ZM34.281,158.979C34.204,161.282 33.337,163.489 31.824,165.229L33.334,166.541C35.148,164.454 36.188,161.808 36.28,159.046L34.281,158.979ZM31.824,165.229C30.312,166.969 28.247,168.137 25.974,168.537L26.321,170.507C29.045,170.028 31.521,168.628 33.334,166.541L31.824,165.229ZM25.974,168.537C23.702,168.937 21.361,168.544 19.345,167.424L18.374,169.173C20.791,170.515 23.597,170.986 26.321,170.507L25.974,168.537ZM19.345,167.424C17.328,166.304 15.758,164.526 14.899,162.388L13.043,163.134C14.074,165.698 15.956,167.83 18.374,169.173L19.345,167.424ZM14.899,162.388C14.039,160.249 13.941,157.881 14.622,155.679L12.712,155.089C11.895,157.729 12.012,160.569 13.043,163.134L14.899,162.388ZM14.622,155.679C15.303,153.478 16.721,151.577 18.639,150.296L17.528,148.633C15.229,150.169 13.528,152.448 12.712,155.089L14.622,155.679ZM18.639,150.296C20.557,149.014 22.857,148.43 25.155,148.642L25.338,146.651C22.584,146.397 19.827,147.096 17.528,148.633L18.639,150.296ZM25.155,148.642C27.452,148.854 29.607,149.849 31.257,151.459L32.654,150.027C30.675,148.097 28.092,146.905 25.338,146.651L25.155,148.642ZM31.054,150.312L27.213,158.339L29.018,159.202L32.858,151.175L31.054,150.312ZM28.736,159.555L34.852,154.718L33.611,153.149L27.495,157.986L28.736,159.555ZM33.328,154.362C34.011,155.802 34.338,157.385 34.281,158.977L36.28,159.048C36.348,157.135 35.956,155.234 35.135,153.505L33.328,154.362Z" fill="#3F3D56"/>
</g>
</g>
<g opacity="0.3">
<g opacity="0.3">
<path d="M35.473,66.71C38.07,68.092 40.954,68.852 43.895,68.931C46.837,69.01 49.757,68.405 52.425,67.164C55.093,65.923 57.435,64.08 59.269,61.78C61.102,59.481 62.375,56.787 62.988,53.912C63.602,51.036 63.538,48.058 62.803,45.212C62.067,42.365 60.68,39.728 58.75,37.508C56.821,35.289 54.401,33.547 51.683,32.421C48.965,31.295 46.022,30.815 43.086,31.019L42.186,40.759L38.779,31.821C33.984,33.296 29.971,36.612 27.622,41.041C26.791,42.592 26.184,44.252 25.819,45.972C24.952,50.008 25.426,54.215 27.168,57.957C28.91,61.7 31.825,64.772 35.473,66.71L35.473,66.71Z" fill="#FFAA2A"/>
</g>
<g opacity="0.3">
<path d="M77.272,148.607L76.362,148.194L76.362,148.194L77.272,148.607ZM67.119,115.261L66.277,115.801L66.277,115.801L67.119,115.261ZM55.324,90.972L54.379,91.299L54.379,91.3L55.324,90.972ZM53.18,80.383L52.181,80.363L52.181,80.363L53.18,80.383ZM58.01,65.649L58.903,66.1L58.903,66.1L58.01,65.649ZM43.242,182.062C43.036,178.193 44.762,174.756 47.549,171.778C50.341,168.794 54.135,166.342 57.872,164.491L56.984,162.699C53.127,164.61 49.103,167.19 46.088,170.412C43.069,173.639 41,177.582 41.245,182.169L43.242,182.062ZM57.872,164.491C61.616,162.636 65.79,160.776 69.428,158.422C73.086,156.055 76.322,153.119 78.183,149.021L76.362,148.194C74.721,151.807 71.831,154.484 68.341,156.743C64.831,159.014 60.834,160.792 56.984,162.699L57.872,164.491ZM78.183,149.021C80.861,143.123 79.87,137.034 77.473,131.238C75.084,125.462 71.221,119.8 67.96,114.721L66.277,115.801C69.593,120.966 73.322,126.436 75.625,132.002C77.918,137.547 78.716,143.009 76.362,148.194L78.183,149.021ZM67.96,114.721C63.125,107.185 59.2,99.103 56.269,90.645L54.379,91.3C57.362,99.908 61.356,108.132 66.277,115.801L67.96,114.721ZM56.269,90.645C55.089,87.238 54.111,83.834 54.18,80.403L52.181,80.363C52.103,84.172 53.189,87.863 54.379,91.299L56.269,90.645ZM54.18,80.403C54.281,75.453 56.535,70.783 58.903,66.1L57.118,65.198C54.779,69.823 52.292,74.888 52.181,80.363L54.18,80.403ZM58.903,66.1C66.735,50.61 74.931,35.311 83.489,20.202L81.749,19.216C73.175,34.353 64.965,49.68 57.118,65.198L58.903,66.1Z" fill="#3F3D56"/>
</g>
<g opacity="0.3">
<path d="M44.214,28.638L44.145,27.64L43.296,27.699L43.218,28.546L44.214,28.638ZM43.314,38.378L42.38,38.734L43.913,42.759L44.31,38.47L43.314,38.378ZM39.907,29.44L40.842,29.084L40.508,28.209L39.613,28.484L39.907,29.44ZM28.749,38.66L29.631,39.133L29.633,39.129L28.749,38.66ZM26.947,43.591L27.924,43.801L27.925,43.799L26.947,43.591ZM36.131,65.212C38.865,66.667 41.9,67.467 44.996,67.55L45.05,65.55C42.263,65.476 39.531,64.755 37.07,63.446L36.131,65.212ZM44.996,67.55C48.093,67.632 51.166,66.996 53.974,65.689L53.131,63.876C50.603,65.052 47.837,65.625 45.05,65.55L44.996,67.55ZM53.974,65.689C56.782,64.383 59.248,62.443 61.178,60.022L59.614,58.776C57.878,60.954 55.658,62.7 53.131,63.876L53.974,65.689ZM61.178,60.022C63.108,57.602 64.448,54.766 65.094,51.739L63.138,51.322C62.557,54.045 61.351,56.597 59.614,58.776L61.178,60.022ZM65.094,51.739C65.74,48.712 65.673,45.577 64.899,42.58L62.962,43.081C63.659,45.777 63.719,48.598 63.138,51.322L65.094,51.739ZM64.899,42.58C64.124,39.584 62.664,36.808 60.633,34.471L59.123,35.783C60.951,37.886 62.265,40.384 62.962,43.081L64.899,42.58ZM60.633,34.471C58.601,32.135 56.055,30.302 53.194,29.116L52.428,30.964C55.003,32.031 57.295,33.681 59.123,35.783L60.633,34.471ZM53.194,29.116C50.332,27.931 47.235,27.426 44.145,27.64L44.283,29.635C47.064,29.442 49.853,29.897 52.428,30.964L53.194,29.116ZM43.218,28.546L42.318,38.286L44.31,38.47L45.21,28.73L43.218,28.546ZM44.248,38.022L40.842,29.084L38.973,29.796L42.38,38.734L44.248,38.022ZM39.613,28.484C34.565,30.037 30.339,33.528 27.866,38.192L29.633,39.129C31.858,34.934 35.659,31.793 40.201,30.396L39.613,28.484ZM27.868,38.188C26.992,39.822 26.353,41.571 25.968,43.384L27.925,43.799C28.27,42.171 28.844,40.6 29.631,39.133L27.868,38.188ZM25.969,43.381C25.056,47.629 25.555,52.059 27.389,55.998L29.202,55.154C27.552,51.609 27.103,47.624 27.924,43.801L25.969,43.381ZM27.389,55.998C29.223,59.938 32.292,63.172 36.131,65.212L37.07,63.446C33.614,61.61 30.852,58.699 29.202,55.154L27.389,55.998Z" fill="#3F3D56"/>
</g>
<g opacity="0.3">
<path d="M63.772,13.636C65.266,10.826 67.444,8.436 70.106,6.688C72.768,4.94 75.827,3.889 79.002,3.633L79.248,13.048L83.489,3.795C87.468,4.418 91.146,6.289 93.992,9.136C96.838,11.983 98.704,15.66 99.322,19.636C99.939,23.613 99.276,27.682 97.428,31.257C95.579,34.832 92.641,37.727 89.038,39.526C85.435,41.324 81.353,41.932 77.382,41.261C73.41,40.591 69.755,38.677 66.943,35.796C64.131,32.915 62.309,29.216 61.739,25.233C61.169,21.25 61.881,17.189 63.772,13.636L63.772,13.636Z" fill="#FFAA2A"/>
</g>
<g opacity="0.3">
<path d="M65.275,10.461L64.392,9.992L63.611,11.461L65.275,11.461L65.275,10.461ZM80.506,0.458L81.505,0.432L81.478,-0.624L80.425,-0.539L80.506,0.458ZM80.752,9.874L79.752,9.9L79.864,14.209L81.661,10.29L80.752,9.874ZM84.992,0.621L85.147,-0.367L84.399,-0.484L84.083,0.204L84.992,0.621ZM65.275,10.461L66.158,10.931L66.94,9.461L65.275,9.461L65.275,10.461ZM66.158,10.931C67.574,8.269 69.637,6.006 72.159,4.35L71.061,2.678C68.259,4.518 65.966,7.033 64.392,9.992L66.158,10.931ZM72.159,4.35C74.68,2.693 77.578,1.698 80.586,1.455L80.425,-0.539C77.083,-0.269 73.863,0.838 71.061,2.678L72.159,4.35ZM79.506,0.484L79.752,9.9L81.751,9.848L81.505,0.432L79.506,0.484ZM81.661,10.29L85.901,1.038L84.083,0.204L79.843,9.457L81.661,10.29ZM84.837,1.609C88.607,2.199 92.092,3.971 94.788,6.668L96.203,5.254C93.207,2.257 89.335,0.289 85.147,-0.367L84.837,1.609ZM94.788,6.668C97.484,9.366 99.252,12.849 99.837,16.615L101.813,16.308C101.163,12.123 99.198,8.252 96.203,5.254L94.788,6.668ZM99.837,16.615C100.422,20.382 99.794,24.236 98.043,27.623L99.819,28.541C101.765,24.778 102.464,20.494 101.813,16.308L99.837,16.615ZM98.043,27.623C96.292,31.009 93.509,33.753 90.095,35.456L90.988,37.246C94.781,35.353 97.874,32.305 99.819,28.541L98.043,27.623ZM90.095,35.456C86.682,37.16 82.814,37.736 79.052,37.101L78.719,39.073C82.899,39.778 87.196,39.139 90.988,37.246L90.095,35.456ZM79.052,37.101C75.289,36.466 71.826,34.652 69.162,31.923L67.731,33.32C70.691,36.353 74.539,38.367 78.719,39.073L79.052,37.101ZM69.162,31.923C66.499,29.194 64.772,25.69 64.232,21.917L62.253,22.2C62.853,26.393 64.771,30.287 67.731,33.32L69.162,31.923ZM64.232,21.917C63.692,18.143 64.367,14.297 66.158,10.931L64.393,9.991C62.402,13.731 61.653,18.007 62.253,22.2L64.232,21.917ZM65.275,9.461L65.275,9.461L65.275,11.461L65.275,11.461L65.275,9.461Z" fill="#3F3D56"/>
</g>
<g opacity="0.3">
<path d="M63.79,114.981C67.909,117.168 72.691,117.765 77.223,116.658C81.755,115.55 85.721,112.815 88.364,108.974C91.008,105.133 92.144,100.455 91.556,95.831C90.968,91.207 88.698,86.961 85.178,83.901L81.919,91.012L81.673,81.486C81.658,81.476 81.643,81.468 81.627,81.461C79.424,80.291 77.012,79.565 74.528,79.327C72.045,79.088 69.538,79.34 67.152,80.069C64.766,80.798 62.547,81.99 60.622,83.575C58.696,85.161 57.103,87.11 55.932,89.311C54.76,91.512 54.034,93.922 53.795,96.403C53.557,98.884 53.809,101.388 54.539,103.772C55.268,106.155 56.461,108.372 58.048,110.295C59.636,112.218 61.586,113.811 63.79,114.981L63.79,114.981Z" fill="#FFAA2A"/>
</g>
<g opacity="0.3">
<path d="M65.161,111.743L64.161,111.743L64.161,112.345L64.692,112.627L65.161,111.743ZM86.55,80.664L87.205,79.91L86.197,79.033L85.64,80.248L86.55,80.664ZM83.291,87.775L82.291,87.801L82.403,92.113L84.2,88.191L83.291,87.775ZM83.045,78.248L84.044,78.223L84.031,77.7L83.593,77.413L83.045,78.248ZM82.999,78.224L82.53,79.107L82.558,79.122L82.587,79.135L82.999,78.224ZM65.161,111.743L66.161,111.743L66.161,111.142L65.63,110.86L65.161,111.743ZM64.692,112.627C69.029,114.93 74.062,115.558 78.833,114.392L78.358,112.449C74.064,113.499 69.534,112.933 65.63,110.86L64.692,112.627ZM78.833,114.392C83.603,113.226 87.777,110.347 90.56,106.304L88.912,105.17C86.408,108.808 82.652,111.4 78.358,112.449L78.833,114.392ZM90.56,106.304C93.342,102.26 94.538,97.335 93.92,92.468L91.936,92.72C92.492,97.1 91.416,101.531 88.912,105.17L90.56,106.304ZM93.92,92.468C93.301,87.6 90.911,83.13 87.205,79.91L85.894,81.419C89.228,84.317 91.379,88.34 91.936,92.72L93.92,92.468ZM85.64,80.248L82.382,87.358L84.2,88.191L87.459,81.081L85.64,80.248ZM84.291,87.749L84.044,78.223L82.045,78.274L82.291,87.801L84.291,87.749ZM83.593,77.413C83.535,77.374 83.475,77.341 83.411,77.312L82.587,79.135C82.556,79.12 82.525,79.104 82.496,79.084L83.593,77.413ZM83.468,77.34C81.149,76.109 78.61,75.346 75.996,75.094L75.804,77.085C78.158,77.311 80.443,77.998 82.53,79.107L83.468,77.34ZM75.996,75.094C73.381,74.843 70.743,75.109 68.232,75.876L68.816,77.789C71.077,77.098 73.451,76.859 75.804,77.085L75.996,75.094ZM68.232,75.876C65.72,76.643 63.384,77.897 61.358,79.566L62.629,81.11C64.453,79.608 66.555,78.479 68.816,77.789L68.232,75.876ZM61.358,79.566C59.331,81.235 57.654,83.287 56.421,85.604L58.186,86.543C59.296,84.459 60.805,82.612 62.629,81.11L61.358,79.566ZM56.421,85.604C55.188,87.921 54.423,90.458 54.172,93.07L56.163,93.262C56.389,90.911 57.077,88.628 58.186,86.543L56.421,85.604ZM54.172,93.07C53.92,95.682 54.186,98.318 54.954,100.827L56.867,100.242C56.176,97.984 55.936,95.612 56.163,93.262L54.172,93.07ZM54.954,100.827C55.723,103.336 56.978,105.67 58.649,107.694L60.191,106.421C58.688,104.599 57.558,102.5 56.867,100.242L54.954,100.827ZM58.649,107.694C60.32,109.719 62.373,111.395 64.692,112.627L65.63,110.86C63.543,109.752 61.695,108.243 60.191,106.421L58.649,107.694ZM64.161,111.743L64.161,111.743L66.161,111.743L66.161,111.743L64.161,111.743Z" fill="#3F3D56"/>
</g>
<g opacity="0.3">
<path d="M39.78,143.423C39.926,147.773 41.564,151.941 44.42,155.228C47.276,158.515 51.177,160.72 55.468,161.475C59.759,162.23 64.179,161.488 67.988,159.373C71.796,157.259 74.761,153.9 76.384,149.861C78.008,145.822 78.193,141.348 76.906,137.19C75.62,133.031 72.942,129.441 69.32,127.021C65.699,124.601 61.354,123.498 57.016,123.898C52.677,124.298 48.608,126.177 45.491,129.218L52.088,143.007L41.582,134.698C40.291,137.42 39.673,140.412 39.78,143.423L39.78,143.423Z" fill="#FFAA2A"/>
</g>
<g opacity="0.3">
<path d="M46.619,126.837L45.921,126.121L45.408,126.622L45.717,127.268L46.619,126.837ZM53.215,140.626L52.595,141.41L55.98,144.087L54.118,140.194L53.215,140.626ZM42.71,132.317L43.33,131.532L42.345,130.753L41.807,131.888L42.71,132.317ZM39.909,141.075C40.062,145.655 41.786,150.042 44.793,153.502L46.303,152.191C43.597,149.077 42.045,145.129 41.908,141.008L39.909,141.075ZM44.793,153.502C47.8,156.962 51.906,159.284 56.423,160.079L56.769,158.109C52.704,157.394 49.008,155.304 46.303,152.191L44.793,153.502ZM56.423,160.079C60.939,160.873 65.592,160.092 69.601,157.866L68.63,156.118C65.022,158.121 60.834,158.824 56.769,158.109L56.423,160.079ZM69.601,157.866C73.61,155.64 76.731,152.105 78.44,147.853L76.584,147.107C75.046,150.933 72.238,154.114 68.63,156.118L69.601,157.866ZM78.44,147.853C80.15,143.601 80.344,138.891 78.99,134.513L77.079,135.104C78.297,139.043 78.123,143.281 76.584,147.107L78.44,147.853ZM78.99,134.513C77.635,130.135 74.816,126.356 71.004,123.808L69.892,125.471C73.323,127.764 75.86,131.165 77.079,135.104L78.99,134.513ZM71.004,123.808C67.191,121.261 62.619,120.1 58.052,120.522L58.235,122.513C62.346,122.134 66.462,123.179 69.892,125.471L71.004,123.808ZM58.052,120.522C53.485,120.943 49.202,122.92 45.921,126.121L47.317,127.553C50.27,124.671 54.125,122.892 58.235,122.513L58.052,120.522ZM45.717,127.268L52.313,141.057L54.118,140.194L47.521,126.405L45.717,127.268ZM53.836,139.841L43.33,131.532L42.09,133.101L52.595,141.41L53.836,139.841ZM41.807,131.888C40.446,134.755 39.795,137.907 39.909,141.077L41.907,141.006C41.806,138.156 42.391,135.323 43.613,132.745L41.807,131.888Z" fill="#3F3D56"/>
</g>
</g>
</svg>
