<svg width="66" height="102" viewBox="0 0 66 102" fill="none" xmlns="http://www.w3.org/2000/svg" xmlns:xlink="http://www.w3.org/1999/xlink">
<path d="M14.119,43.784C14.119,43.784 -1.615,29.765 -0.765,17.87C-0.765,17.87 8.591,10.648 10.717,14.471C12.844,18.295 28.299,33.211 25.674,38.285C23.05,43.359 14.119,43.784 14.119,43.784Z" fill="#FF6B4A"/>
<path d="M30.11,0.24C27.07,0.79 24.059,2.458 22.547,5.307C21.137,7.965 21.047,11.517 18.804,13.426C17.465,14.565 15.646,14.829 14.151,15.724C13.089,16.403 12.224,17.35 11.646,18.469C11.067,19.589 10.794,20.841 10.855,22.1C10.975,24.443 12.212,26.627 12.186,28.974C12.152,32.025 10.04,34.545 8.053,36.753L14.642,37.975C15.637,38.24 16.681,38.268 17.689,38.055C18.827,37.719 19.752,36.783 20.902,36.497C22.552,36.088 24.184,37.09 25.656,37.98C29.845,40.511 34.337,42.422 38.813,44.324C40.13,44.884 41.623,45.444 42.923,44.841C43.972,44.353 44.625,43.213 45.612,42.596C47.379,41.492 49.599,42.323 51.585,42.869C56.077,44.086 60.855,43.68 65.077,41.721C64.167,40.659 62.974,39.916 61.993,38.928C61.013,37.939 60.219,36.539 60.479,35.131C60.743,33.695 61.979,32.737 62.821,31.578C63.443,30.66 63.876,29.627 64.094,28.54C64.313,27.453 64.312,26.333 64.092,25.246C63.65,23.084 62.598,21.094 61.059,19.511C60.181,18.69 59.352,17.817 58.577,16.897C57.027,14.806 56.644,12.038 56.148,9.431C55.652,6.825 54.869,4.05 52.857,2.463C49.65,-0.066 44.443,0.796 40.695,0.545C37.121,0.306 33.675,0.24 30.11,0.24Z" fill="#2F2E41"/>
<path d="M28.153,25.517C28.153,25.517 29.429,38.686 23.9,40.386C18.372,42.085 45.588,41.66 45.588,41.66C45.588,41.66 39.21,37.837 42.186,29.765C45.163,21.693 28.153,25.517 28.153,25.517Z" fill="#A0616A"/>
<g opacity="0.1">
<path d="M28.153,25.517C28.153,25.517 29.429,38.686 23.9,40.386C18.372,42.085 45.588,41.66 45.588,41.66C45.588,41.66 39.21,37.837 42.186,29.765C45.163,21.693 28.153,25.517 28.153,25.517Z" fill="#000000"/>
</g>
<path d="M57.07,48.457C57.07,48.457 54.519,35.288 49.416,36.137C44.313,36.987 34.107,37.837 32.831,38.686C31.555,39.536 24.751,41.277 24.751,41.277C24.751,41.277 27.302,38.261 24.751,37.837C22.199,37.412 14.119,39.536 13.269,41.235C12.418,42.935 9.016,46.333 9.016,52.281C9.016,58.228 6.465,68.424 7.315,72.672C8.166,76.921 6.89,86.692 4.338,92.214C1.787,97.737 3.913,103.26 8.166,97.737C12.418,92.214 10.292,97.737 13.694,98.162C17.096,98.587 32.405,82.868 36.658,86.692C40.911,90.515 45.163,93.064 46.014,90.94C46.864,88.816 42.612,84.992 42.612,83.293C42.612,81.594 35.808,88.816 43.037,73.947C50.266,59.078 43.462,54.83 57.07,48.457Z" fill="#FFAA2A"/>
<path d="M37.934,34.438C45.215,34.438 51.117,28.542 51.117,21.268C51.117,13.995 45.215,8.099 37.934,8.099C30.653,8.099 24.751,13.995 24.751,21.268C24.751,28.542 30.653,34.438 37.934,34.438Z" fill="#A0616A"/>
</svg>
