<svg width="206" height="182" viewBox="0 0 206 182" fill="none" xmlns="http://www.w3.org/2000/svg" xmlns:xlink="http://www.w3.org/1999/xlink">
<path d="M24.993,111.219L25.993,111.219L25.993,110.731L25.609,110.431L24.993,111.219ZM24.993,160.123L23.993,160.123L23.993,162.535L25.7,160.83L24.993,160.123ZM57.174,127.975L57.482,127.023L56.9,126.834L56.467,127.267L57.174,127.975ZM102.422,135.027L102.422,134.027L102.418,134.027L102.422,135.027ZM102.422,-0.735C74.22,-0.735 48.642,6.851 30.085,19.168C11.535,31.479 -0.096,48.599 -0.096,67.646L1.904,67.646C1.904,49.48 12.998,32.909 31.191,20.834C49.376,8.764 74.558,1.265 102.422,1.265L102.422,-0.735ZM-0.096,67.646C-0.096,84.653 9.187,100.127 24.377,112.006L25.609,110.431C10.755,98.814 1.904,83.871 1.904,67.646L-0.096,67.646ZM23.993,111.219L23.993,160.123L25.993,160.123L25.993,111.219L23.993,111.219ZM25.7,160.83L57.88,128.682L56.467,127.267L24.286,159.415L25.7,160.83ZM56.865,128.926C71.577,133.699 86.958,136.096 102.426,136.027L102.418,134.027C87.162,134.095 71.992,131.731 57.482,127.023L56.865,128.926ZM102.422,136.027C130.625,136.027 156.202,128.441 174.759,116.125C193.309,103.813 204.94,86.693 204.94,67.646L202.94,67.646C202.94,85.812 191.846,102.383 173.653,114.458C155.468,126.529 130.287,134.027 102.422,134.027L102.422,136.027ZM204.94,67.646C204.94,48.599 193.309,31.479 174.759,19.168C156.202,6.851 130.625,-0.735 102.422,-0.735L102.422,1.265C130.287,1.265 155.468,8.764 173.653,20.834C191.846,32.909 202.94,49.48 202.94,67.646L204.94,67.646Z" fill="#3F3D56"/>
<path d="M58.312,174.616C58.312,174.616 56.27,147.144 57.232,142.119C58.193,137.095 59.096,122.792 53.81,127.493C48.524,132.195 50.402,142.862 50.402,142.862C50.402,142.862 45.385,171.896 50.025,175.835C54.665,179.774 58.312,174.616 58.312,174.616Z" fill="#A0616A"/>
<path d="M117.828,176.72C117.828,176.72 127.184,150.805 127.609,145.707C128.034,140.609 131.011,126.59 134.839,132.538C138.666,138.485 133.988,148.256 133.988,148.256C133.988,148.256 131.011,177.569 125.483,180.118C119.955,182.667 117.828,176.72 117.828,176.72Z" fill="#A0616A"/>
</svg>
