<svg width="30" height="50" viewBox="0 0 30 50" fill="none" xmlns="http://www.w3.org/2000/svg" xmlns:xlink="http://www.w3.org/1999/xlink">
<path d="M1.667,20.667C2.587,20.667 3.333,21.413 3.333,22.333C3.333,22.389 3.331,22.444 3.325,22.498L3.325,27.087L3.317,27.087L3.317,27.1C3.317,27.131 3.319,27.163 3.321,27.194C3.323,27.223 3.325,27.251 3.325,27.28L3.325,27.907L3.357,27.907C3.852,33.834 8.703,38.454 14.647,38.66L15.321,38.66C21.267,38.457 26.121,33.836 26.614,27.907L26.654,27.907L26.654,22.353L26.667,22.353L26.667,22.333C26.667,21.413 27.413,20.667 28.333,20.667C29.254,20.667 30,21.413 30,22.333C30,22.381 29.998,22.429 29.994,22.476L29.994,26.567L29.974,26.567L29.973,26.567C29.979,34.223 24.256,40.673 16.653,41.58L16.653,46.647L22.933,46.647L22.933,46.668C22.955,46.667 22.978,46.667 23,46.667C23.92,46.667 24.667,47.413 24.667,48.333C24.667,49.254 23.92,50 23,50C22.978,50 22.955,50 22.933,49.999L22.933,50L7.06,50L7.06,49.999C7.04,50 7.02,50 7,50C6.08,50 5.333,49.254 5.333,48.333C5.333,47.413 6.08,46.667 7,46.667C7.02,46.667 7.04,46.667 7.06,46.668L7.06,46.647L13.353,46.647L13.353,41.58C5.735,40.695 -0.009,34.237 0,26.567C0,26.527 0.003,26.489 0.007,26.452C0.009,26.421 0.012,26.39 0.013,26.36L0.013,22.54C0.004,22.472 0,22.403 0,22.333C0,21.413 0.746,20.667 1.667,20.667ZM23.987,23.76C23.987,24.767 23.987,25.827 23.933,26.833C23.892,27.741 23.754,28.642 23.52,29.52C22.998,31.363 21.886,32.984 20.353,34.133C17.21,36.613 12.776,36.613 9.633,34.133C8.097,32.987 6.983,31.365 6.465,29.52C6.23,28.642 6.092,27.741 6.053,26.833C5.995,25.827 6,24.767 6,23.76L6,15.333C6,14.333 6.005,9.913 6,9.167C6.026,8.253 6.184,7.349 6.467,6.48C7.534,2.653 11.021,0.005 14.994,0.005C18.967,0.005 22.454,2.653 23.521,6.48C23.772,7.356 23.928,8.257 23.988,9.167C24.048,10.173 23.988,14.333 23.988,15.333L23.988,23.76L23.987,23.76ZM20.653,25.333C20.653,25.973 20.64,26.187 20.6,26.827C20.577,27.408 20.49,27.985 20.34,28.547C20.021,29.727 19.326,30.77 18.36,31.52C16.381,33.058 13.612,33.058 11.633,31.52C10.664,30.773 9.966,29.728 9.647,28.547C9.5,27.984 9.413,27.408 9.387,26.827C9.353,26.187 9.347,25.973 9.347,25.333C9.347,16.467 9.307,9.893 9.36,9.187C9.399,8.605 9.495,8.029 9.647,7.467C9.966,6.285 10.664,5.241 11.633,4.493C13.612,2.956 16.381,2.956 18.36,4.493C19.326,5.243 20.021,6.287 20.34,7.467C20.509,8.027 20.617,8.603 20.66,9.187C20.707,9.947 20.653,16.44 20.653,25.333Z" clip-rule="evenodd" fill-rule="evenodd" fill="#50555C"/>
</svg>
