<svg width="52" height="54" viewBox="0 0 52 54" fill="none" xmlns="http://www.w3.org/2000/svg" xmlns:xlink="http://www.w3.org/1999/xlink">
<path d="M25.5,0C40.136,0 52,11.864 52,26.5C52,41.136 40.136,53 25.5,53C10.864,53 -1,41.136 -1,26.5C-1,11.864 10.864,0 25.5,0ZM25.5,3.087C38.43,3.089 48.911,13.572 48.91,26.502C48.909,39.432 38.427,49.913 25.496,49.913C12.566,49.912 2.085,39.43 2.085,26.5C2.085,20.29 4.552,14.335 8.943,9.944C13.334,5.553 19.29,3.087 25.5,3.087L25.5,3.087ZM17.117,15.006C16.298,14.996 15.509,15.315 14.927,15.892C14.345,16.468 14.019,17.254 14.021,18.073C14.021,19.783 15.407,21.169 17.117,21.169C18.827,21.169 20.213,19.783 20.213,18.073C20.215,17.254 19.888,16.468 19.306,15.892C18.725,15.315 17.936,14.996 17.117,15.006L17.117,15.006ZM43.16,31.065C41.749,38.69 34.389,45.057 25.497,45.057C16.675,45.057 9.358,38.783 7.864,31.244C7.561,29.362 9.102,28.918 10.554,29.269C15.41,30.673 20.446,31.356 25.5,31.297C30.543,31.355 35.567,30.674 40.413,29.276C41.824,28.918 43.335,29.322 43.16,31.065L43.16,31.065ZM38.37,32.125C38.232,32.178 38.092,32.217 37.951,32.264C37.936,32.27 38.403,32.118 38.389,32.125C34.199,33.278 29.868,33.838 25.522,33.787C20.336,33.787 15.698,33.211 12.506,32.065C10.192,31.376 10.635,34.099 12.262,34.934C16.423,36.828 20.95,37.782 25.521,37.729C30.959,37.729 35.805,36.464 39.005,34.828C40.52,33.854 40.819,31.243 38.37,32.125L38.37,32.125ZM33.901,15.006C33.081,14.996 32.292,15.315 31.711,15.891C31.129,16.468 30.802,17.254 30.804,18.073C30.788,19.19 31.374,20.229 32.339,20.792C33.304,21.356 34.497,21.356 35.461,20.792C36.426,20.229 37.013,19.19 36.996,18.073C36.998,17.254 36.672,16.468 36.09,15.892C35.508,15.315 34.72,14.996 33.901,15.006L33.901,15.006Z" clip-rule="evenodd" fill-rule="evenodd" fill="#50555C"/>
</svg>
