<svg width="518" height="570" viewBox="0 0 518 570" fill="none" xmlns="http://www.w3.org/2000/svg" xmlns:xlink="http://www.w3.org/1999/xlink">
<path d="M209.668,162.495C210.608,161.915 210.902,160.683 210.322,159.743C209.742,158.802 208.51,158.51 207.57,159.089L209.668,162.495ZM512.48,313.255C512.966,314.246 514.166,314.654 515.156,314.167C516.148,313.68 516.556,312.481 516.068,311.49L512.48,313.255ZM91.359,252.1L92.152,253.936L91.359,252.1ZM89.42,253.88L91.182,254.826L89.42,253.88ZM19.812,321.598L20.735,323.373L19.812,321.598ZM18.134,323.255L19.896,324.201L18.134,323.255ZM64.865,298.157L65.788,299.932L64.865,298.157ZM66.543,296.501L68.305,297.447L66.543,296.501ZM2.254,356.668L4.01,355.711L2.254,356.668ZM2.242,352.862L0.479,351.916L2.242,352.862ZM34.361,407.726L35.208,409.538L34.361,407.726ZM29.156,406.018L27.4,406.974L29.156,406.018ZM158.68,221.909L156.863,221.074L158.68,221.909ZM156.631,223.913L157.424,225.749L156.631,223.913ZM464.46,211.048L466.256,210.166L464.46,211.048ZM459.178,209.189L460.024,211.001L459.178,209.189ZM179.13,178.957L180.179,180.66L179.13,178.957ZM177.593,180.694L179.41,181.529L177.593,180.694ZM203.884,161.36C202.944,161.939 202.65,163.171 203.23,164.111C203.81,165.052 205.042,165.345 205.982,164.765L203.884,161.36ZM198.61,169.307C199.55,168.727 199.843,167.495 199.264,166.555C198.684,165.614 197.452,165.322 196.512,165.901L198.61,169.307ZM189.14,170.442C188.199,171.022 187.906,172.254 188.486,173.194C189.065,174.135 190.297,174.427 191.238,173.848L189.14,170.442ZM183.865,178.389C184.806,177.81 185.099,176.578 184.519,175.637C183.94,174.697 182.708,174.404 181.767,174.984L183.865,178.389ZM177.366,177.771C176.521,178.482 176.412,179.743 177.123,180.589C177.834,181.434 179.096,181.543 179.941,180.832L177.366,177.771ZM179.552,181.271C180.155,180.346 179.894,179.107 178.968,178.504C178.043,177.901 176.804,178.162 176.201,179.088L179.552,181.271ZM174.199,183.295C173.738,184.299 174.179,185.486 175.183,185.947C176.186,186.407 177.374,185.967 177.834,184.963L174.199,183.295ZM174.682,191.832C175.143,190.828 174.703,189.641 173.699,189.18C172.695,188.72 171.508,189.16 171.047,190.164L174.682,191.832ZM167.895,197.033C167.434,198.037 167.874,199.224 168.878,199.685C169.882,200.145 171.07,199.705 171.53,198.701L167.895,197.033ZM168.378,205.57C168.839,204.566 168.399,203.379 167.395,202.918C166.391,202.458 165.203,202.898 164.743,203.902L168.378,205.57ZM161.591,210.771C161.13,211.775 161.57,212.962 162.574,213.423C163.578,213.883 164.765,213.443 165.226,212.439L161.591,210.771ZM162.074,219.308C162.535,218.304 162.094,217.117 161.09,216.656C160.087,216.196 158.899,216.636 158.439,217.64L162.074,219.308ZM156.68,221.392C156.044,222.295 156.261,223.543 157.164,224.178C158.067,224.814 159.315,224.598 159.951,223.695L156.68,221.392ZM158.387,225.223C159.305,224.608 159.549,223.365 158.934,222.448C158.319,221.531 157.076,221.286 156.159,221.901L158.387,225.223ZM151.758,223.838C150.744,224.276 150.277,225.453 150.715,226.467C151.153,227.481 152.33,227.948 153.344,227.51L151.758,223.838ZM145.185,231.034C146.199,230.596 146.666,229.419 146.228,228.405C145.79,227.391 144.613,226.924 143.599,227.362L145.185,231.034ZM135.44,230.885C134.426,231.323 133.959,232.5 134.397,233.514C134.835,234.528 136.012,234.995 137.026,234.557L135.44,230.885ZM128.867,238.081C129.881,237.643 130.348,236.466 129.91,235.452C129.472,234.437 128.295,233.97 127.281,234.408L128.867,238.081ZM119.122,237.932C118.108,238.37 117.641,239.547 118.079,240.561C118.517,241.575 119.694,242.042 120.708,241.604L119.122,237.932ZM112.549,245.127C113.563,244.689 114.03,243.512 113.592,242.498C113.154,241.484 111.977,241.017 110.963,241.455L112.549,245.127ZM102.804,244.978C101.79,245.416 101.323,246.593 101.761,247.607C102.199,248.622 103.376,249.089 104.39,248.651L102.804,244.978ZM96.231,252.174C97.245,251.736 97.712,250.559 97.274,249.545C96.836,248.531 95.659,248.064 94.645,248.502L96.231,252.174ZM89.68,250.738C88.753,251.339 88.489,252.577 89.09,253.504C89.691,254.431 90.93,254.695 91.856,254.094L89.68,250.738ZM91.365,254.545C92.042,253.673 91.884,252.416 91.012,251.739C90.139,251.061 88.883,251.22 88.205,252.092L91.365,254.545ZM85.751,256.486C85.229,257.459 85.594,258.672 86.568,259.194C87.541,259.716 88.753,259.351 89.276,258.378L85.751,256.486ZM85.463,265.481C85.985,264.508 85.62,263.295 84.647,262.773C83.673,262.251 82.461,262.616 81.939,263.589L85.463,265.481ZM78.126,270.693C77.603,271.666 77.969,272.879 78.942,273.401C79.915,273.923 81.128,273.558 81.65,272.585L78.126,270.693ZM77.837,279.688C78.36,278.715 77.994,277.502 77.021,276.98C76.048,276.458 74.835,276.823 74.313,277.796L77.837,279.688ZM70.5,284.9C69.978,285.873 70.343,287.085 71.316,287.608C72.289,288.13 73.502,287.765 74.024,286.792L70.5,284.9ZM70.211,293.895C70.734,292.922 70.368,291.709 69.395,291.187C68.422,290.664 67.209,291.03 66.687,292.003L70.211,293.895ZM64.62,295.807C63.958,296.692 64.139,297.945 65.023,298.606C65.908,299.268 67.161,299.087 67.823,298.203L64.62,295.807ZM66.55,299.459C67.443,298.809 67.64,297.558 66.99,296.665C66.34,295.772 65.089,295.576 64.196,296.226L66.55,299.459ZM60.187,298.337C59.207,298.847 58.826,300.054 59.336,301.034C59.846,302.014 61.053,302.395 62.033,301.885L60.187,298.337ZM54.524,305.792C55.504,305.282 55.885,304.074 55.376,303.095C54.866,302.115 53.658,301.734 52.678,302.243L54.524,305.792ZM45.169,306.15C44.19,306.66 43.808,307.868 44.318,308.848C44.828,309.828 46.036,310.209 47.016,309.699L45.169,306.15ZM39.507,313.606C40.487,313.096 40.868,311.888 40.358,310.908C39.848,309.928 38.64,309.547 37.661,310.057L39.507,313.606ZM30.152,313.964C29.172,314.474 28.791,315.681 29.301,316.661C29.81,317.641 31.018,318.022 31.998,317.512L30.152,313.964ZM24.489,321.419C25.469,320.909 25.85,319.702 25.34,318.722C24.83,317.742 23.623,317.361 22.643,317.871L24.489,321.419ZM18.126,320.296C17.233,320.947 17.036,322.198 17.687,323.09C18.337,323.983 19.588,324.18 20.481,323.53L18.126,320.296ZM20.056,323.949C20.718,323.064 20.537,321.811 19.653,321.149C18.768,320.488 17.515,320.668 16.853,321.553L20.056,323.949ZM14.385,326.01C13.862,326.983 14.228,328.196 15.201,328.718C16.174,329.241 17.387,328.875 17.909,327.902L14.385,326.01ZM13.936,335.304C14.459,334.33 14.093,333.118 13.12,332.595C12.147,332.073 10.934,332.439 10.412,333.412L13.936,335.304ZM6.439,340.813C5.917,341.787 6.282,342.999 7.255,343.522C8.228,344.044 9.441,343.678 9.963,342.705L6.439,340.813ZM5.99,350.107C6.513,349.134 6.147,347.921 5.174,347.399C4.201,346.876 2.988,347.242 2.466,348.215L5.99,350.107ZM-0.055,353.3C-0.323,354.372 0.329,355.458 1.401,355.725C2.472,355.993 3.558,355.341 3.826,354.269L-0.055,353.3ZM3.829,355.251C3.554,354.181 2.464,353.536 1.394,353.811C0.325,354.085 -0.32,355.175 -0.046,356.245L3.829,355.251ZM2.179,360.71C2.708,361.68 3.923,362.038 4.893,361.508C5.862,360.98 6.22,359.765 5.691,358.795L2.179,360.71ZM9.054,364.964C8.525,363.994 7.311,363.636 6.341,364.166C5.371,364.694 5.013,365.908 5.542,366.878L9.054,364.964ZM8.905,373.048C9.433,374.018 10.648,374.374 11.618,373.846C12.588,373.318 12.945,372.102 12.417,371.132L8.905,373.048ZM15.78,377.302C15.251,376.332 14.036,375.974 13.066,376.502C12.096,377.032 11.739,378.246 12.267,379.216L15.78,377.302ZM15.63,385.384C16.159,386.354 17.374,386.712 18.343,386.184C19.313,385.654 19.671,384.44 19.142,383.47L15.63,385.384ZM22.505,389.638C21.976,388.668 20.761,388.312 19.792,388.84C18.822,389.368 18.464,390.584 18.993,391.554L22.505,389.638ZM22.356,397.722C22.884,398.692 24.099,399.05 25.069,398.52C26.039,397.992 26.396,396.778 25.868,395.808L22.356,397.722ZM29.23,401.976C28.702,401.006 27.487,400.648 26.517,401.178C25.547,401.706 25.19,402.92 25.718,403.89L29.23,401.976ZM28.828,408.714C29.677,409.422 30.938,409.306 31.644,408.456C32.351,407.608 32.236,406.346 31.387,405.64L28.828,408.714ZM32.788,406.1C31.686,406.166 30.845,407.114 30.911,408.216C30.977,409.318 31.924,410.158 33.027,410.094L32.788,406.1ZM38.87,407.828C39.871,407.36 40.303,406.17 39.835,405.168C39.368,404.168 38.177,403.736 37.177,404.204L38.87,407.828ZM44.501,400.78C43.5,401.248 43.068,402.438 43.536,403.44C44.004,404.44 45.194,404.872 46.195,404.404L44.501,400.78ZM53.519,400.982C54.52,400.514 54.952,399.324 54.484,398.322C54.017,397.322 52.826,396.89 51.826,397.358L53.519,400.982ZM59.15,393.934C58.149,394.402 57.717,395.592 58.185,396.592C58.653,397.594 59.843,398.026 60.844,397.558L59.15,393.934ZM68.168,394.134C69.169,393.668 69.601,392.476 69.133,391.476C68.665,390.476 67.475,390.044 66.474,390.512L68.168,394.134ZM73.799,387.088C72.798,387.556 72.366,388.746 72.834,389.746C73.301,390.748 74.492,391.18 75.492,390.712L73.799,387.088ZM82.817,387.288C83.817,386.822 84.25,385.63 83.782,384.63C83.314,383.63 82.124,383.198 81.123,383.666L82.817,387.288ZM88.448,380.242C87.447,380.71 87.015,381.9 87.483,382.9C87.95,383.902 89.141,384.334 90.141,383.866L88.448,380.242ZM97.466,380.442C98.466,379.976 98.898,378.784 98.431,377.784C97.963,376.784 96.773,376.352 95.772,376.818L97.466,380.442ZM103.096,373.396C102.096,373.864 101.664,375.054 102.131,376.054C102.599,377.056 103.789,377.488 104.79,377.02L103.096,373.396ZM112.114,373.596C113.115,373.128 113.547,371.938 113.08,370.938C112.612,369.938 111.422,369.506 110.421,369.972L112.114,373.596ZM117.745,366.55C116.745,367.018 116.312,368.208 116.78,369.208C117.248,370.21 118.438,370.642 119.439,370.174L117.745,366.55ZM126.763,366.75C127.764,366.282 128.196,365.092 127.728,364.092C127.261,363.092 126.07,362.66 125.07,363.126L126.763,366.75ZM132.394,359.703C131.393,360.171 130.961,361.362 131.429,362.362C131.897,363.362 133.087,363.796 134.088,363.328L132.394,359.703ZM141.412,359.904C142.413,359.436 142.845,358.246 142.377,357.245C141.91,356.245 140.719,355.813 139.719,356.28L141.412,359.904ZM147.043,352.857C146.042,353.325 145.61,354.515 146.078,355.516C146.545,356.517 147.736,356.949 148.736,356.481L147.043,352.857ZM156.061,353.058C157.062,352.59 157.494,351.4 157.026,350.399C156.558,349.399 155.368,348.967 154.367,349.434L156.061,353.058ZM161.692,346.011C160.691,346.479 160.259,347.669 160.727,348.67C161.194,349.671 162.385,350.103 163.385,349.635L161.692,346.011ZM170.71,346.212C171.71,345.744 172.143,344.554 171.675,343.553C171.207,342.553 170.017,342.12 169.016,342.588L170.71,346.212ZM176.341,339.165C175.34,339.633 174.908,340.823 175.375,341.824C175.843,342.824 177.033,343.256 178.034,342.789L176.341,339.165ZM185.359,339.366C186.359,338.898 186.791,337.708 186.324,336.707C185.856,335.706 184.666,335.274 183.665,335.742L185.359,339.366ZM190.989,332.319C189.989,332.787 189.557,333.977 190.024,334.978C190.492,335.978 191.682,336.41 192.683,335.943L190.989,332.319ZM200.007,332.52C201.008,332.052 201.44,330.862 200.972,329.861C200.505,328.86 199.314,328.428 198.314,328.896L200.007,332.52ZM205.638,325.473C204.638,325.94 204.206,327.131 204.672,328.131C205.14,329.132 206.33,329.564 207.332,329.097L205.638,325.473ZM214.656,325.673C215.656,325.206 216.088,324.015 215.622,323.015C215.154,322.014 213.964,321.582 212.962,322.05L214.656,325.673ZM220.286,318.627C219.286,319.094 218.854,320.285 219.322,321.285C219.79,322.286 220.98,322.718 221.98,322.25L220.286,318.627ZM229.304,318.827C230.306,318.36 230.738,317.169 230.27,316.169C229.802,315.168 228.612,314.736 227.612,315.204L229.304,318.827ZM234.936,311.781C233.934,312.248 233.502,313.439 233.97,314.439C234.438,315.44 235.628,315.872 236.63,315.404L234.936,311.781ZM243.954,311.981C244.954,311.514 245.386,310.323 244.918,309.323C244.452,308.322 243.26,307.89 242.26,308.357L243.954,311.981ZM249.584,304.934C248.584,305.402 248.152,306.592 248.62,307.593C249.088,308.594 250.278,309.026 251.278,308.558L249.584,304.934ZM258.602,305.135C259.604,304.667 260.036,303.477 259.568,302.476C259.1,301.476 257.91,301.044 256.908,301.511L258.602,305.135ZM264.234,298.088C263.232,298.556 262.8,299.746 263.268,300.747C263.736,301.748 264.926,302.18 265.926,301.712L264.234,298.088ZM273.252,298.289C274.252,297.821 274.684,296.631 274.216,295.63C273.748,294.63 272.558,294.198 271.558,294.665L273.252,298.289ZM278.882,291.242C277.882,291.71 277.45,292.9 277.918,293.901C278.384,294.901 279.576,295.334 280.576,294.866L278.882,291.242ZM287.9,291.443C288.9,290.975 289.332,289.785 288.866,288.784C288.398,287.783 287.208,287.351 286.206,287.819L287.9,291.443ZM293.532,284.396C292.53,284.864 292.098,286.054 292.566,287.055C293.034,288.055 294.224,288.487 295.224,288.02L293.532,284.396ZM302.55,284.597C303.55,284.129 303.982,282.939 303.514,281.938C303.046,280.937 301.856,280.505 300.856,280.973L302.55,284.597ZM308.18,277.55C307.18,278.018 306.748,279.208 307.214,280.209C307.682,281.209 308.872,281.641 309.874,281.174L308.18,277.55ZM317.198,277.751C318.198,277.283 318.63,276.093 318.162,275.092C317.696,274.091 316.504,273.659 315.504,274.127L317.198,277.751ZM322.828,270.704C321.828,271.171 321.396,272.362 321.864,273.362C322.332,274.363 323.522,274.795 324.522,274.327L322.828,270.704ZM331.846,270.904C332.848,270.437 333.28,269.246 332.812,268.246C332.344,267.245 331.154,266.813 330.154,267.281L331.846,270.904ZM337.478,263.858C336.476,264.325 336.044,265.516 336.512,266.516C336.98,267.517 338.17,267.949 339.172,267.481L337.478,263.858ZM346.496,264.058C347.496,263.591 347.928,262.4 347.46,261.4C346.992,260.399 345.802,259.967 344.802,260.435L346.496,264.058ZM352.126,257.011C351.126,257.479 350.694,258.669 351.162,259.67C351.628,260.671 352.82,261.103 353.82,260.635L352.126,257.011ZM361.144,257.212C362.146,256.744 362.578,255.554 362.11,254.553C361.642,253.553 360.452,253.121 359.45,253.588L361.144,257.212ZM366.776,250.165C365.774,250.633 365.342,251.823 365.81,252.824C366.278,253.825 367.468,254.257 368.468,253.789L366.776,250.165ZM375.794,250.366C376.794,249.898 377.226,248.708 376.758,247.707C376.29,246.707 375.1,246.275 374.1,246.742L375.794,250.366ZM381.424,243.319C380.424,243.787 379.992,244.977 380.458,245.978C380.926,246.979 382.116,247.411 383.118,246.943L381.424,243.319ZM390.442,243.52C391.442,243.052 391.874,241.862 391.408,240.861C390.94,239.861 389.75,239.428 388.748,239.896L390.442,243.52ZM396.072,236.473C395.072,236.941 394.64,238.131 395.108,239.132C395.576,240.132 396.766,240.564 397.766,240.097L396.072,236.473ZM405.09,236.674C406.092,236.206 406.524,235.016 406.056,234.015C405.588,233.014 404.398,232.582 403.398,233.05L405.09,236.674ZM410.722,229.627C409.722,230.095 409.29,231.285 409.756,232.286C410.224,233.286 411.414,233.718 412.416,233.251L410.722,229.627ZM419.74,229.828C420.74,229.36 421.172,228.17 420.704,227.169C420.238,226.168 419.046,225.736 418.046,226.204L419.74,229.828ZM425.37,222.781C424.37,223.248 423.938,224.439 424.406,225.439C424.874,226.44 426.064,226.872 427.064,226.405L425.37,222.781ZM434.388,222.981C435.39,222.514 435.822,221.323 435.354,220.323C434.886,219.322 433.696,218.89 432.696,219.358L434.388,222.981ZM440.02,215.935C439.018,216.402 438.586,217.593 439.054,218.593C439.522,219.594 440.712,220.026 441.714,219.558L440.02,215.935ZM449.038,216.135C450.038,215.668 450.47,214.477 450.002,213.477C449.534,212.476 448.344,212.044 447.344,212.512L449.038,216.135ZM454.668,209.088C453.668,209.556 453.236,210.746 453.704,211.747C454.17,212.748 455.362,213.18 456.362,212.712L454.668,209.088ZM460.772,210.814C461.874,210.76 462.724,209.822 462.67,208.719C462.616,207.615 461.678,206.765 460.574,206.819L460.772,210.814ZM464.854,208.325C464.028,207.592 462.764,207.667 462.032,208.494C461.298,209.32 461.374,210.584 462.2,211.317L464.854,208.325ZM464.444,215.549C464.932,216.54 466.13,216.949 467.122,216.461C468.114,215.974 468.522,214.776 468.034,213.784L464.444,215.549ZM471.592,221.022C471.106,220.03 469.906,219.622 468.916,220.109C467.924,220.597 467.516,221.795 468.002,222.786L471.592,221.022ZM471.56,230.024C472.048,231.015 473.246,231.424 474.238,230.936C475.23,230.449 475.638,229.25 475.15,228.259L471.56,230.024ZM478.708,235.497C478.222,234.505 477.022,234.097 476.032,234.584C475.04,235.072 474.632,236.27 475.118,237.261L478.708,235.497ZM478.678,244.499C479.164,245.49 480.364,245.899 481.354,245.411C482.346,244.924 482.754,243.725 482.266,242.734L478.678,244.499ZM485.824,249.972C485.338,248.98 484.138,248.572 483.148,249.059C482.156,249.546 481.748,250.745 482.236,251.736L485.824,249.972ZM485.794,258.974C486.28,259.965 487.48,260.374 488.47,259.886C489.462,259.399 489.87,258.2 489.382,257.209L485.794,258.974ZM492.942,264.446C492.454,263.455 491.256,263.047 490.264,263.534C489.272,264.021 488.864,265.22 489.352,266.211L492.942,264.446ZM492.91,273.449C493.396,274.44 494.596,274.848 495.586,274.361C496.578,273.874 496.986,272.675 496.5,271.684L492.91,273.449ZM500.058,278.921C499.57,277.93 498.372,277.522 497.38,278.009C496.388,278.496 495.98,279.695 496.468,280.686L500.058,278.921ZM500.026,287.924C500.514,288.915 501.712,289.323 502.704,288.836C503.694,288.349 504.102,287.15 503.616,286.159L500.026,287.924ZM507.174,293.396C506.686,292.405 505.488,291.996 504.496,292.484C503.506,292.971 503.096,294.17 503.584,295.161L507.174,293.396ZM507.142,302.398C507.63,303.39 508.828,303.798 509.82,303.311C510.81,302.824 511.22,301.625 510.732,300.634L507.142,302.398ZM514.29,307.871C513.802,306.88 512.604,306.471 511.612,306.959C510.622,307.446 510.212,308.645 510.7,309.636L514.29,307.871ZM207.57,159.089L203.884,161.36L205.982,164.765L209.668,162.495L207.57,159.089ZM196.512,165.901L189.14,170.442L191.238,173.848L198.61,169.307L196.512,165.901ZM181.767,174.984L178.081,177.254L180.179,180.66L183.865,178.389L181.767,174.984ZM178.081,177.254C177.83,177.409 177.591,177.582 177.366,177.771L179.941,180.832C180.016,180.769 180.095,180.712 180.179,180.66L178.081,177.254ZM176.201,179.088C176.041,179.334 175.898,179.592 175.775,179.86L179.41,181.529C179.452,181.439 179.499,181.353 179.552,181.271L176.201,179.088ZM175.775,179.86L174.199,183.295L177.834,184.963L179.41,181.529L175.775,179.86ZM171.047,190.164L167.895,197.033L171.53,198.701L174.682,191.832L171.047,190.164ZM164.743,203.902L161.591,210.771L165.226,212.439L168.378,205.57L164.743,203.902ZM158.439,217.64L156.863,221.074L160.498,222.743L162.074,219.308L158.439,217.64ZM156.863,221.074C156.811,221.186 156.75,221.292 156.68,221.392L159.951,223.695C160.161,223.396 160.344,223.078 160.498,222.743L156.863,221.074ZM156.159,221.901C156.058,221.969 155.951,222.028 155.838,222.076L157.424,225.749C157.762,225.602 158.085,225.426 158.387,225.223L156.159,221.901ZM155.838,222.076L151.758,223.838L153.344,227.51L157.424,225.749L155.838,222.076ZM143.599,227.362L135.44,230.885L137.026,234.557L145.185,231.034L143.599,227.362ZM127.281,234.408L119.122,237.932L120.708,241.604L128.867,238.081L127.281,234.408ZM110.963,241.455L102.804,244.978L104.39,248.651L112.549,245.127L110.963,241.455ZM94.645,248.502L90.566,250.264L92.152,253.936L96.231,252.174L94.645,248.502ZM90.566,250.264C90.256,250.397 89.96,250.556 89.68,250.738L91.856,254.094C91.95,254.033 92.048,253.98 92.152,253.936L90.566,250.264ZM88.205,252.092C88.001,252.356 87.817,252.637 87.658,252.934L91.182,254.826C91.235,254.727 91.297,254.633 91.365,254.545L88.205,252.092ZM87.658,252.934L85.751,256.486L89.276,258.378L91.182,254.826L87.658,252.934ZM81.939,263.589L78.126,270.693L81.65,272.585L85.463,265.481L81.939,263.589ZM74.313,277.796L70.5,284.9L74.024,286.792L77.837,279.688L74.313,277.796ZM66.687,292.003L64.781,295.555L68.305,297.447L70.211,293.895L66.687,292.003ZM64.781,295.555C64.733,295.643 64.679,295.727 64.62,295.807L67.823,298.203C68.002,297.964 68.163,297.712 68.305,297.447L64.781,295.555ZM64.196,296.226C64.115,296.284 64.03,296.337 63.941,296.383L65.788,299.932C66.054,299.793 66.309,299.635 66.55,299.459L64.196,296.226ZM63.941,296.383L60.187,298.337L62.033,301.885L65.788,299.932L63.941,296.383ZM52.678,302.243L45.169,306.15L47.016,309.699L54.524,305.792L52.678,302.243ZM37.661,310.057L30.152,313.964L31.998,317.512L39.507,313.606L37.661,310.057ZM22.643,317.871L18.889,319.824L20.735,323.373L24.489,321.419L22.643,317.871ZM18.889,319.824C18.622,319.963 18.367,320.121 18.126,320.296L20.481,323.53C20.561,323.472 20.646,323.419 20.735,323.373L18.889,319.824ZM16.853,321.553C16.675,321.792 16.514,322.044 16.371,322.309L19.896,324.201C19.943,324.113 19.997,324.028 20.056,323.949L16.853,321.553ZM16.371,322.309L14.385,326.01L17.909,327.902L19.896,324.201L16.371,322.309ZM10.412,333.412L6.439,340.813L9.963,342.705L13.936,335.304L10.412,333.412ZM2.466,348.215L0.479,351.916L4.004,353.808L5.99,350.107L2.466,348.215ZM0.479,351.916C0.242,352.358 0.064,352.824 -0.055,353.3L3.826,354.269C3.865,354.111 3.924,353.956 4.004,353.808L0.479,351.916ZM-0.046,356.245C0.076,356.721 0.258,357.185 0.498,357.625L4.01,355.711C3.93,355.564 3.869,355.409 3.829,355.251L-0.046,356.245ZM0.498,357.625L2.179,360.71L5.691,358.795L4.01,355.711L0.498,357.625ZM5.542,366.878L8.905,373.048L12.417,371.132L9.054,364.964L5.542,366.878ZM12.267,379.216L15.63,385.384L19.142,383.47L15.78,377.302L12.267,379.216ZM18.993,391.554L22.356,397.722L25.868,395.808L22.505,389.638L18.993,391.554ZM25.718,403.89L27.4,406.974L30.912,405.06L29.23,401.976L25.718,403.89ZM27.4,406.974C27.771,407.656 28.259,408.242 28.828,408.714L31.387,405.64C31.2,405.484 31.037,405.292 30.912,405.06L27.4,406.974ZM33.027,410.094C33.765,410.05 34.505,409.868 35.208,409.538L33.515,405.914C33.276,406.026 33.031,406.086 32.788,406.1L33.027,410.094ZM35.208,409.538L38.87,407.828L37.177,404.204L33.515,405.914L35.208,409.538ZM46.195,404.404L53.519,400.982L51.826,397.358L44.501,400.78L46.195,404.404ZM60.844,397.558L68.168,394.134L66.474,390.512L59.15,393.934L60.844,397.558ZM75.492,390.712L82.817,387.288L81.123,383.666L73.799,387.088L75.492,390.712ZM90.141,383.866L97.466,380.442L95.772,376.818L88.448,380.242L90.141,383.866ZM104.79,377.02L112.114,373.596L110.421,369.972L103.096,373.396L104.79,377.02ZM119.439,370.174L126.763,366.75L125.07,363.126L117.745,366.55L119.439,370.174ZM134.088,363.328L141.412,359.904L139.719,356.28L132.394,359.703L134.088,363.328ZM148.736,356.481L156.061,353.058L154.367,349.434L147.043,352.857L148.736,356.481ZM163.385,349.635L170.71,346.212L169.016,342.588L161.692,346.011L163.385,349.635ZM178.034,342.789L185.359,339.366L183.665,335.742L176.341,339.165L178.034,342.789ZM192.683,335.943L200.007,332.52L198.314,328.896L190.989,332.319L192.683,335.943ZM207.332,329.097L214.656,325.673L212.962,322.05L205.638,325.473L207.332,329.097ZM221.98,322.25L229.304,318.827L227.612,315.204L220.286,318.627L221.98,322.25ZM236.63,315.404L243.954,311.981L242.26,308.357L234.936,311.781L236.63,315.404ZM251.278,308.558L258.602,305.135L256.908,301.511L249.584,304.934L251.278,308.558ZM265.926,301.712L273.252,298.289L271.558,294.665L264.234,298.088L265.926,301.712ZM280.576,294.866L287.9,291.443L286.206,287.819L278.882,291.242L280.576,294.866ZM295.224,288.02L302.55,284.597L300.856,280.973L293.532,284.396L295.224,288.02ZM309.874,281.174L317.198,277.751L315.504,274.127L308.18,277.55L309.874,281.174ZM324.522,274.327L331.846,270.904L330.154,267.281L322.828,270.704L324.522,274.327ZM339.172,267.481L346.496,264.058L344.802,260.435L337.478,263.858L339.172,267.481ZM353.82,260.635L361.144,257.212L359.45,253.588L352.126,257.011L353.82,260.635ZM368.468,253.789L375.794,250.366L374.1,246.742L366.776,250.165L368.468,253.789ZM383.118,246.943L390.442,243.52L388.748,239.896L381.424,243.319L383.118,246.943ZM397.766,240.097L405.09,236.674L403.398,233.05L396.072,236.473L397.766,240.097ZM412.416,233.251L419.74,229.828L418.046,226.204L410.722,229.627L412.416,233.251ZM427.064,226.405L434.388,222.981L432.696,219.358L425.37,222.781L427.064,226.405ZM441.714,219.558L449.038,216.135L447.344,212.512L440.02,215.935L441.714,219.558ZM456.362,212.712L460.024,211.001L458.33,207.377L454.668,209.088L456.362,212.712ZM460.024,211.001C460.27,210.886 460.522,210.826 460.772,210.814L460.574,206.819C459.816,206.856 459.054,207.039 458.33,207.377L460.024,211.001ZM462.2,211.317C462.386,211.482 462.546,211.687 462.666,211.93L466.256,210.166C465.902,209.448 465.422,208.829 464.854,208.325L462.2,211.317ZM462.666,211.93L464.444,215.549L468.034,213.784L466.256,210.166L462.666,211.93ZM468.002,222.786L471.56,230.024L475.15,228.259L471.592,221.022L468.002,222.786ZM475.118,237.261L478.678,244.499L482.266,242.734L478.708,235.497L475.118,237.261ZM482.236,251.736L485.794,258.974L489.382,257.209L485.824,249.972L482.236,251.736ZM489.352,266.211L492.91,273.449L496.5,271.684L492.942,264.446L489.352,266.211ZM496.468,280.686L500.026,287.924L503.616,286.159L500.058,278.921L496.468,280.686ZM503.584,295.161L507.142,302.398L510.732,300.634L507.174,293.396L503.584,295.161ZM510.7,309.636L512.48,313.255L516.068,311.49L514.29,307.871L510.7,309.636Z" transform="rotate(123.549 257.746 285.055)" fill="#FF2A7F"/>
<circle cx="350" cy="530" r="32" fill="#FF6B4A" fill-opacity="0.1" stroke="#FF6B4A" stroke-width="1" stroke-miterlimit="3.999327"/>
<g filter="url(#filter34_486)">
<circle cx="350" cy="530" r="12" fill="#FF6B4A" stroke="#FFFFFF" stroke-width="1" stroke-miterlimit="3.999327"/>
</g>
<circle cx="344" cy="180" r="32" fill="#FFAA2A" fill-opacity="0.14" stroke="#FFAA2A" stroke-width="1" stroke-miterlimit="3.999327"/>
<g filter="url(#filter34_489)">
<circle cx="344" cy="180" r="12" fill="#FFAA2A" stroke="#FFFFFF" stroke-width="1" stroke-miterlimit="3.999327"/>
</g>
<defs>
<filter id="filter34_486" x="318" y="498" width="52" height="52" filterUnits="userSpaceOnUse" color-interpolation-filters="sRGB">
<feFlood flood-opacity="0" result="BackgroundImageFix"/>
<feColorMatrix in="SourceAlpha" type="matrix" values="0 0 0 0 0 0 0 0 0 0 0 0 0 0 0 0 0 0 127 0" result="hardAlpha"/>
<feMorphology radius="0" operator="dilate" in="SourceAlpha" result="0dropshadow"/>
<feOffset dx="0" dy="0"/>
<feGaussianBlur stdDeviation="10"/>
<feComposite in2="hardAlpha" operator="out"/>
<feColorMatrix type="matrix" values="0 0 0 0 1 0 0 0 0 0.419608 0 0 0 0 0.290196 0 0 0 0.46 0"/>
<feBlend mode="normal" in2="BackgroundImageFix" result="0dropshadow"/>
<feBlend mode="normal" in="SourceGraphic" in2="0dropshadow" result="shape"/>
</filter>
<filter id="filter34_489" x="312" y="148" width="52" height="52" filterUnits="userSpaceOnUse" color-interpolation-filters="sRGB">
<feFlood flood-opacity="0" result="BackgroundImageFix"/>
<feColorMatrix in="SourceAlpha" type="matrix" values="0 0 0 0 0 0 0 0 0 0 0 0 0 0 0 0 0 0 127 0" result="hardAlpha"/>
<feMorphology radius="0" operator="dilate" in="SourceAlpha" result="0dropshadow"/>
<feOffset dx="0" dy="0"/>
<feGaussianBlur stdDeviation="10"/>
<feComposite in2="hardAlpha" operator="out"/>
<feColorMatrix type="matrix" values="0 0 0 0 1 0 0 0 0 0.666667 0 0 0 0 0.164706 0 0 0 0.46 0"/>
<feBlend mode="normal" in2="BackgroundImageFix" result="0dropshadow"/>
<feBlend mode="normal" in="SourceGraphic" in2="0dropshadow" result="shape"/>
</filter>
</defs>
</svg>
