<svg width="48" height="48" viewBox="0 0 48 48" fill="none" xmlns="http://www.w3.org/2000/svg" xmlns:xlink="http://www.w3.org/1999/xlink">
<path d="M42.1,11.857L42.1,0L5.9,0L5.9,11.858L0,16.456L0,48L48,48L48,16.456L42.1,11.857ZM42.1,15.827L43.962,17.278L42.1,18.931L42.1,15.827ZM9.03,3.13L38.969,3.13L38.97,21.711L24,35.006L9.03,21.711L9.03,3.13ZM5.9,15.826L5.9,18.931L4.038,17.278L5.9,15.826ZM3.13,20.658L16.381,32.426L3.13,43.189L3.13,20.658ZM6.027,44.87L18.753,34.532L24,39.192L29.247,34.532L41.973,44.87L6.027,44.87ZM44.87,43.189L31.619,32.426L44.87,20.658L44.87,43.189Z" fill="#FFFFFF"/>
<path d="M18,10L30,10L30,19.143L24,26L18,19.143L18,10Z" stroke="#FFFFFF" stroke-width="1" stroke-miterlimit="3.999327"/>
</svg>
