<svg width="48" height="48" viewBox="0 0 48 48" fill="none" xmlns="http://www.w3.org/2000/svg" xmlns:xlink="http://www.w3.org/1999/xlink">
<path d="M24,0C10.766,0 0,10.766 0,24C0,37.234 10.766,48 24,48C37.234,48 48,37.234 48,24C48,10.766 37.234,0 24,0ZM24,42.893C13.582,42.893 5.106,34.418 5.106,24C5.106,13.582 13.582,5.107 24,5.107C34.418,5.107 42.894,13.582 42.894,24C42.894,34.418 34.418,42.893 24,42.893Z" fill="#FFFFFF"/>
<path d="M36.508,23.259L25.722,23.259L25.722,10.291C25.722,9.199 24.837,8.315 23.746,8.315C22.655,8.315 21.77,9.199 21.77,10.291L21.77,25.235C21.77,26.326 22.655,27.211 23.746,27.211L36.508,27.211C37.599,27.211 38.484,26.326 38.484,25.235C38.484,24.144 37.599,23.259 36.508,23.259Z" fill="#FFFFFF"/>
</svg>
