<svg width="40" height="40" viewBox="0 0 40 40" fill="none" xmlns="http://www.w3.org/2000/svg" xmlns:xlink="http://www.w3.org/1999/xlink">
<path d="M0.667,38.391L0.195,38.862C-0.065,39.123 -0.065,39.544 0.195,39.805C0.325,39.935 0.496,40 0.667,40C0.837,40 1.008,39.935 1.138,39.805L1.609,39.333C1.87,39.073 1.87,38.651 1.609,38.391C1.349,38.13 0.927,38.13 0.667,38.391Z" fill="#FFFFFF"/>
<path d="M9.384,34.667C9.016,34.667 8.718,34.965 8.718,35.333C8.718,35.702 9.016,36 9.384,36L10.598,36C10.966,36 11.265,35.702 11.265,35.333C11.265,34.965 10.966,34.667 10.598,34.667L9.384,34.667Z" fill="#FFFFFF"/>
<path d="M13.026,34.667C12.658,34.667 12.359,34.965 12.359,35.333C12.359,35.702 12.658,36 13.026,36L14.239,36C14.607,36 14.906,35.702 14.906,35.333C14.906,34.965 14.607,34.667 14.239,34.667L13.026,34.667Z" fill="#FFFFFF"/>
<path d="M5.744,34.667C5.376,34.667 5.077,34.965 5.077,35.333C5.077,35.702 5.376,36 5.744,36L6.957,36C7.325,36 7.624,35.702 7.624,35.333C7.624,34.965 7.325,34.667 6.957,34.667L5.744,34.667Z" fill="#FFFFFF"/>
<path d="M4.183,35.817C3.923,35.556 3.501,35.556 3.241,35.817L2.383,36.675C2.122,36.935 2.122,37.357 2.383,37.617C2.513,37.747 2.683,37.813 2.854,37.813C3.025,37.813 3.195,37.747 3.325,37.617L4.183,36.759C4.444,36.499 4.444,36.077 4.183,35.817Z" fill="#FFFFFF"/>
<path d="M16.667,34.667C16.299,34.667 16,34.965 16,35.333C16,35.702 16.299,36 16.667,36L17.333,36C17.701,36 18,35.702 18,35.333C18,34.965 17.701,34.667 17.333,34.667L16.667,34.667Z" fill="#FFFFFF"/>
<path d="M0.667,35.839C0.837,35.839 1.008,35.773 1.138,35.643L3.722,33.059C3.785,32.996 3.855,32.939 3.955,32.878L4.083,32.809C4.107,32.795 4.129,32.781 4.154,32.77L4.403,32.693C4.491,32.677 4.579,32.667 4.667,32.667L14.667,32.667C15.035,32.667 15.333,32.369 15.333,32C15.333,31.631 15.035,31.333 14.667,31.333L4.667,31.333C4.496,31.333 4.321,31.351 4.139,31.386C4.075,31.4 4.014,31.419 3.953,31.439L3.866,31.465C3.791,31.485 3.717,31.507 3.649,31.535C3.569,31.568 3.495,31.608 3.421,31.651L3.357,31.685C3.301,31.714 3.245,31.743 3.186,31.783C3.039,31.881 2.902,31.993 2.779,32.117L0.195,34.701C-0.066,34.961 -0.066,35.383 0.195,35.643C0.325,35.773 0.496,35.839 0.667,35.839Z" fill="#FFFFFF"/>
<path d="M38.862,32.471C39.033,32.471 39.203,32.406 39.333,32.276L39.805,31.805C40.065,31.544 40.065,31.123 39.805,30.862C39.544,30.601 39.123,30.601 38.862,30.862L38.391,31.333C38.13,31.594 38.13,32.015 38.391,32.276C38.521,32.406 38.691,32.471 38.862,32.471Z" fill="#FFFFFF"/>
<path d="M36.377,33.347L35.371,34.353C35.11,34.614 35.11,35.035 35.371,35.296C35.501,35.426 35.671,35.491 35.842,35.491C36.013,35.491 36.183,35.426 36.313,35.296L37.32,34.289C37.581,34.029 37.581,33.607 37.32,33.347C37.059,33.086 36.638,33.086 36.377,33.347Z" fill="#FFFFFF"/>
<path d="M27.513,34.667C27.145,34.667 26.847,34.965 26.847,35.333C26.847,35.702 27.145,36 27.513,36L28.937,36C29.305,36 29.603,35.702 29.603,35.333C29.603,34.965 29.305,34.667 28.937,34.667L27.513,34.667Z" fill="#FFFFFF"/>
<path d="M31.783,34.667C31.415,34.667 31.117,34.965 31.117,35.333C31.117,35.702 31.415,36 31.783,36L33.207,36C33.575,36 33.873,35.702 33.873,35.333C33.873,34.965 33.575,34.667 33.207,34.667L31.783,34.667Z" fill="#FFFFFF"/>
<path d="M24,34.667C23.632,34.667 23.333,34.965 23.333,35.333C23.333,35.702 23.632,36 24,36L24.667,36C25.035,36 25.333,35.702 25.333,35.333C25.333,34.965 25.035,34.667 24.667,34.667L24,34.667Z" fill="#FFFFFF"/>
<path d="M38.862,35.023L36.278,37.607C36.215,37.67 36.147,37.726 36.047,37.788L35.921,37.856C35.895,37.871 35.869,37.887 35.842,37.898C35.821,37.907 35.799,37.911 35.777,37.917L35.592,37.973C35.507,37.991 35.421,38 35.333,38L5.26,38L4.249,38.814C3.962,39.045 3.916,39.465 4.147,39.751C4.279,39.915 4.472,40 4.667,40C4.813,40 4.961,39.952 5.084,39.853L5.73,39.333L35.333,39.333C35.507,39.333 35.683,39.316 35.853,39.281C35.921,39.268 35.985,39.249 36.049,39.227L36.133,39.203C36.207,39.182 36.281,39.16 36.356,39.129C36.434,39.096 36.507,39.057 36.581,39.015L36.647,38.979C36.704,38.95 36.76,38.92 36.811,38.885C36.959,38.787 37.097,38.675 37.221,38.55L39.805,35.966C40.065,35.705 40.065,35.284 39.805,35.023C39.544,34.763 39.123,34.763 38.862,35.023Z" fill="#FFFFFF"/>
<path d="M26,32C26,32.369 26.299,32.667 26.667,32.667L34.781,32.667L36.977,30.471C37.237,30.211 37.237,29.789 36.977,29.529C36.716,29.268 36.295,29.268 36.034,29.529L34.229,31.333L26.667,31.333C26.299,31.333 26,31.631 26,32Z" fill="#FFFFFF"/>
<path d="M20.784,36.505L31.012,21.733C34.848,16.619 34.293,8.213 29.825,3.745C27.41,1.33 24.199,0 20.784,0C17.37,0 14.159,1.33 11.744,3.745C7.276,8.213 6.72,16.619 10.542,21.713L20.784,36.505ZM20.902,8C23.476,8 25.569,10.094 25.569,12.667C25.569,15.239 23.476,17.333 20.902,17.333C18.329,17.333 16.236,15.239 16.236,12.667C16.236,10.094 18.329,8 20.902,8Z" fill="#FFFFFF"/>
</svg>
