<svg width="48" height="44" viewBox="0 0 48 44" fill="none" xmlns="http://www.w3.org/2000/svg" xmlns:xlink="http://www.w3.org/1999/xlink">
<path d="M6.527,42.191C6.527,42.191 6.484,43.264 7.532,43.264C8.836,43.264 19.632,43.25 19.632,43.25L19.649,33.336C19.649,33.336 19.479,31.701 21.065,31.701L26.085,31.701C27.961,31.701 27.846,33.336 27.846,33.336L27.825,43.218C27.825,43.218 38.061,43.218 39.668,43.218C40.999,43.218 40.938,41.882 40.938,41.882L40.938,23.604L24.247,8.756L6.527,23.604C6.527,23.604 6.527,42.191 6.527,42.191Z" fill="#FFFFFF"/>
<path d="M0,22.222C0,22.222 1.505,24.995 4.786,22.222L24.394,5.633L42.779,22.119C46.577,24.858 48,22.119 48,22.119L24.394,0.736L0,22.222Z" fill="#FFFFFF"/>
<path d="M42.333,5.594L37.604,5.594L37.624,11.329L42.333,15.324L42.333,5.594Z" fill="#FFFFFF"/>
</svg>
