<svg width="46" height="108" viewBox="0 0 46 108" fill="none" xmlns="http://www.w3.org/2000/svg" xmlns:xlink="http://www.w3.org/1999/xlink">
<g opacity="0.3">
<g opacity="0.3">
<path d="M39.761,40.271C38.249,41.075 36.571,41.518 34.858,41.563C33.146,41.609 31.446,41.257 29.893,40.535C28.34,39.812 26.976,38.739 25.908,37.4C24.841,36.062 24.1,34.493 23.743,32.82C23.386,31.146 23.423,29.412 23.851,27.755C24.279,26.098 25.087,24.563 26.21,23.27C27.333,21.978 28.742,20.964 30.324,20.309C31.907,19.653 33.62,19.374 35.329,19.492L35.853,25.163L37.836,19.959C40.628,20.818 42.965,22.749 44.332,25.327C44.816,26.23 45.169,27.196 45.382,28.198C45.886,30.547 45.61,32.996 44.596,35.175C43.582,37.353 41.885,39.142 39.761,40.271L39.761,40.271Z" fill="#FF6B4A"/>
</g>
<g opacity="0.3">
<path d="M15.427,87.948L16.338,87.535L16.338,87.535L15.427,87.948ZM21.338,68.535L22.18,69.075L22.18,69.075L21.338,68.535ZM28.205,54.395L29.15,54.722L29.15,54.722L28.205,54.395ZM29.453,48.231L30.453,48.21L30.453,48.21L29.453,48.231ZM26.641,39.653L25.748,40.104L25.748,40.104L26.641,39.653ZM36.818,107.508C36.969,104.688 35.693,102.287 33.886,100.356C32.085,98.431 29.695,96.902 27.424,95.777L26.536,97.569C28.686,98.634 30.847,100.035 32.426,101.723C33.999,103.404 34.933,105.299 34.821,107.402L36.818,107.508ZM27.424,95.777C25.161,94.656 22.871,93.639 20.854,92.333C18.857,91.041 17.247,89.537 16.338,87.535L14.517,88.362C15.646,90.848 17.602,92.612 19.767,94.012C21.911,95.4 24.378,96.5 26.536,97.569L27.424,95.777ZM16.338,87.535C15.035,84.665 15.459,81.616 16.773,78.441C18.095,75.244 20.238,72.1 22.18,69.075L20.497,67.995C18.61,70.934 16.333,74.27 14.924,77.676C13.507,81.103 12.89,84.779 14.517,88.362L16.338,87.535ZM22.18,69.075C25.063,64.583 27.402,59.765 29.15,54.722L27.26,54.068C25.564,58.961 23.294,63.636 20.497,67.995L22.18,69.075ZM29.15,54.722C29.845,52.716 30.499,50.507 30.453,48.21L28.453,48.251C28.492,50.169 27.945,52.09 27.26,54.068L29.15,54.722ZM30.453,48.21C30.386,44.913 28.889,41.882 27.533,39.202L25.748,40.104C27.133,42.842 28.397,45.478 28.453,48.251L30.453,48.21ZM27.533,39.202C22.962,30.162 18.179,21.233 13.185,12.416L11.444,13.401C16.424,22.192 21.192,31.092 25.748,40.104L27.533,39.202Z" fill="#3F3D56"/>
</g>
<g opacity="0.3">
<path d="M34.673,18.106L35.669,18.014L35.59,17.168L34.742,17.109L34.673,18.106ZM35.197,23.777L34.201,23.869L34.597,28.158L36.131,24.133L35.197,23.777ZM37.18,18.573L37.474,17.617L36.579,17.342L36.246,18.217L37.18,18.573ZM43.676,23.941L42.792,24.41L42.794,24.414L43.676,23.941ZM44.725,26.812L43.747,27.019L43.747,27.022L44.725,26.812ZM38.635,38.002C37.26,38.733 35.733,39.136 34.175,39.178L34.228,41.177C36.096,41.127 37.926,40.644 39.575,39.767L38.635,38.002ZM34.175,39.178C32.617,39.219 31.071,38.899 29.658,38.242L28.814,40.055C30.508,40.843 32.361,41.227 34.228,41.177L34.175,39.178ZM29.658,38.242C28.245,37.585 27.005,36.609 26.034,35.391L24.47,36.638C25.634,38.098 27.121,39.268 28.814,40.055L29.658,38.242ZM26.034,35.391C25.063,34.173 24.389,32.747 24.064,31.225L22.108,31.642C22.498,33.468 23.306,35.178 24.47,36.638L26.034,35.391ZM24.064,31.225C23.74,29.703 23.773,28.126 24.163,26.619L22.226,26.119C21.759,27.926 21.719,29.817 22.108,31.642L24.064,31.225ZM24.163,26.619C24.552,25.112 25.287,23.716 26.308,22.541L24.799,21.228C23.574,22.637 22.693,24.311 22.226,26.119L24.163,26.619ZM26.308,22.541C27.33,21.365 28.611,20.443 30.051,19.847L29.285,17.999C27.56,18.714 26.024,19.819 24.799,21.228L26.308,22.541ZM30.051,19.847C31.49,19.25 33.049,18.996 34.604,19.104L34.742,17.109C32.879,16.979 31.011,17.284 29.285,17.999L30.051,19.847ZM33.677,18.198L34.201,23.869L36.192,23.685L35.669,18.014L33.677,18.198ZM36.131,24.133L38.114,18.929L36.246,18.217L34.262,23.421L36.131,24.133ZM36.886,19.529C39.425,20.31 41.549,22.065 42.792,24.41L44.559,23.473C43.067,20.66 40.519,18.554 37.474,17.617L36.886,19.529ZM42.794,24.414C43.234,25.233 43.554,26.11 43.747,27.019L45.703,26.604C45.472,25.51 45.086,24.455 44.557,23.469L42.794,24.414ZM43.747,27.022C44.206,29.158 43.956,31.386 43.033,33.367L44.847,34.211C45.953,31.835 46.253,29.164 45.703,26.602L43.747,27.022ZM43.033,33.367C42.111,35.348 40.567,36.975 38.636,38.001L39.574,39.768C41.889,38.537 43.741,36.587 44.847,34.211L43.033,33.367Z" fill="#3F3D56"/>
</g>
<g opacity="0.3">
<path d="M23.287,9.373C22.417,7.737 21.149,6.346 19.599,5.328C18.05,4.31 16.269,3.699 14.42,3.549L14.277,9.031L11.808,3.644C9.492,4.007 7.351,5.096 5.694,6.753C4.037,8.411 2.95,10.551 2.591,12.866C2.231,15.181 2.618,17.55 3.694,19.631C4.77,21.712 6.48,23.398 8.578,24.445C10.675,25.492 13.052,25.846 15.364,25.455C17.676,25.065 19.804,23.951 21.441,22.274C23.077,20.596 24.138,18.443 24.47,16.124C24.802,13.805 24.388,11.441 23.287,9.373L23.287,9.373Z" fill="#FF6B4A"/>
</g>
<g opacity="0.3">
<path d="M13.545,1.701L13.626,0.704L12.573,0.619L12.545,1.675L13.545,1.701ZM13.402,7.183L12.493,7.599L14.289,11.518L14.401,7.209L13.402,7.183ZM10.933,1.796L11.842,1.379L11.527,0.691L10.778,0.808L10.933,1.796ZM23.294,7.055C22.346,5.271 20.963,3.754 19.273,2.644L18.175,4.316C19.584,5.242 20.737,6.507 21.529,7.994L23.294,7.055ZM19.273,2.644C17.583,1.534 15.641,0.867 13.626,0.704L13.464,2.698C15.146,2.834 16.766,3.39 18.175,4.316L19.273,2.644ZM12.545,1.675L12.402,7.156L14.401,7.209L14.545,1.727L12.545,1.675ZM14.311,6.766L11.842,1.379L10.024,2.213L12.493,7.599L14.311,6.766ZM10.778,0.808C8.253,1.203 5.918,2.391 4.111,4.198L5.526,5.612C7.033,4.104 8.98,3.114 11.088,2.784L10.778,0.808ZM4.111,4.198C2.305,6.006 1.12,8.34 0.727,10.865L2.704,11.171C3.031,9.066 4.019,7.12 5.526,5.612L4.111,4.198ZM0.727,10.865C0.335,13.389 0.757,15.973 1.93,18.242L3.707,17.324C2.728,15.431 2.377,13.276 2.704,11.171L0.727,10.865ZM1.93,18.242C3.104,20.512 4.969,22.35 7.256,23.492L8.149,21.702C6.241,20.75 4.685,19.216 3.707,17.324L1.93,18.242ZM7.256,23.492C9.543,24.633 12.134,25.019 14.655,24.593L14.322,22.621C12.219,22.976 10.057,22.654 8.149,21.702L7.256,23.492ZM14.655,24.593C17.176,24.168 19.496,22.953 21.281,21.124L19.85,19.727C18.361,21.253 16.425,22.266 14.322,22.621L14.655,24.593ZM21.281,21.124C23.066,19.295 24.223,16.947 24.585,14.418L22.605,14.134C22.303,16.243 21.338,18.202 19.85,19.727L21.281,21.124ZM24.585,14.418C24.947,11.889 24.495,9.31 23.294,7.055L21.529,7.995C22.53,9.876 22.907,12.026 22.605,14.134L24.585,14.418Z" fill="#3F3D56"/>
</g>
<g opacity="0.3">
<path d="M23.276,68.372C20.878,69.646 18.094,69.993 15.456,69.348C12.818,68.703 10.509,67.111 8.97,64.875C7.431,62.639 6.77,59.915 7.112,57.224C7.454,54.532 8.776,52.06 10.825,50.279L12.722,54.418L12.866,48.872C12.874,48.867 12.883,48.862 12.892,48.858C14.175,48.176 15.579,47.753 17.026,47.613C18.472,47.473 19.932,47.619 21.322,48.044C22.712,48.468 24.004,49.161 25.126,50.084C26.247,51.008 27.175,52.143 27.858,53.425C28.54,54.706 28.962,56.11 29.101,57.555C29.24,59 29.093,60.458 28.667,61.846C28.242,63.235 27.547,64.525 26.622,65.645C25.697,66.765 24.56,67.691 23.276,68.372L23.276,68.372Z" fill="#FF6B4A"/>
</g>
<g opacity="0.3">
<path d="M10.027,48.394L10.936,47.978L10.379,46.763L9.371,47.64L10.027,48.394ZM11.924,52.534L11.014,52.95L12.812,56.872L12.923,52.56L11.924,52.534ZM12.067,46.988L11.518,46.152L11.081,46.439L11.067,46.962L12.067,46.988ZM12.093,46.973L12.506,47.885L12.535,47.871L12.563,47.856L12.093,46.973ZM22.009,65.604C19.827,66.763 17.295,67.079 14.895,66.492L14.42,68.435C17.297,69.138 20.332,68.759 22.947,67.371L22.009,65.604ZM14.895,66.492C12.495,65.906 10.395,64.457 8.995,62.424L7.348,63.557C9.026,65.996 11.543,67.732 14.42,68.435L14.895,66.492ZM8.995,62.424C7.596,60.39 6.994,57.913 7.305,55.465L5.321,55.213C4.948,58.149 5.67,61.119 7.348,63.557L8.995,62.424ZM7.305,55.465C7.616,53.017 8.818,50.769 10.682,49.149L9.371,47.64C7.136,49.581 5.694,52.277 5.321,55.213L7.305,55.465ZM9.117,48.811L11.014,52.95L12.833,52.117L10.936,47.978L9.117,48.811ZM12.923,52.56L13.067,47.014L11.067,46.962L10.924,52.508L12.923,52.56ZM12.615,47.824C12.58,47.848 12.543,47.868 12.506,47.885L11.681,46.062C11.625,46.088 11.571,46.117 11.518,46.152L12.615,47.824ZM12.563,47.856C13.73,47.236 15.007,46.851 16.323,46.725L16.131,44.734C14.554,44.886 13.022,45.347 11.624,46.09L12.563,47.856ZM16.323,46.725C17.639,46.598 18.966,46.731 20.231,47.117L20.814,45.204C19.299,44.741 17.708,44.582 16.131,44.734L16.323,46.725ZM20.231,47.117C21.495,47.503 22.67,48.133 23.69,48.973L24.961,47.429C23.739,46.423 22.33,45.666 20.814,45.204L20.231,47.117ZM23.69,48.973C24.71,49.813 25.554,50.845 26.174,52.011L27.94,51.071C27.196,49.674 26.184,48.436 24.961,47.429L23.69,48.973ZM26.174,52.011C26.795,53.176 27.179,54.453 27.305,55.767L29.296,55.575C29.144,53.999 28.684,52.469 27.94,51.071L26.174,52.011ZM27.305,55.767C27.432,57.081 27.298,58.407 26.911,59.669L28.823,60.255C29.287,58.741 29.448,57.151 29.296,55.575L27.305,55.767ZM26.911,59.669C26.524,60.931 25.892,62.105 25.051,63.123L26.593,64.397C27.602,63.176 28.359,61.769 28.823,60.255L26.911,59.669ZM25.051,63.123C24.21,64.142 23.177,64.985 22.009,65.604L22.946,67.371C24.346,66.629 25.585,65.618 26.593,64.397L25.051,63.123Z" fill="#3F3D56"/>
</g>
<g opacity="0.3">
<path d="M37.254,84.93C37.169,87.462 36.216,89.889 34.553,91.802C32.89,93.716 30.619,95 28.121,95.439C25.623,95.879 23.05,95.446 20.833,94.215C18.616,92.985 16.89,91.029 15.944,88.678C14.999,86.327 14.892,83.722 15.64,81.301C16.389,78.88 17.948,76.79 20.057,75.381C22.165,73.972 24.694,73.331 27.22,73.564C29.746,73.796 32.115,74.89 33.929,76.66L30.089,84.688L36.205,79.85C36.957,81.435 37.317,83.177 37.254,84.93Z" fill="#FF6B4A"/>
</g>
<g opacity="0.3">
<path d="M33.273,75.274L34.175,75.706L34.484,75.059L33.971,74.558L33.273,75.274ZM29.432,83.302L28.53,82.87L26.668,86.763L30.053,84.086L29.432,83.302ZM35.548,78.464L36.452,78.036L35.913,76.901L34.928,77.68L35.548,78.464ZM35.598,83.51C35.521,85.813 34.654,88.02 33.141,89.76L34.651,91.072C36.464,88.985 37.504,86.339 37.597,83.577L35.598,83.51ZM33.141,89.76C31.629,91.5 29.564,92.668 27.291,93.068L27.638,95.038C30.361,94.559 32.838,93.159 34.651,91.072L33.141,89.76ZM27.291,93.068C25.019,93.468 22.678,93.075 20.662,91.955L19.691,93.704C22.108,95.046 24.914,95.517 27.638,95.038L27.291,93.068ZM20.662,91.955C18.645,90.835 17.075,89.057 16.216,86.919L14.36,87.665C15.391,90.229 17.273,92.361 19.691,93.704L20.662,91.955ZM16.216,86.919C15.356,84.78 15.258,82.412 15.939,80.21L14.029,79.62C13.212,82.26 13.329,85.1 14.36,87.665L16.216,86.919ZM15.939,80.21C16.62,78.009 18.038,76.108 19.956,74.827L18.845,73.164C16.546,74.7 14.845,76.979 14.029,79.62L15.939,80.21ZM19.956,74.827C21.874,73.545 24.174,72.961 26.472,73.173L26.655,71.182C23.901,70.928 21.144,71.627 18.845,73.164L19.956,74.827ZM26.472,73.173C28.769,73.385 30.924,74.38 32.574,75.99L33.971,74.558C31.992,72.628 29.409,71.436 26.655,71.182L26.472,73.173ZM32.37,74.843L28.53,82.87L30.334,83.733L34.175,75.706L32.37,74.843ZM30.053,84.086L36.169,79.249L34.928,77.68L28.812,82.517L30.053,84.086ZM34.645,78.893C35.328,80.333 35.655,81.916 35.598,83.508L37.597,83.579C37.665,81.666 37.272,79.765 36.452,78.036L34.645,78.893Z" fill="#3F3D56"/>
</g>
</g>
</svg>
