<svg width="46" height="108" viewBox="0 0 46 108" fill="none" xmlns="http://www.w3.org/2000/svg" xmlns:xlink="http://www.w3.org/1999/xlink">
<g opacity="0.3">
<g opacity="0.3">
<path d="M39.377,38.802C37.864,39.606 36.186,40.049 34.473,40.094C32.761,40.14 31.061,39.788 29.508,39.066C27.955,38.343 26.591,37.27 25.524,35.932C24.457,34.593 23.715,33.025 23.358,31.351C23.001,29.677 23.038,27.943 23.466,26.286C23.894,24.629 24.702,23.094 25.825,21.801C26.949,20.509 28.357,19.495 29.94,18.84C31.522,18.184 33.235,17.905 34.944,18.023L35.468,23.694L37.452,18.49C40.243,19.349 42.58,21.28 43.947,23.858C44.431,24.761 44.784,25.727 44.997,26.729C45.501,29.078 45.226,31.527 44.212,33.706C43.197,35.884 41.5,37.673 39.377,38.802L39.377,38.802Z" fill="#FF6B4A"/>
</g>
<g opacity="0.3">
<path d="M15.043,86.479L15.953,86.066L15.953,86.066L15.043,86.479ZM20.954,67.066L21.795,67.606L21.795,67.606L20.954,67.066ZM27.82,52.926L28.765,53.253L28.765,53.253L27.82,52.926ZM29.068,46.762L30.068,46.741L30.068,46.741L29.068,46.762ZM26.256,38.184L25.364,38.635L25.364,38.635L26.256,38.184ZM36.433,106.039C36.584,103.219 35.309,100.818 33.502,98.887C31.7,96.962 29.31,95.433 27.039,94.308L26.151,96.1C28.302,97.165 30.463,98.566 32.041,100.254C33.615,101.935 34.549,103.83 34.436,105.933L36.433,106.039ZM27.039,94.308C24.776,93.187 22.486,92.17 20.469,90.864C18.472,89.572 16.863,88.068 15.953,86.066L14.132,86.893C15.262,89.379 17.218,91.143 19.382,92.543C21.527,93.931 23.994,95.031 26.151,96.1L27.039,94.308ZM15.953,86.066C14.65,83.196 15.075,80.147 16.388,76.972C17.71,73.775 19.854,70.631 21.795,67.606L20.112,66.526C18.225,69.465 15.949,72.801 14.54,76.207C13.122,79.634 12.505,83.31 14.132,86.893L15.953,86.066ZM21.795,67.606C24.678,63.114 27.017,58.296 28.765,53.253L26.875,52.599C25.18,57.492 22.909,62.167 20.112,66.526L21.795,67.606ZM28.765,53.253C29.46,51.247 30.114,49.038 30.068,46.741L28.068,46.782C28.107,48.7 27.56,50.621 26.875,52.599L28.765,53.253ZM30.068,46.741C30.001,43.444 28.504,40.413 27.149,37.733L25.364,38.635C26.748,41.373 28.012,44.009 28.068,46.782L30.068,46.741ZM27.149,37.733C22.578,28.693 17.795,19.764 12.8,10.947L11.06,11.932C16.039,20.723 20.807,29.623 25.364,38.635L27.149,37.733Z" fill="#3F3D56"/>
</g>
<g opacity="0.3">
<path d="M34.288,16.637L35.284,16.545L35.206,15.699L34.357,15.64L34.288,16.637ZM34.812,22.308L33.816,22.4L34.212,26.689L35.746,22.664L34.812,22.308ZM36.795,17.104L37.089,16.148L36.194,15.873L35.861,16.748L36.795,17.104ZM43.291,22.472L42.407,22.941L42.409,22.945L43.291,22.472ZM44.34,25.343L43.362,25.55L43.363,25.553L44.34,25.343ZM38.25,36.533C36.875,37.264 35.348,37.667 33.79,37.709L33.844,39.708C35.711,39.658 37.541,39.176 39.19,38.298L38.25,36.533ZM33.79,37.709C32.232,37.75 30.686,37.43 29.273,36.773L28.43,38.586C30.123,39.374 31.976,39.758 33.844,39.708L33.79,37.709ZM29.273,36.773C27.86,36.116 26.62,35.14 25.649,33.922L24.085,35.169C25.249,36.629 26.736,37.799 28.43,38.586L29.273,36.773ZM25.649,33.922C24.679,32.704 24.004,31.278 23.68,29.756L21.724,30.173C22.113,31.999 22.921,33.709 24.085,35.169L25.649,33.922ZM23.68,29.756C23.355,28.234 23.389,26.657 23.778,25.15L21.842,24.65C21.375,26.457 21.334,28.348 21.724,30.173L23.68,29.756ZM23.778,25.15C24.167,23.643 24.902,22.247 25.924,21.072L24.414,19.759C23.189,21.168 22.308,22.842 21.842,24.65L23.778,25.15ZM25.924,21.072C26.945,19.896 28.226,18.974 29.666,18.378L28.9,16.53C27.175,17.245 25.639,18.35 24.414,19.759L25.924,21.072ZM29.666,18.378C31.105,17.781 32.664,17.527 34.219,17.635L34.357,15.64C32.494,15.51 30.626,15.815 28.9,16.53L29.666,18.378ZM33.292,16.729L33.816,22.4L35.808,22.216L35.284,16.545L33.292,16.729ZM35.746,22.664L37.73,17.46L35.861,16.748L33.877,21.952L35.746,22.664ZM36.501,18.06C39.04,18.841 41.164,20.596 42.407,22.941L44.174,22.004C42.683,19.191 40.134,17.085 37.089,16.148L36.501,18.06ZM42.409,22.945C42.849,23.764 43.169,24.641 43.362,25.55L45.319,25.135C45.087,24.041 44.701,22.986 44.172,22L42.409,22.945ZM43.363,25.553C43.821,27.689 43.571,29.917 42.648,31.898L44.462,32.742C45.568,30.366 45.868,27.695 45.318,25.133L43.363,25.553ZM42.648,31.898C41.726,33.879 40.182,35.506 38.251,36.533L39.189,38.299C41.505,37.069 43.356,35.118 44.462,32.742L42.648,31.898Z" fill="#3F3D56"/>
</g>
<g opacity="0.3">
<path d="M22.902,7.904C22.032,6.268 20.764,4.877 19.214,3.859C17.665,2.841 15.884,2.23 14.036,2.08L13.892,7.562L11.424,2.175C9.107,2.538 6.966,3.627 5.309,5.284C3.652,6.942 2.566,9.082 2.206,11.397C1.847,13.712 2.233,16.081 3.309,18.162C4.385,20.243 6.095,21.929 8.193,22.976C10.29,24.023 12.667,24.377 14.979,23.986C17.291,23.596 19.419,22.482 21.056,20.805C22.693,19.127 23.754,16.974 24.086,14.655C24.417,12.336 24.003,9.972 22.902,7.904L22.902,7.904Z" fill="#FF6B4A"/>
</g>
<g opacity="0.3">
<path d="M13.16,0.232L13.241,-0.765L12.188,-0.85L12.161,0.206L13.16,0.232ZM13.017,5.714L12.108,6.13L13.904,10.049L14.017,5.74L13.017,5.714ZM10.548,0.327L11.457,-0.09L11.142,-0.778L10.394,-0.661L10.548,0.327ZM22.91,5.586C21.961,3.802 20.578,2.285 18.888,1.175L17.79,2.847C19.199,3.773 20.353,5.038 21.144,6.525L22.91,5.586ZM18.888,1.175C17.198,0.065 15.256,-0.602 13.241,-0.765L13.08,1.229C14.761,1.365 16.381,1.921 17.79,2.847L18.888,1.175ZM12.161,0.206L12.017,5.687L14.017,5.74L14.16,0.258L12.161,0.206ZM13.926,5.297L11.457,-0.09L9.639,0.744L12.108,6.13L13.926,5.297ZM10.394,-0.661C7.868,-0.266 5.533,0.922 3.726,2.729L5.141,4.143C6.648,2.635 8.596,1.645 10.703,1.315L10.394,-0.661ZM3.726,2.729C1.92,4.537 0.735,6.871 0.343,9.396L2.319,9.702C2.646,7.597 3.634,5.651 5.141,4.143L3.726,2.729ZM0.343,9.396C-0.049,11.92 0.372,14.504 1.545,16.773L3.322,15.855C2.343,13.962 1.992,11.807 2.319,9.702L0.343,9.396ZM1.545,16.773C2.719,19.043 4.584,20.881 6.871,22.023L7.764,20.233C5.856,19.281 4.3,17.747 3.322,15.855L1.545,16.773ZM6.871,22.023C9.158,23.164 11.749,23.55 14.27,23.124L13.937,21.152C11.834,21.507 9.672,21.185 7.764,20.233L6.871,22.023ZM14.27,23.124C16.791,22.699 19.111,21.484 20.896,19.655L19.465,18.258C17.976,19.784 16.04,20.797 13.937,21.152L14.27,23.124ZM20.896,19.655C22.681,17.826 23.838,15.478 24.2,12.949L22.22,12.665C21.918,14.774 20.954,16.733 19.465,18.258L20.896,19.655ZM24.2,12.949C24.562,10.42 24.11,7.841 22.909,5.586L21.144,6.526C22.145,8.407 22.522,10.557 22.22,12.665L24.2,12.949Z" fill="#3F3D56"/>
</g>
<g opacity="0.3">
<path d="M22.892,66.903C20.493,68.177 17.709,68.524 15.071,67.879C12.433,67.234 10.124,65.642 8.585,63.406C7.046,61.17 6.385,58.446 6.727,55.755C7.069,53.063 8.391,50.591 10.44,48.81L12.337,52.949L12.481,47.403C12.489,47.398 12.498,47.393 12.507,47.389C13.79,46.707 15.195,46.284 16.641,46.144C18.087,46.004 19.547,46.15 20.937,46.575C22.327,46.999 23.619,47.692 24.741,48.615C25.862,49.539 26.79,50.674 27.473,51.956C28.155,53.237 28.577,54.641 28.716,56.086C28.855,57.531 28.708,58.989 28.282,60.377C27.857,61.766 27.162,63.056 26.237,64.176C25.312,65.296 24.175,66.222 22.892,66.903L22.892,66.903Z" fill="#FF6B4A"/>
</g>
<g opacity="0.3">
<path d="M9.642,46.925L10.551,46.509L9.994,45.294L8.986,46.171L9.642,46.925ZM11.539,51.065L10.63,51.481L12.427,55.403L12.538,51.091L11.539,51.065ZM11.682,45.519L11.134,44.683L10.696,44.97L10.682,45.493L11.682,45.519ZM11.709,45.504L12.121,46.416L12.15,46.402L12.178,46.387L11.709,45.504ZM21.624,64.135C19.442,65.294 16.91,65.61 14.51,65.023L14.035,66.966C16.912,67.669 19.947,67.29 22.562,65.902L21.624,64.135ZM14.51,65.023C12.11,64.437 10.01,62.988 8.61,60.955L6.963,62.088C8.641,64.527 11.158,66.263 14.035,66.966L14.51,65.023ZM8.61,60.955C7.211,58.921 6.609,56.444 6.921,53.996L4.937,53.744C4.563,56.68 5.285,59.65 6.963,62.088L8.61,60.955ZM6.921,53.996C7.232,51.548 8.434,49.3 10.298,47.68L8.986,46.171C6.751,48.113 5.31,50.808 4.937,53.744L6.921,53.996ZM8.733,47.342L10.63,51.481L12.448,50.648L10.551,46.509L8.733,47.342ZM12.538,51.091L12.682,45.545L10.682,45.493L10.539,51.039L12.538,51.091ZM12.231,46.355C12.194,46.379 12.158,46.399 12.121,46.416L11.296,44.593C11.241,44.618 11.187,44.648 11.134,44.683L12.231,46.355ZM12.178,46.387C13.345,45.767 14.622,45.382 15.938,45.256L15.746,43.265C14.169,43.417 12.638,43.878 11.239,44.621L12.178,46.387ZM15.938,45.256C17.254,45.129 18.582,45.262 19.846,45.648L20.43,43.735C18.914,43.272 17.323,43.113 15.746,43.265L15.938,45.256ZM19.846,45.648C21.11,46.034 22.285,46.664 23.305,47.504L24.576,45.96C23.354,44.954 21.945,44.197 20.43,43.735L19.846,45.648ZM23.305,47.504C24.325,48.344 25.169,49.376 25.789,50.542L27.555,49.602C26.811,48.205 25.799,46.967 24.576,45.96L23.305,47.504ZM25.789,50.542C26.41,51.708 26.794,52.984 26.92,54.298L28.911,54.106C28.76,52.53 28.299,51 27.555,49.602L25.789,50.542ZM26.92,54.298C27.047,55.612 26.913,56.938 26.526,58.2L28.438,58.786C28.902,57.272 29.063,55.682 28.911,54.106L26.92,54.298ZM26.526,58.2C26.139,59.462 25.508,60.636 24.666,61.655L26.209,62.928C27.217,61.707 27.975,60.3 28.438,58.786L26.526,58.2ZM24.666,61.655C23.825,62.673 22.792,63.516 21.624,64.135L22.562,65.902C23.961,65.16 25.2,64.149 26.209,62.928L24.666,61.655Z" fill="#3F3D56"/>
</g>
<g opacity="0.3">
<path d="M36.869,83.461C36.784,85.993 35.831,88.42 34.168,90.333C32.505,92.247 30.234,93.531 27.736,93.97C25.238,94.41 22.665,93.978 20.448,92.747C18.231,91.516 16.505,89.56 15.559,87.209C14.614,84.858 14.507,82.253 15.256,79.832C16.004,77.411 17.564,75.321 19.672,73.912C21.78,72.503 24.309,71.862 26.835,72.095C29.361,72.328 31.73,73.421 33.544,75.191L29.704,83.219L35.82,78.381C36.572,79.966 36.932,81.708 36.869,83.461L36.869,83.461Z" fill="#FF6B4A"/>
</g>
<g opacity="0.3">
<path d="M32.888,73.805L33.79,74.237L34.099,73.59L33.586,73.089L32.888,73.805ZM29.047,81.833L28.145,81.401L26.283,85.294L29.668,82.617L29.047,81.833ZM35.163,76.995L36.067,76.567L35.528,75.432L34.543,76.211L35.163,76.995ZM35.213,82.041C35.136,84.344 34.269,86.551 32.757,88.291L34.266,89.603C36.08,87.516 37.12,84.87 37.212,82.108L35.213,82.041ZM32.757,88.291C31.244,90.031 29.179,91.199 26.906,91.599L27.253,93.569C29.977,93.09 32.453,91.69 34.266,89.603L32.757,88.291ZM26.906,91.599C24.634,91.999 22.293,91.606 20.277,90.486L19.306,92.235C21.723,93.577 24.529,94.048 27.253,93.569L26.906,91.599ZM20.277,90.486C18.26,89.366 16.69,87.588 15.831,85.45L13.975,86.196C15.006,88.76 16.888,90.892 19.306,92.235L20.277,90.486ZM15.831,85.45C14.971,83.312 14.873,80.943 15.554,78.742L13.644,78.151C12.827,80.791 12.944,83.631 13.975,86.196L15.831,85.45ZM15.554,78.742C16.235,76.54 17.653,74.639 19.571,73.358L18.46,71.695C16.161,73.231 14.46,75.51 13.644,78.151L15.554,78.742ZM19.571,73.358C21.489,72.076 23.789,71.492 26.087,71.704L26.27,69.713C23.516,69.459 20.759,70.158 18.46,71.695L19.571,73.358ZM26.087,71.704C28.384,71.916 30.539,72.911 32.189,74.521L33.586,73.089C31.607,71.159 29.024,69.967 26.27,69.713L26.087,71.704ZM31.986,73.374L28.145,81.401L29.95,82.264L33.79,74.237L31.986,73.374ZM29.668,82.617L35.784,77.78L34.543,76.211L28.427,81.048L29.668,82.617ZM34.26,77.424C34.943,78.864 35.27,80.447 35.213,82.039L37.212,82.11C37.28,80.198 36.888,78.296 36.067,76.567L34.26,77.424Z" fill="#3F3D56"/>
</g>
</g>
</svg>
