<svg width="48" height="48" viewBox="0 0 48 48" fill="none" xmlns="http://www.w3.org/2000/svg" xmlns:xlink="http://www.w3.org/1999/xlink">
<path d="M24,0C10.766,0 0,10.767 0,24C0,37.234 10.766,48 24,48C37.234,48 48,37.234 48,24C48,10.767 37.234,0 24,0ZM24,43.636C13.172,43.636 4.364,34.828 4.364,24C4.364,13.173 13.172,4.364 24,4.364C34.828,4.364 43.636,13.173 43.636,24C43.636,34.828 34.827,43.636 24,43.636Z" fill="#FFFFFF"/>
<path d="M24,10.182C22.396,10.182 21.091,11.487 21.091,13.092C21.091,14.695 22.396,16 24,16C25.603,16 26.908,14.695 26.908,13.092C26.908,11.487 25.603,10.182 24,10.182Z" fill="#FFFFFF"/>
<path d="M24,20.363C22.795,20.363 21.818,21.34 21.818,22.545L21.818,35.636C21.818,36.841 22.795,37.818 24,37.818C25.205,37.818 26.182,36.841 26.182,35.636L26.182,22.545C26.182,21.34 25.205,20.363 24,20.363Z" fill="#FFFFFF"/>
</svg>
