<svg width="40" height="40" viewBox="0 0 40 40" fill="none" xmlns="http://www.w3.org/2000/svg" xmlns:xlink="http://www.w3.org/1999/xlink">
<path d="M20,0C8.972,0 0,8.972 0,20C0,31.028 8.972,40 20,40C31.028,40 40,31.028 40,20C40,8.972 31.028,0 20,0ZM20,35.744C11.319,35.744 4.255,28.682 4.255,20C4.255,11.318 11.319,4.256 20,4.256C28.681,4.256 35.745,11.318 35.745,20C35.745,28.682 28.681,35.744 20,35.744Z" fill="#FFFFFF"/>
<path d="M30.423,19.382L21.435,19.382L21.435,8.575C21.435,7.666 20.698,6.929 19.788,6.929C18.879,6.929 18.142,7.666 18.142,8.575L18.142,21.029C18.142,21.939 18.879,22.676 19.788,22.676L30.423,22.676C31.333,22.676 32.07,21.939 32.07,21.029C32.07,20.12 31.333,19.382 30.423,19.382Z" fill="#FFFFFF"/>
</svg>
