<svg width="26" height="26" viewBox="0 0 26 26" fill="none" xmlns="http://www.w3.org/2000/svg" xmlns:xlink="http://www.w3.org/1999/xlink">
<path d="M13.911,10.759C12.477,10.184 12.063,9.837 12.063,9.209C12.063,8.706 12.443,8.119 13.516,8.119C14.465,8.119 15.193,8.493 15.2,8.497C15.276,8.538 15.362,8.559 15.447,8.559C15.655,8.559 15.839,8.434 15.915,8.239L16.176,7.573C16.266,7.33 16.129,7.118 15.953,7.042C15.369,6.788 14.227,6.591 14.215,6.589C14.197,6.586 14.133,6.572 14.133,6.497L14.129,5.531C14.129,5.239 13.886,5.002 13.587,5.002L13.12,5.002C12.822,5.002 12.579,5.239 12.579,5.531L12.58,6.547C12.58,6.625 12.495,6.659 12.465,6.666C11.023,7.009 10.122,8.065 10.122,9.397C10.122,11.058 11.495,11.808 12.977,12.371C14.161,12.836 14.645,13.308 14.645,14C14.645,14.752 13.96,15.278 12.98,15.278C12.142,15.278 11.009,14.747 10.998,14.742C10.925,14.708 10.849,14.69 10.769,14.69C10.554,14.69 10.366,14.821 10.291,15.023L10.042,15.697C9.954,15.948 10.09,16.153 10.264,16.244C10.96,16.606 12.307,16.818 12.367,16.828C12.383,16.83 12.465,16.859 12.465,16.934L12.465,17.946C12.465,18.237 12.708,18.474 13.007,18.474L13.49,18.474C13.788,18.474 14.032,18.237 14.032,17.946L14.032,16.881C14.032,16.781 14.105,16.772 14.12,16.769C15.656,16.424 16.602,15.3 16.602,13.889C16.601,12.44 15.797,11.504 13.911,10.759Z" fill="#343B71"/>
<path d="M13.308,-0.955C6.298,-0.955 0.615,4.728 0.615,11.738C0.615,18.748 6.298,24.431 13.308,24.431C20.318,24.431 26,18.748 26,11.738C26,4.728 20.318,-0.955 13.308,-0.955ZM13.308,21.489C7.922,21.489 3.557,17.123 3.557,11.738C3.557,6.353 7.922,1.987 13.308,1.987C18.693,1.987 23.058,6.353 23.058,11.738C23.058,17.123 18.693,21.489 13.308,21.489Z" fill="#343B71"/>
</svg>
