<svg width="22" height="22" viewBox="0 0 22 22" fill="none" xmlns="http://www.w3.org/2000/svg" xmlns:xlink="http://www.w3.org/1999/xlink">
<path d="M11.926,10.299C10.731,9.82 10.386,9.53 10.386,9.007C10.386,8.588 10.703,8.099 11.597,8.099C12.388,8.099 12.994,8.411 13,8.414C13.064,8.448 13.135,8.466 13.206,8.466C13.379,8.466 13.532,8.361 13.596,8.199L13.813,7.644C13.889,7.441 13.774,7.265 13.627,7.202C13.141,6.99 12.189,6.826 12.179,6.824C12.164,6.821 12.111,6.81 12.111,6.748L12.108,5.942C12.108,5.699 11.905,5.502 11.656,5.502L11.266,5.502C11.018,5.502 10.816,5.699 10.816,5.942L10.817,6.789C10.817,6.854 10.746,6.882 10.72,6.888C9.519,7.174 8.768,8.054 8.768,9.164C8.768,10.548 9.912,11.173 11.147,11.642C12.134,12.03 12.537,12.423 12.537,12.999C12.537,13.627 11.967,14.065 11.15,14.065C10.452,14.065 9.508,13.623 9.498,13.618C9.438,13.589 9.374,13.575 9.308,13.575C9.128,13.575 8.972,13.684 8.909,13.852L8.702,14.414C8.628,14.623 8.742,14.794 8.887,14.869C9.467,15.171 10.589,15.348 10.639,15.356C10.652,15.358 10.721,15.382 10.721,15.445L10.721,16.288C10.721,16.531 10.923,16.728 11.172,16.728L11.575,16.728C11.824,16.728 12.026,16.531 12.026,16.288L12.026,15.4C12.026,15.317 12.088,15.31 12.1,15.307C13.38,15.02 14.168,14.083 14.168,12.908C14.168,11.7 13.497,10.92 11.926,10.299Z" fill="#FFFFFF"/>
<path d="M11.423,0.538C5.581,0.538 0.846,5.273 0.846,11.115C0.846,16.956 5.581,21.692 11.423,21.692C17.265,21.692 22,16.956 22,11.115C22,5.273 17.265,0.538 11.423,0.538ZM11.423,19.241C6.935,19.241 3.297,15.603 3.297,11.115C3.297,6.627 6.935,2.989 11.423,2.989C15.911,2.989 19.549,6.627 19.549,11.115C19.549,15.603 15.911,19.241 11.423,19.241Z" fill="#FFFFFF"/>
</svg>
