<svg width="490" height="254" viewBox="0 0 490 254" fill="none" xmlns="http://www.w3.org/2000/svg" xmlns:xlink="http://www.w3.org/1999/xlink">
<path d="M208.882,4.436C209.822,3.857 210.116,2.625 209.536,1.684C208.956,0.744 207.724,0.451 206.784,1.03L208.882,4.436ZM484.346,96.29C484.862,97.267 486.07,97.642 487.048,97.127C488.026,96.613 488.4,95.403 487.886,94.426L484.346,96.29ZM90.572,94.041L91.365,95.877L90.572,94.041ZM88.634,95.821L90.396,96.767L88.634,95.821ZM19.025,163.54L19.948,165.314L19.025,163.54ZM17.347,165.196L19.109,166.142L17.347,165.196ZM64.078,140.099L65.001,141.873L64.078,140.099ZM65.756,138.442L67.519,139.388L65.756,138.442ZM1.467,198.609L3.224,197.652L1.467,198.609ZM1.455,194.803L-0.307,193.857L1.455,194.803ZM33.575,249.667L34.422,251.479L33.575,249.667ZM28.369,247.959L26.613,248.915L28.369,247.959ZM157.894,63.85L156.076,63.016L157.894,63.85ZM155.844,65.854L156.637,67.69L155.844,65.854ZM463.722,52.844L465.492,51.912L463.722,52.844ZM458.488,51.084L459.336,52.896L458.488,51.084ZM178.344,20.898L179.393,22.601L178.344,20.898ZM176.806,22.636L178.624,23.47L176.806,22.636ZM203.098,3.301C202.158,3.88 201.864,5.112 202.444,6.053C203.024,6.993 204.256,7.286 205.196,6.707L203.098,3.301ZM197.823,11.248C198.764,10.669 199.057,9.437 198.477,8.496C197.898,7.556 196.666,7.263 195.725,7.842L197.823,11.248ZM188.353,12.383C187.413,12.963 187.12,14.195 187.699,15.135C188.279,16.076 189.511,16.368 190.451,15.789L188.353,12.383ZM183.079,20.33C184.019,19.751 184.312,18.519 183.733,17.579C183.153,16.638 181.921,16.345 180.981,16.925L183.079,20.33ZM176.58,19.712C175.735,20.423 175.626,21.684 176.337,22.53C177.048,23.375 178.309,23.484 179.155,22.773L176.58,19.712ZM178.766,23.212C179.369,22.287 179.107,21.048 178.182,20.445C177.256,19.842 176.017,20.104 175.414,21.029L178.766,23.212ZM173.412,25.236C172.952,26.24 173.392,27.427 174.396,27.888C175.4,28.349 176.587,27.908 177.048,26.904L173.412,25.236ZM173.896,33.773C174.357,32.769 173.916,31.582 172.912,31.121C171.908,30.661 170.721,31.101 170.26,32.105L173.896,33.773ZM167.108,38.974C166.648,39.978 167.088,41.165 168.092,41.626C169.096,42.087 170.283,41.646 170.744,40.642L167.108,38.974ZM167.592,47.511C168.052,46.507 167.612,45.32 166.608,44.859C165.604,44.399 164.417,44.839 163.956,45.843L167.592,47.511ZM160.804,52.712C160.344,53.716 160.784,54.903 161.788,55.364C162.792,55.825 163.979,55.384 164.44,54.38L160.804,52.712ZM161.288,61.249C161.748,60.246 161.308,59.058 160.304,58.598C159.3,58.137 158.113,58.577 157.652,59.581L161.288,61.249ZM155.894,63.333C155.258,64.236 155.475,65.484 156.378,66.12C157.281,66.756 158.529,66.539 159.164,65.636L155.894,63.333ZM157.601,67.164C158.518,66.549 158.763,65.306 158.148,64.389C157.532,63.472 156.29,63.227 155.373,63.842L157.601,67.164ZM150.972,65.779C149.958,66.217 149.491,67.394 149.929,68.408C150.367,69.422 151.544,69.889 152.558,69.452L150.972,65.779ZM144.399,72.975C145.413,72.537 145.88,71.36 145.442,70.346C145.004,69.332 143.827,68.865 142.813,69.303L144.399,72.975ZM134.654,72.826C133.64,73.264 133.173,74.441 133.611,75.455C134.049,76.469 135.226,76.936 136.24,76.498L134.654,72.826ZM128.081,80.022C129.095,79.584 129.562,78.407 129.124,77.393C128.686,76.379 127.509,75.912 126.495,76.35L128.081,80.022ZM118.336,79.873C117.322,80.311 116.855,81.488 117.293,82.502C117.731,83.516 118.908,83.983 119.922,83.545L118.336,79.873ZM111.763,87.068C112.777,86.631 113.244,85.454 112.806,84.439C112.368,83.425 111.191,82.958 110.177,83.396L111.763,87.068ZM102.018,86.92C101.004,87.358 100.537,88.535 100.975,89.549C101.413,90.563 102.59,91.03 103.604,90.592L102.018,86.92ZM95.445,94.115C96.459,93.677 96.926,92.5 96.488,91.486C96.05,90.472 94.873,90.005 93.859,90.443L95.445,94.115ZM88.894,92.679C87.967,93.28 87.703,94.518 88.304,95.445C88.905,96.372 90.143,96.636 91.07,96.035L88.894,92.679ZM90.578,96.486C91.256,95.614 91.098,94.358 90.225,93.68C89.353,93.003 88.096,93.161 87.419,94.033L90.578,96.486ZM84.965,98.427C84.443,99.4 84.808,100.613 85.781,101.135C86.755,101.658 87.967,101.292 88.489,100.319L84.965,98.427ZM84.677,107.422C85.199,106.449 84.833,105.237 83.86,104.714C82.887,104.192 81.675,104.557 81.152,105.531L84.677,107.422ZM77.339,112.634C76.817,113.607 77.182,114.82 78.156,115.342C79.129,115.865 80.341,115.499 80.864,114.526L77.339,112.634ZM77.051,121.629C77.573,120.656 77.208,119.444 76.234,118.921C75.261,118.399 74.049,118.764 73.526,119.737L77.051,121.629ZM69.713,126.841C69.191,127.814 69.557,129.027 70.53,129.549C71.503,130.071 72.715,129.706 73.238,128.733L69.713,126.841ZM69.425,135.836C69.947,134.863 69.582,133.65 68.609,133.128C67.635,132.606 66.423,132.971 65.901,133.944L69.425,135.836ZM63.834,137.748C63.172,138.633 63.353,139.886 64.237,140.548C65.122,141.209 66.375,141.029 67.037,140.144L63.834,137.748ZM65.764,141.401C66.657,140.751 66.853,139.5 66.203,138.607C65.553,137.714 64.302,137.517 63.409,138.167L65.764,141.401ZM59.401,140.278C58.421,140.788 58.04,141.995 58.55,142.975C59.059,143.955 60.267,144.336 61.247,143.826L59.401,140.278ZM53.738,147.733C54.718,147.223 55.099,146.016 54.589,145.036C54.079,144.056 52.872,143.675 51.892,144.185L53.738,147.733ZM44.383,148.092C43.403,148.601 43.022,149.809 43.532,150.789C44.042,151.769 45.249,152.15 46.229,151.64L44.383,148.092ZM38.72,155.547C39.7,155.037 40.081,153.829 39.572,152.849C39.062,151.87 37.854,151.489 36.874,151.998L38.72,155.547ZM29.365,155.905C28.385,156.415 28.004,157.623 28.514,158.602C29.024,159.582 30.232,159.963 31.212,159.454L29.365,155.905ZM23.703,163.36C24.683,162.851 25.064,161.643 24.554,160.663C24.044,159.683 22.836,159.302 21.856,159.812L23.703,163.36ZM17.34,162.238C16.447,162.888 16.25,164.139 16.9,165.032C17.55,165.925 18.801,166.121 19.694,165.471L17.34,162.238ZM19.27,165.89C19.932,165.006 19.751,163.752 18.866,163.091C17.982,162.429 16.728,162.61 16.067,163.494L19.27,165.89ZM13.598,167.951C13.076,168.924 13.441,170.137 14.415,170.659C15.388,171.182 16.6,170.816 17.123,169.843L13.598,167.951ZM13.15,177.245C13.672,176.271 13.307,175.059 12.333,174.537C11.36,174.014 10.148,174.38 9.625,175.353L13.15,177.245ZM5.652,182.755C5.13,183.728 5.496,184.94 6.469,185.463C7.442,185.985 8.654,185.62 9.177,184.646L5.652,182.755ZM5.204,192.048C5.726,191.075 5.361,189.862 4.388,189.34C3.414,188.818 2.202,189.183 1.679,190.156L5.204,192.048ZM-0.842,195.241C-1.109,196.313 -0.457,197.399 0.614,197.666C1.686,197.934 2.772,197.282 3.039,196.21L-0.842,195.241ZM3.042,197.192C2.768,196.122 1.678,195.477 0.608,195.752C-0.462,196.026 -1.107,197.116 -0.832,198.186L3.042,197.192ZM1.393,202.651C1.921,203.621 3.136,203.979 4.106,203.449C5.076,202.921 5.434,201.706 4.905,200.736L1.393,202.651ZM8.268,206.905C7.739,205.935 6.524,205.577 5.554,206.107C4.584,206.635 4.227,207.849 4.756,208.819L8.268,206.905ZM8.118,214.989C8.647,215.959 9.862,216.315 10.832,215.787C11.801,215.259 12.159,214.043 11.63,213.073L8.118,214.989ZM14.993,219.243C14.464,218.273 13.25,217.915 12.28,218.443C11.31,218.973 10.952,220.187 11.481,221.157L14.993,219.243ZM14.844,227.325C15.372,228.295 16.587,228.653 17.557,228.125C18.527,227.595 18.884,226.381 18.356,225.411L14.844,227.325ZM21.718,231.579C21.19,230.609 19.975,230.253 19.005,230.781C18.035,231.309 17.678,232.525 18.206,233.495L21.718,231.579ZM21.569,239.663C22.098,240.633 23.313,240.991 24.282,240.461C25.252,239.933 25.61,238.719 25.081,237.749L21.569,239.663ZM28.444,243.917C27.915,242.947 26.7,242.589 25.731,243.119C24.761,243.647 24.403,244.861 24.932,245.831L28.444,243.917ZM28.041,250.655C28.89,251.363 30.151,251.247 30.858,250.397C31.565,249.549 31.449,248.287 30.6,247.581L28.041,250.655ZM32.002,248.041C30.899,248.107 30.059,249.055 30.125,250.157C30.19,251.259 31.138,252.099 32.24,252.035L32.002,248.041ZM38.085,249.767C39.085,249.301 39.518,248.109 39.05,247.109C38.582,246.109 37.392,245.677 36.391,246.145L38.085,249.767ZM43.717,242.721C42.717,243.187 42.284,244.379 42.752,245.379C43.22,246.379 44.41,246.811 45.411,246.343L43.717,242.721ZM52.737,242.921C53.738,242.453 54.17,241.263 53.702,240.261C53.234,239.261 52.044,238.829 51.043,239.297L52.737,242.921ZM58.369,235.873C57.369,236.341 56.937,237.531 57.404,238.531C57.872,239.531 59.062,239.963 60.063,239.497L58.369,235.873ZM67.389,236.073C68.39,235.605 68.822,234.415 68.354,233.413C67.887,232.413 66.696,231.981 65.696,232.449L67.389,236.073ZM73.022,229.025C72.021,229.493 71.589,230.683 72.057,231.683C72.524,232.685 73.715,233.117 74.715,232.649L73.022,229.025ZM82.041,229.225C83.042,228.757 83.474,227.567 83.006,226.567C82.539,225.565 81.348,225.133 80.348,225.601L82.041,229.225ZM87.674,222.177C86.673,222.645 86.241,223.835 86.709,224.835C87.176,225.837 88.367,226.269 89.367,225.801L87.674,222.177ZM96.694,222.377C97.694,221.909 98.126,220.719 97.659,219.719C97.191,218.717 96.001,218.285 95,218.753L96.694,222.377ZM102.326,215.329C101.325,215.797 100.893,216.987 101.361,217.989C101.829,218.989 103.019,219.421 104.02,218.953L102.326,215.329ZM111.346,215.529C112.346,215.061 112.778,213.871 112.311,212.871C111.843,211.869 110.653,211.437 109.652,211.905L111.346,215.529ZM116.978,208.481C115.978,208.949 115.545,210.139 116.013,211.141C116.481,212.141 117.671,212.573 118.672,212.105L116.978,208.481ZM125.998,208.681C126.999,208.213 127.431,207.023 126.963,206.023C126.495,205.023 125.305,204.591 124.304,205.057L125.998,208.681ZM131.63,201.634C130.63,202.102 130.198,203.291 130.665,204.293C131.133,205.293 132.323,205.725 133.324,205.257L131.63,201.634ZM140.65,201.834C141.651,201.366 142.083,200.176 141.615,199.175C141.148,198.175 139.957,197.742 138.957,198.21L140.65,201.834ZM146.283,194.786C145.282,195.254 144.85,196.444 145.318,197.445C145.785,198.446 146.976,198.878 147.976,198.41L146.283,194.786ZM155.302,194.986C156.303,194.519 156.735,193.328 156.267,192.328C155.8,191.327 154.609,190.895 153.609,191.362L155.302,194.986ZM160.935,187.939C159.934,188.406 159.502,189.597 159.97,190.597C160.437,191.598 161.628,192.03 162.628,191.562L160.935,187.939ZM169.955,188.138C170.955,187.671 171.387,186.48 170.92,185.48C170.452,184.479 169.262,184.047 168.261,184.515L169.955,188.138ZM175.587,181.091C174.586,181.559 174.154,182.749 174.622,183.75C175.09,184.75 176.28,185.182 177.281,184.715L175.587,181.091ZM184.607,181.291C185.607,180.823 186.039,179.633 185.572,178.632C185.104,177.631 183.914,177.199 182.913,177.667L184.607,181.291ZM190.239,174.243C189.239,174.711 188.806,175.901 189.274,176.902C189.742,177.903 190.932,178.335 191.933,177.867L190.239,174.243ZM199.259,174.443C200.26,173.975 200.692,172.785 200.224,171.784C199.756,170.784 198.566,170.352 197.565,170.819L199.259,174.443ZM204.892,167.395C203.89,167.863 203.458,169.053 203.926,170.054C204.394,171.055 205.584,171.487 206.586,171.019L204.892,167.395ZM213.912,167.595C214.912,167.128 215.344,165.937 214.876,164.937C214.408,163.936 213.218,163.504 212.218,163.972L213.912,167.595ZM219.544,160.548C218.544,161.015 218.112,162.206 218.578,163.206C219.046,164.207 220.236,164.639 221.238,164.172L219.544,160.548ZM228.564,160.748C229.564,160.28 229.996,159.09 229.528,158.089C229.06,157.088 227.87,156.656 226.87,157.124L228.564,160.748ZM234.196,153.7C233.196,154.168 232.764,155.358 233.23,156.359C233.698,157.359 234.888,157.792 235.89,157.324L234.196,153.7ZM243.216,153.9C244.216,153.432 244.648,152.242 244.18,151.241C243.714,150.241 242.522,149.809 241.522,150.276L243.216,153.9ZM248.848,146.852C247.848,147.32 247.416,148.51 247.884,149.511C248.35,150.512 249.542,150.944 250.542,150.476L248.848,146.852ZM257.868,147.052C258.868,146.585 259.3,145.394 258.834,144.394C258.366,143.393 257.174,142.961 256.174,143.428L257.868,147.052ZM263.5,140.005C262.5,140.472 262.068,141.663 262.536,142.663C263.002,143.664 264.194,144.096 265.194,143.628L263.5,140.005ZM272.52,140.205C273.52,139.737 273.952,138.547 273.486,137.546C273.018,136.545 271.828,136.113 270.826,136.581L272.52,140.205ZM278.152,133.157C277.152,133.625 276.72,134.815 277.188,135.816C277.656,136.816 278.846,137.248 279.846,136.781L278.152,133.157ZM287.172,133.357C288.172,132.889 288.606,131.699 288.138,130.698C287.67,129.698 286.48,129.265 285.478,129.733L287.172,133.357ZM292.804,126.309C291.804,126.777 291.372,127.967 291.84,128.968C292.308,129.969 293.498,130.401 294.498,129.933L292.804,126.309ZM301.824,126.509C302.826,126.041 303.258,124.851 302.79,123.85C302.322,122.85 301.132,122.418 300.13,122.885L301.824,126.509ZM307.458,119.461C306.456,119.929 306.024,121.119 306.492,122.12C306.96,123.121 308.15,123.553 309.15,123.085L307.458,119.461ZM316.476,119.661C317.478,119.194 317.91,118.003 317.442,117.003C316.974,116.002 315.784,115.57 314.784,116.038L316.476,119.661ZM322.11,112.614C321.108,113.081 320.676,114.272 321.144,115.272C321.612,116.273 322.802,116.705 323.802,116.238L322.11,112.614ZM331.128,112.814C332.13,112.346 332.562,111.156 332.094,110.155C331.626,109.154 330.436,108.722 329.436,109.19L331.128,112.814ZM336.762,105.766C335.76,106.234 335.328,107.424 335.796,108.425C336.264,109.425 337.454,109.858 338.456,109.39L336.762,105.766ZM345.782,105.966C346.782,105.498 347.214,104.308 346.746,103.307C346.278,102.307 345.088,101.875 344.088,102.342L345.782,105.966ZM351.414,98.918C350.414,99.386 349.982,100.576 350.448,101.577C350.916,102.578 352.106,103.01 353.108,102.542L351.414,98.918ZM360.434,99.118C361.434,98.651 361.866,97.46 361.398,96.46C360.93,95.459 359.74,95.027 358.74,95.494L360.434,99.118ZM366.066,92.071C365.066,92.538 364.634,93.729 365.1,94.729C365.568,95.73 366.758,96.162 367.76,95.694L366.066,92.071ZM375.086,92.271C376.086,91.803 376.518,90.613 376.05,89.612C375.584,88.611 374.392,88.179 373.392,88.647L375.086,92.271ZM380.718,85.223C379.718,85.691 379.286,86.881 379.754,87.882C380.22,88.882 381.412,89.314 382.412,88.847L380.718,85.223ZM389.738,85.423C390.738,84.955 391.17,83.765 390.704,82.764C390.236,81.763 389.046,81.331 388.044,81.799L389.738,85.423ZM395.37,78.375C394.37,78.843 393.938,80.033 394.406,81.034C394.874,82.035 396.064,82.467 397.064,81.999L395.37,78.375ZM404.39,78.575C405.39,78.107 405.822,76.917 405.356,75.916C404.888,74.916 403.698,74.484 402.696,74.951L404.39,78.575ZM410.022,71.527C409.022,71.995 408.59,73.185 409.058,74.186C409.526,75.187 410.716,75.619 411.716,75.151L410.022,71.527ZM419.042,71.727C420.044,71.26 420.476,70.069 420.008,69.069C419.54,68.068 418.35,67.636 417.348,68.104L419.042,71.727ZM424.674,64.68C423.674,65.147 423.242,66.338 423.71,67.338C424.178,68.339 425.368,68.771 426.368,68.304L424.674,64.68ZM433.694,64.88C434.696,64.412 435.128,63.222 434.66,62.221C434.192,61.22 433.002,60.788 432.002,61.256L433.694,64.88ZM439.328,57.832C438.326,58.3 437.894,59.49 438.362,60.491C438.83,61.491 440.02,61.924 441.02,61.456L439.328,57.832ZM448.346,58.032C449.348,57.564 449.78,56.374 449.312,55.373C448.844,54.373 447.654,53.941 446.654,54.408L448.346,58.032ZM453.98,50.984C452.978,51.452 452.546,52.642 453.014,53.643C453.482,54.644 454.672,55.076 455.672,54.608L453.98,50.984ZM460.07,52.711C461.172,52.649 462.016,51.704 461.954,50.602C461.892,49.499 460.948,48.655 459.844,48.717L460.07,52.711ZM464.072,50.138C463.23,49.422 461.968,49.524 461.252,50.366C460.536,51.207 460.638,52.469 461.48,53.185L464.072,50.138ZM463.818,57.319C464.334,58.296 465.542,58.671 466.52,58.156C467.498,57.642 467.872,56.432 467.358,55.455L463.818,57.319ZM471.09,62.54C470.574,61.563 469.366,61.188 468.388,61.703C467.41,62.218 467.036,63.427 467.55,64.405L471.09,62.54ZM471.282,71.49C471.798,72.467 473.008,72.842 473.984,72.328C474.962,71.813 475.336,70.603 474.822,69.626L471.282,71.49ZM478.554,76.712C478.04,75.734 476.83,75.359 475.852,75.874C474.876,76.389 474.5,77.599 475.016,78.576L478.554,76.712ZM478.748,85.661C479.262,86.639 480.472,87.014 481.45,86.499C482.426,85.984 482.802,84.775 482.286,83.797L478.748,85.661ZM486.02,90.883C485.504,89.906 484.294,89.531 483.318,90.046C482.34,90.56 481.966,91.77 482.48,92.747L486.02,90.883ZM206.784,1.03L203.098,3.301L205.196,6.707L208.882,4.436L206.784,1.03ZM195.725,7.842L188.353,12.383L190.451,15.789L197.823,11.248L195.725,7.842ZM180.981,16.925L177.295,19.195L179.393,22.601L183.079,20.33L180.981,16.925ZM177.295,19.195C177.043,19.35 176.804,19.523 176.58,19.712L179.155,22.773C179.229,22.71 179.309,22.653 179.393,22.601L177.295,19.195ZM175.414,21.029C175.254,21.275 175.112,21.533 174.989,21.802L178.624,23.47C178.665,23.38 178.713,23.294 178.766,23.212L175.414,21.029ZM174.989,21.802L173.412,25.236L177.048,26.904L178.624,23.47L174.989,21.802ZM170.26,32.105L167.108,38.974L170.744,40.642L173.896,33.773L170.26,32.105ZM163.956,45.843L160.804,52.712L164.44,54.38L167.592,47.511L163.956,45.843ZM157.652,59.581L156.076,63.016L159.712,64.684L161.288,61.249L157.652,59.581ZM156.076,63.016C156.025,63.128 155.964,63.234 155.894,63.333L159.164,65.636C159.374,65.338 159.558,65.019 159.712,64.684L156.076,63.016ZM155.373,63.842C155.272,63.91 155.164,63.969 155.051,64.018L156.637,67.69C156.976,67.544 157.298,67.367 157.601,67.164L155.373,63.842ZM155.051,64.018L150.972,65.779L152.558,69.452L156.637,67.69L155.051,64.018ZM142.813,69.303L134.654,72.826L136.24,76.498L144.399,72.975L142.813,69.303ZM126.495,76.35L118.336,79.873L119.922,83.545L128.081,80.022L126.495,76.35ZM110.177,83.396L102.018,86.92L103.604,90.592L111.763,87.068L110.177,83.396ZM93.859,90.443L89.779,92.205L91.365,95.877L95.445,94.115L93.859,90.443ZM89.779,92.205C89.47,92.338 89.174,92.497 88.894,92.679L91.07,96.035C91.163,95.974 91.262,95.922 91.365,95.877L89.779,92.205ZM87.419,94.033C87.214,94.297 87.031,94.578 86.871,94.875L90.396,96.767C90.449,96.668 90.51,96.574 90.578,96.486L87.419,94.033ZM86.871,94.875L84.965,98.427L88.489,100.319L90.396,96.767L86.871,94.875ZM81.152,105.531L77.339,112.634L80.864,114.526L84.677,107.422L81.152,105.531ZM73.526,119.737L69.713,126.841L73.238,128.733L77.051,121.629L73.526,119.737ZM65.901,133.944L63.994,137.496L67.519,139.388L69.425,135.836L65.901,133.944ZM63.994,137.496C63.947,137.584 63.893,137.669 63.834,137.748L67.037,140.144C67.215,139.905 67.376,139.653 67.519,139.388L63.994,137.496ZM63.409,138.167C63.329,138.226 63.244,138.278 63.155,138.324L65.001,141.873C65.268,141.734 65.523,141.576 65.764,141.401L63.409,138.167ZM63.155,138.324L59.401,140.278L61.247,143.826L65.001,141.873L63.155,138.324ZM51.892,144.185L44.383,148.092L46.229,151.64L53.738,147.733L51.892,144.185ZM36.874,151.998L29.365,155.905L31.212,159.454L38.72,155.547L36.874,151.998ZM21.856,159.812L18.102,161.765L19.948,165.314L23.703,163.36L21.856,159.812ZM18.102,161.765C17.835,161.904 17.581,162.062 17.34,162.238L19.694,165.471C19.775,165.413 19.859,165.36 19.948,165.314L18.102,161.765ZM16.067,163.494C15.888,163.733 15.727,163.986 15.585,164.25L19.109,166.142C19.157,166.054 19.21,165.97 19.27,165.89L16.067,163.494ZM15.585,164.25L13.598,167.951L17.123,169.843L19.109,166.142L15.585,164.25ZM9.625,175.353L5.652,182.755L9.177,184.646L13.15,177.245L9.625,175.353ZM1.679,190.156L-0.307,193.857L3.217,195.749L5.204,192.048L1.679,190.156ZM-0.307,193.857C-0.545,194.3 -0.723,194.765 -0.842,195.241L3.039,196.21C3.079,196.052 3.138,195.897 3.217,195.749L-0.307,193.857ZM-0.832,198.186C-0.71,198.662 -0.529,199.126 -0.289,199.567L3.224,197.652C3.143,197.505 3.083,197.35 3.042,197.192L-0.832,198.186ZM-0.289,199.567L1.393,202.651L4.905,200.736L3.224,197.652L-0.289,199.567ZM4.756,208.819L8.118,214.989L11.63,213.073L8.268,206.905L4.756,208.819ZM11.481,221.157L14.844,227.325L18.356,225.411L14.993,219.243L11.481,221.157ZM18.206,233.495L21.569,239.663L25.081,237.749L21.718,231.579L18.206,233.495ZM24.932,245.831L26.613,248.915L30.125,247.001L28.444,243.917L24.932,245.831ZM26.613,248.915C26.985,249.597 27.473,250.183 28.041,250.655L30.6,247.581C30.413,247.425 30.251,247.233 30.125,247.001L26.613,248.915ZM32.24,252.035C32.979,251.991 33.719,251.809 34.422,251.479L32.728,247.855C32.49,247.967 32.245,248.027 32.002,248.041L32.24,252.035ZM34.422,251.479L38.085,249.767L36.391,246.145L32.728,247.855L34.422,251.479ZM45.411,246.343L52.737,242.921L51.043,239.297L43.717,242.721L45.411,246.343ZM60.063,239.497L67.389,236.073L65.696,232.449L58.369,235.873L60.063,239.497ZM74.715,232.649L82.041,229.225L80.348,225.601L73.022,229.025L74.715,232.649ZM89.367,225.801L96.694,222.377L95,218.753L87.674,222.177L89.367,225.801ZM104.02,218.953L111.346,215.529L109.652,211.905L102.326,215.329L104.02,218.953ZM118.672,212.105L125.998,208.681L124.304,205.057L116.978,208.481L118.672,212.105ZM133.324,205.257L140.65,201.834L138.957,198.21L131.63,201.634L133.324,205.257ZM147.976,198.41L155.302,194.986L153.609,191.362L146.283,194.786L147.976,198.41ZM162.628,191.562L169.955,188.138L168.261,184.515L160.935,187.939L162.628,191.562ZM177.281,184.715L184.607,181.291L182.913,177.667L175.587,181.091L177.281,184.715ZM191.933,177.867L199.259,174.443L197.565,170.819L190.239,174.243L191.933,177.867ZM206.586,171.019L213.912,167.595L212.218,163.972L204.892,167.395L206.586,171.019ZM221.238,164.172L228.564,160.748L226.87,157.124L219.544,160.548L221.238,164.172ZM235.89,157.324L243.216,153.9L241.522,150.276L234.196,153.7L235.89,157.324ZM250.542,150.476L257.868,147.052L256.174,143.428L248.848,146.852L250.542,150.476ZM265.194,143.628L272.52,140.205L270.826,136.581L263.5,140.005L265.194,143.628ZM279.846,136.781L287.172,133.357L285.478,129.733L278.152,133.157L279.846,136.781ZM294.498,129.933L301.824,126.509L300.13,122.885L292.804,126.309L294.498,129.933ZM309.15,123.085L316.476,119.661L314.784,116.038L307.458,119.461L309.15,123.085ZM323.802,116.238L331.128,112.814L329.436,109.19L322.11,112.614L323.802,116.238ZM338.456,109.39L345.782,105.966L344.088,102.342L336.762,105.766L338.456,109.39ZM353.108,102.542L360.434,99.118L358.74,95.494L351.414,98.918L353.108,102.542ZM367.76,95.694L375.086,92.271L373.392,88.647L366.066,92.071L367.76,95.694ZM382.412,88.847L389.738,85.423L388.044,81.799L380.718,85.223L382.412,88.847ZM397.064,81.999L404.39,78.575L402.696,74.951L395.37,78.375L397.064,81.999ZM411.716,75.151L419.042,71.727L417.348,68.104L410.022,71.527L411.716,75.151ZM426.368,68.304L433.694,64.88L432.002,61.256L424.674,64.68L426.368,68.304ZM441.02,61.456L448.346,58.032L446.654,54.408L439.328,57.832L441.02,61.456ZM455.672,54.608L459.336,52.896L457.642,49.273L453.98,50.984L455.672,54.608ZM459.336,52.896C459.576,52.784 459.824,52.724 460.07,52.711L459.844,48.717C459.1,48.759 458.352,48.941 457.642,49.273L459.336,52.896ZM461.48,53.185C461.666,53.344 461.828,53.541 461.952,53.776L465.492,51.912C465.126,51.218 464.64,50.622 464.072,50.138L461.48,53.185ZM461.952,53.776L463.818,57.319L467.358,55.455L465.492,51.912L461.952,53.776ZM467.55,64.405L471.282,71.49L474.822,69.626L471.09,62.54L467.55,64.405ZM475.016,78.576L478.748,85.661L482.286,83.797L478.554,76.712L475.016,78.576ZM482.48,92.747L484.346,96.29L487.886,94.426L486.02,90.883L482.48,92.747Z" transform="rotate(123.549 243.274 126.996)" fill="#FF2A7F"/>
</svg>
