<svg width="518" height="254" viewBox="0 0 518 254" fill="none" xmlns="http://www.w3.org/2000/svg" xmlns:xlink="http://www.w3.org/1999/xlink">
<path d="M209.668,4.495C210.608,3.916 210.902,2.683 210.322,1.743C209.742,0.803 208.51,0.51 207.57,1.089L209.668,4.495ZM512.48,155.255C512.966,156.246 514.166,156.655 515.156,156.167C516.148,155.68 516.556,154.481 516.068,153.49L512.48,155.255ZM91.359,94.1L92.152,95.936L91.359,94.1ZM89.42,95.88L91.182,96.826L89.42,95.88ZM19.812,163.599L20.735,165.373L19.812,163.599ZM18.134,165.255L19.896,166.201L18.134,165.255ZM64.865,140.158L65.788,141.932L64.865,140.158ZM66.543,138.501L68.305,139.447L66.543,138.501ZM2.254,198.668L4.01,197.711L2.254,198.668ZM2.242,194.862L0.48,193.916L2.242,194.862ZM34.361,249.726L35.208,251.538L34.361,249.726ZM29.156,248.018L27.4,248.974L29.156,248.018ZM158.681,63.909L156.863,63.075L158.681,63.909ZM156.631,65.913L157.424,67.749L156.631,65.913ZM464.46,53.048L466.256,52.166L464.46,53.048ZM459.178,51.189L460.024,53.001L459.178,51.189ZM179.13,20.957L180.179,22.66L179.13,20.957ZM177.593,22.695L179.411,23.529L177.593,22.695ZM203.884,3.36C202.944,3.939 202.65,5.171 203.23,6.112C203.81,7.052 205.042,7.345 205.982,6.765L203.884,3.36ZM198.61,11.307C199.55,10.727 199.843,9.495 199.264,8.555C198.685,7.615 197.453,7.322 196.512,7.901L198.61,11.307ZM189.14,12.442C188.199,13.022 187.907,14.254 188.486,15.194C189.065,16.135 190.297,16.427 191.238,15.848L189.14,12.442ZM183.866,20.389C184.806,19.81 185.099,18.578 184.519,17.638C183.94,16.697 182.708,16.404 181.768,16.984L183.866,20.389ZM177.367,19.771C176.521,20.482 176.412,21.743 177.123,22.589C177.834,23.434 179.096,23.543 179.941,22.832L177.367,19.771ZM179.553,23.271C180.155,22.346 179.894,21.107 178.968,20.504C178.043,19.901 176.804,20.163 176.201,21.088L179.553,23.271ZM174.199,25.295C173.738,26.299 174.179,27.486 175.183,27.947C176.187,28.408 177.374,27.967 177.835,26.963L174.199,25.295ZM174.683,33.832C175.143,32.828 174.703,31.641 173.699,31.18C172.695,30.72 171.508,31.16 171.047,32.164L174.683,33.832ZM167.895,39.033C167.434,40.037 167.875,41.224 168.879,41.685C169.883,42.146 171.07,41.705 171.53,40.701L167.895,39.033ZM168.378,47.57C168.839,46.566 168.399,45.379 167.395,44.918C166.391,44.458 165.204,44.898 164.743,45.902L168.378,47.57ZM161.591,52.771C161.13,53.775 161.571,54.962 162.574,55.423C163.578,55.884 164.766,55.443 165.226,54.439L161.591,52.771ZM162.074,61.308C162.535,60.305 162.095,59.117 161.091,58.657C160.087,58.196 158.899,58.636 158.439,59.64L162.074,61.308ZM156.68,63.392C156.044,64.295 156.261,65.543 157.164,66.179C158.067,66.815 159.315,66.598 159.951,65.695L156.68,63.392ZM158.388,67.223C159.305,66.608 159.55,65.365 158.934,64.448C158.319,63.531 157.076,63.286 156.159,63.901L158.388,67.223ZM151.758,65.838C150.744,66.276 150.277,67.453 150.715,68.467C151.153,69.481 152.33,69.948 153.344,69.511L151.758,65.838ZM145.185,73.034C146.199,72.596 146.666,71.419 146.228,70.405C145.791,69.391 144.613,68.924 143.599,69.362L145.185,73.034ZM135.44,72.885C134.426,73.323 133.959,74.5 134.397,75.514C134.835,76.528 136.012,76.995 137.026,76.557L135.44,72.885ZM128.867,80.081C129.881,79.643 130.348,78.466 129.91,77.452C129.473,76.438 128.295,75.971 127.281,76.409L128.867,80.081ZM119.122,79.932C118.108,80.37 117.641,81.547 118.079,82.561C118.517,83.575 119.694,84.042 120.708,83.604L119.122,79.932ZM112.549,87.127C113.563,86.69 114.03,85.513 113.592,84.498C113.155,83.484 111.977,83.017 110.963,83.455L112.549,87.127ZM102.804,86.979C101.79,87.417 101.323,88.594 101.761,89.608C102.199,90.622 103.376,91.089 104.39,90.651L102.804,86.979ZM96.231,94.174C97.245,93.736 97.712,92.559 97.274,91.545C96.837,90.531 95.659,90.064 94.645,90.502L96.231,94.174ZM89.68,92.738C88.753,93.339 88.489,94.577 89.09,95.504C89.691,96.431 90.93,96.695 91.856,96.094L89.68,92.738ZM91.365,96.545C92.042,95.673 91.884,94.417 91.012,93.739C90.139,93.062 88.883,93.22 88.206,94.092L91.365,96.545ZM85.752,98.486C85.229,99.459 85.595,100.672 86.568,101.194C87.541,101.717 88.754,101.351 89.276,100.378L85.752,98.486ZM85.463,107.481C85.986,106.508 85.62,105.296 84.647,104.773C83.674,104.251 82.461,104.616 81.939,105.59L85.463,107.481ZM78.126,112.693C77.603,113.666 77.969,114.879 78.942,115.401C79.915,115.924 81.128,115.558 81.65,114.585L78.126,112.693ZM77.837,121.688C78.36,120.715 77.994,119.503 77.021,118.98C76.048,118.458 74.835,118.823 74.313,119.796L77.837,121.688ZM70.5,126.9C69.978,127.873 70.343,129.086 71.316,129.608C72.29,130.13 73.502,129.765 74.024,128.792L70.5,126.9ZM70.212,135.895C70.734,134.922 70.369,133.709 69.395,133.187C68.422,132.665 67.21,133.03 66.687,134.003L70.212,135.895ZM64.62,137.807C63.958,138.692 64.139,139.945 65.024,140.607C65.908,141.268 67.162,141.088 67.823,140.203L64.62,137.807ZM66.55,141.46C67.443,140.81 67.64,139.559 66.99,138.666C66.34,137.773 65.089,137.576 64.196,138.226L66.55,141.46ZM60.187,140.337C59.207,140.847 58.826,142.054 59.336,143.034C59.846,144.014 61.054,144.395 62.034,143.885L60.187,140.337ZM54.525,147.792C55.505,147.282 55.886,146.075 55.376,145.095C54.866,144.115 53.658,143.734 52.678,144.244L54.525,147.792ZM45.17,148.151C44.19,148.66 43.809,149.868 44.319,150.848C44.828,151.828 46.036,152.209 47.016,151.699L45.17,148.151ZM39.507,155.606C40.487,155.096 40.868,153.888 40.358,152.908C39.848,151.929 38.641,151.548 37.661,152.057L39.507,155.606ZM30.152,155.964C29.172,156.474 28.791,157.682 29.301,158.661C29.811,159.641 31.018,160.022 31.998,159.513L30.152,155.964ZM24.489,163.419C25.469,162.91 25.85,161.702 25.34,160.722C24.831,159.742 23.623,159.361 22.643,159.871L24.489,163.419ZM18.126,162.297C17.233,162.947 17.037,164.198 17.687,165.091C18.337,165.984 19.588,166.18 20.481,165.53L18.126,162.297ZM20.057,165.949C20.718,165.065 20.537,163.811 19.653,163.15C18.768,162.488 17.515,162.669 16.853,163.553L20.057,165.949ZM14.385,168.01C13.863,168.983 14.228,170.196 15.201,170.718C16.175,171.241 17.387,170.875 17.909,169.902L14.385,168.01ZM13.936,177.304C14.459,176.33 14.093,175.118 13.12,174.596C12.147,174.073 10.934,174.439 10.412,175.412L13.936,177.304ZM6.439,182.814C5.917,183.787 6.282,184.999 7.255,185.522C8.229,186.044 9.441,185.679 9.963,184.705L6.439,182.814ZM5.99,192.107C6.513,191.134 6.147,189.921 5.174,189.399C4.201,188.877 2.988,189.242 2.466,190.215L5.99,192.107ZM-0.055,195.3C-0.323,196.372 0.329,197.458 1.401,197.725C2.472,197.993 3.558,197.341 3.826,196.269L-0.055,195.3ZM3.829,197.251C3.554,196.181 2.465,195.536 1.395,195.811C0.325,196.085 -0.32,197.175 -0.046,198.245L3.829,197.251ZM2.179,202.71C2.708,203.68 3.923,204.038 4.893,203.508C5.863,202.98 6.22,201.765 5.691,200.795L2.179,202.71ZM9.054,206.964C8.526,205.994 7.311,205.636 6.341,206.166C5.371,206.694 5.013,207.908 5.542,208.878L9.054,206.964ZM8.905,215.048C9.434,216.018 10.648,216.374 11.618,215.846C12.588,215.318 12.946,214.102 12.417,213.132L8.905,215.048ZM15.78,219.302C15.251,218.332 14.036,217.974 13.066,218.502C12.097,219.032 11.739,220.246 12.268,221.216L15.78,219.302ZM15.63,227.384C16.159,228.354 17.374,228.712 18.344,228.184C19.313,227.654 19.671,226.44 19.142,225.47L15.63,227.384ZM22.505,231.638C21.976,230.668 20.762,230.312 19.792,230.84C18.822,231.368 18.464,232.584 18.993,233.554L22.505,231.638ZM22.356,239.722C22.884,240.692 24.099,241.05 25.069,240.52C26.039,239.992 26.396,238.778 25.868,237.808L22.356,239.722ZM29.231,243.976C28.702,243.006 27.487,242.648 26.517,243.178C25.547,243.706 25.19,244.92 25.718,245.89L29.231,243.976ZM28.828,250.714C29.677,251.422 30.938,251.306 31.645,250.456C32.351,249.608 32.236,248.346 31.387,247.64L28.828,250.714ZM32.788,248.1C31.686,248.166 30.845,249.114 30.911,250.216C30.977,251.318 31.924,252.158 33.027,252.094L32.788,248.1ZM38.87,249.828C39.871,249.36 40.303,248.17 39.836,247.168C39.368,246.168 38.178,245.736 37.177,246.204L38.87,249.828ZM44.501,242.78C43.501,243.248 43.069,244.438 43.536,245.44C44.004,246.44 45.194,246.872 46.195,246.404L44.501,242.78ZM53.519,242.982C54.52,242.514 54.952,241.324 54.484,240.322C54.017,239.322 52.826,238.89 51.826,239.358L53.519,242.982ZM59.15,235.934C58.149,236.402 57.717,237.592 58.185,238.592C58.653,239.594 59.843,240.026 60.844,239.558L59.15,235.934ZM68.168,236.134C69.169,235.668 69.601,234.476 69.133,233.476C68.666,232.476 67.475,232.044 66.475,232.512L68.168,236.134ZM73.799,229.088C72.798,229.556 72.366,230.746 72.834,231.746C73.302,232.748 74.492,233.18 75.493,232.712L73.799,229.088ZM82.817,229.288C83.818,228.822 84.25,227.63 83.782,226.63C83.314,225.63 82.124,225.198 81.123,225.666L82.817,229.288ZM88.448,222.242C87.447,222.71 87.015,223.9 87.483,224.9C87.95,225.902 89.141,226.334 90.141,225.866L88.448,222.242ZM97.466,222.442C98.466,221.976 98.899,220.784 98.431,219.784C97.963,218.784 96.773,218.352 95.772,218.818L97.466,222.442ZM103.097,215.396C102.096,215.864 101.664,217.054 102.132,218.054C102.599,219.056 103.79,219.488 104.79,219.02L103.097,215.396ZM112.115,215.596C113.115,215.128 113.547,213.938 113.08,212.938C112.612,211.938 111.422,211.506 110.421,211.972L112.115,215.596ZM117.745,208.55C116.745,209.018 116.313,210.208 116.78,211.208C117.248,212.21 118.438,212.642 119.439,212.174L117.745,208.55ZM126.763,208.75C127.764,208.282 128.196,207.092 127.729,206.092C127.261,205.092 126.071,204.66 125.07,205.126L126.763,208.75ZM132.394,201.704C131.394,202.171 130.962,203.362 131.429,204.362C131.897,205.362 133.087,205.796 134.088,205.328L132.394,201.704ZM141.412,201.904C142.413,201.437 142.845,200.246 142.377,199.246C141.91,198.245 140.719,197.813 139.719,198.281L141.412,201.904ZM147.043,194.857C146.042,195.325 145.61,196.515 146.078,197.516C146.546,198.517 147.736,198.949 148.737,198.481L147.043,194.857ZM156.061,195.058C157.062,194.591 157.494,193.4 157.026,192.4C156.559,191.399 155.368,190.967 154.368,191.434L156.061,195.058ZM161.692,188.011C160.691,188.479 160.259,189.669 160.727,190.67C161.195,191.671 162.385,192.103 163.386,191.635L161.692,188.011ZM170.71,188.212C171.711,187.744 172.143,186.554 171.675,185.553C171.207,184.553 170.017,184.121 169.016,184.588L170.71,188.212ZM176.341,181.165C175.34,181.633 174.908,182.823 175.376,183.824C175.843,184.825 177.034,185.257 178.034,184.789L176.341,181.165ZM185.359,181.366C186.359,180.898 186.792,179.708 186.324,178.707C185.856,177.707 184.666,177.274 183.665,177.742L185.359,181.366ZM190.99,174.319C189.989,174.787 189.557,175.977 190.025,176.978C190.492,177.978 191.682,178.411 192.683,177.943L190.99,174.319ZM200.008,174.52C201.008,174.052 201.44,172.862 200.973,171.861C200.505,170.86 199.315,170.428 198.314,170.896L200.008,174.52ZM205.638,167.473C204.638,167.941 204.206,169.131 204.672,170.132C205.14,171.132 206.33,171.564 207.332,171.097L205.638,167.473ZM214.656,167.674C215.656,167.206 216.088,166.016 215.622,165.015C215.154,164.014 213.964,163.582 212.962,164.05L214.656,167.674ZM220.286,160.627C219.286,161.095 218.854,162.285 219.322,163.286C219.79,164.286 220.98,164.718 221.98,164.251L220.286,160.627ZM229.304,160.828C230.306,160.36 230.738,159.17 230.27,158.169C229.802,157.168 228.612,156.736 227.612,157.204L229.304,160.828ZM234.936,153.781C233.934,154.248 233.502,155.439 233.97,156.439C234.438,157.44 235.628,157.872 236.63,157.404L234.936,153.781ZM243.954,153.981C244.954,153.514 245.386,152.323 244.918,151.323C244.452,150.322 243.26,149.89 242.26,150.358L243.954,153.981ZM249.584,146.935C248.584,147.402 248.152,148.593 248.62,149.593C249.088,150.594 250.278,151.026 251.278,150.558L249.584,146.935ZM258.602,147.135C259.604,146.668 260.036,145.477 259.568,144.477C259.1,143.476 257.91,143.044 256.908,143.512L258.602,147.135ZM264.234,140.088C263.232,140.556 262.8,141.746 263.268,142.747C263.736,143.748 264.926,144.18 265.926,143.712L264.234,140.088ZM273.252,140.289C274.252,139.822 274.684,138.631 274.216,137.631C273.748,136.63 272.558,136.198 271.558,136.665L273.252,140.289ZM278.882,133.242C277.882,133.71 277.45,134.9 277.918,135.901C278.384,136.902 279.576,137.334 280.576,136.866L278.882,133.242ZM287.9,133.443C288.9,132.975 289.332,131.785 288.866,130.784C288.398,129.784 287.208,129.352 286.206,129.819L287.9,133.443ZM293.532,126.396C292.53,126.864 292.098,128.054 292.566,129.055C293.034,130.056 294.224,130.488 295.224,130.02L293.532,126.396ZM302.55,126.597C303.55,126.129 303.982,124.939 303.514,123.938C303.046,122.938 301.856,122.505 300.856,122.973L302.55,126.597ZM308.18,119.55C307.18,120.018 306.748,121.208 307.214,122.209C307.682,123.209 308.872,123.642 309.874,123.174L308.18,119.55ZM317.198,119.751C318.198,119.283 318.63,118.093 318.162,117.092C317.696,116.091 316.504,115.659 315.504,116.127L317.198,119.751ZM322.828,112.704C321.828,113.172 321.396,114.362 321.864,115.363C322.332,116.363 323.522,116.795 324.522,116.328L322.828,112.704ZM331.846,112.905C332.848,112.437 333.28,111.247 332.812,110.246C332.344,109.245 331.154,108.813 330.154,109.281L331.846,112.905ZM337.478,105.858C336.476,106.325 336.044,107.516 336.512,108.516C336.98,109.517 338.17,109.949 339.172,109.482L337.478,105.858ZM346.496,106.058C347.496,105.591 347.928,104.4 347.46,103.4C346.992,102.399 345.802,101.967 344.802,102.435L346.496,106.058ZM352.126,99.012C351.126,99.479 350.694,100.67 351.162,101.67C351.628,102.671 352.82,103.103 353.82,102.635L352.126,99.012ZM361.144,99.212C362.146,98.745 362.578,97.554 362.11,96.554C361.642,95.553 360.452,95.121 359.45,95.589L361.144,99.212ZM366.776,92.165C365.774,92.633 365.342,93.823 365.81,94.824C366.278,95.825 367.468,96.257 368.468,95.789L366.776,92.165ZM375.794,92.366C376.794,91.899 377.226,90.708 376.758,89.708C376.29,88.707 375.1,88.275 374.1,88.742L375.794,92.366ZM381.424,85.319C380.424,85.787 379.992,86.977 380.458,87.978C380.926,88.979 382.116,89.411 383.118,88.943L381.424,85.319ZM390.442,85.52C391.442,85.052 391.874,83.862 391.408,82.861C390.94,81.861 389.75,81.429 388.748,81.896L390.442,85.52ZM396.072,78.473C395.072,78.941 394.64,80.131 395.108,81.132C395.576,82.133 396.766,82.565 397.766,82.097L396.072,78.473ZM405.09,78.674C406.092,78.206 406.524,77.016 406.056,76.015C405.588,75.015 404.398,74.582 403.398,75.05L405.09,78.674ZM410.722,71.627C409.722,72.095 409.29,73.285 409.756,74.286C410.224,75.286 411.414,75.719 412.416,75.251L410.722,71.627ZM419.74,71.828C420.74,71.36 421.172,70.17 420.704,69.169C420.238,68.168 419.046,67.736 418.046,68.204L419.74,71.828ZM425.37,64.781C424.37,65.249 423.938,66.439 424.406,67.44C424.874,68.44 426.064,68.872 427.064,68.405L425.37,64.781ZM434.388,64.982C435.39,64.514 435.822,63.324 435.354,62.323C434.886,61.322 433.696,60.89 432.696,61.358L434.388,64.982ZM440.02,57.935C439.018,58.402 438.586,59.593 439.054,60.593C439.522,61.594 440.712,62.026 441.714,61.559L440.02,57.935ZM449.038,58.136C450.038,57.668 450.47,56.478 450.002,55.477C449.534,54.476 448.344,54.044 447.344,54.512L449.038,58.136ZM454.668,51.089C453.668,51.556 453.236,52.747 453.704,53.747C454.17,54.748 455.362,55.18 456.362,54.712L454.668,51.089ZM460.772,52.814C461.874,52.76 462.724,51.822 462.67,50.719C462.616,49.616 461.678,48.765 460.574,48.819L460.772,52.814ZM464.854,50.325C464.028,49.592 462.764,49.668 462.032,50.494C461.298,51.32 461.374,52.584 462.2,53.317L464.854,50.325ZM464.444,57.549C464.932,58.541 466.13,58.949 467.122,58.462C468.114,57.974 468.522,56.776 468.034,55.784L464.444,57.549ZM471.592,63.022C471.106,62.031 469.906,61.622 468.916,62.109C467.924,62.597 467.516,63.795 468.002,64.787L471.592,63.022ZM471.56,72.024C472.048,73.015 473.246,73.424 474.238,72.937C475.23,72.449 475.638,71.251 475.15,70.259L471.56,72.024ZM478.708,77.497C478.222,76.506 477.022,76.097 476.032,76.584C475.04,77.072 474.632,78.27 475.118,79.262L478.708,77.497ZM478.678,86.499C479.164,87.49 480.364,87.899 481.354,87.411C482.346,86.924 482.754,85.726 482.266,84.734L478.678,86.499ZM485.824,91.972C485.338,90.98 484.138,90.572 483.148,91.059C482.156,91.547 481.748,92.745 482.236,93.736L485.824,91.972ZM485.794,100.974C486.28,101.965 487.48,102.374 488.47,101.886C489.462,101.399 489.87,100.2 489.382,99.209L485.794,100.974ZM492.942,106.447C492.454,105.455 491.256,105.047 490.264,105.534C489.272,106.021 488.864,107.22 489.352,108.211L492.942,106.447ZM492.91,115.449C493.396,116.44 494.596,116.849 495.586,116.361C496.578,115.874 496.986,114.675 496.5,113.684L492.91,115.449ZM500.058,120.922C499.57,119.93 498.372,119.522 497.38,120.009C496.388,120.496 495.98,121.695 496.468,122.686L500.058,120.922ZM500.026,129.924C500.514,130.915 501.712,131.323 502.704,130.836C503.694,130.349 504.102,129.15 503.616,128.159L500.026,129.924ZM507.174,135.396C506.686,134.405 505.488,133.997 504.496,134.484C503.506,134.971 503.096,136.17 503.584,137.161L507.174,135.396ZM507.142,144.399C507.63,145.39 508.828,145.798 509.82,145.311C510.81,144.824 511.22,143.625 510.732,142.634L507.142,144.399ZM514.29,149.871C513.802,148.88 512.604,148.472 511.612,148.959C510.622,149.446 510.212,150.645 510.7,151.636L514.29,149.871ZM207.57,1.089L203.884,3.36L205.982,6.765L209.668,4.495L207.57,1.089ZM196.512,7.901L189.14,12.442L191.238,15.848L198.61,11.307L196.512,7.901ZM181.768,16.984L178.082,19.254L180.179,22.66L183.866,20.389L181.768,16.984ZM178.082,19.254C177.83,19.409 177.591,19.582 177.367,19.771L179.941,22.832C180.016,22.769 180.096,22.712 180.179,22.66L178.082,19.254ZM176.201,21.088C176.041,21.334 175.898,21.592 175.775,21.86L179.411,23.529C179.452,23.439 179.499,23.353 179.553,23.271L176.201,21.088ZM175.775,21.86L174.199,25.295L177.835,26.963L179.411,23.529L175.775,21.86ZM171.047,32.164L167.895,39.033L171.53,40.701L174.683,33.832L171.047,32.164ZM164.743,45.902L161.591,52.771L165.226,54.439L168.378,47.57L164.743,45.902ZM158.439,59.64L156.863,63.075L160.498,64.743L162.074,61.308L158.439,59.64ZM156.863,63.075C156.811,63.187 156.75,63.293 156.68,63.392L159.951,65.695C160.161,65.397 160.344,65.078 160.498,64.743L156.863,63.075ZM156.159,63.901C156.058,63.969 155.951,64.028 155.838,64.077L157.424,67.749C157.762,67.603 158.085,67.426 158.388,67.223L156.159,63.901ZM155.838,64.077L151.758,65.838L153.344,69.511L157.424,67.749L155.838,64.077ZM143.599,69.362L135.44,72.885L137.026,76.557L145.185,73.034L143.599,69.362ZM127.281,76.409L119.122,79.932L120.708,83.604L128.867,80.081L127.281,76.409ZM110.963,83.455L102.804,86.979L104.39,90.651L112.549,87.127L110.963,83.455ZM94.645,90.502L90.566,92.264L92.152,95.936L96.231,94.174L94.645,90.502ZM90.566,92.264C90.256,92.397 89.96,92.556 89.68,92.738L91.856,96.094C91.95,96.033 92.048,95.981 92.152,95.936L90.566,92.264ZM88.206,94.092C88.001,94.356 87.818,94.637 87.658,94.934L91.182,96.826C91.236,96.727 91.297,96.633 91.365,96.545L88.206,94.092ZM87.658,94.934L85.752,98.486L89.276,100.378L91.182,96.826L87.658,94.934ZM81.939,105.59L78.126,112.693L81.65,114.585L85.463,107.481L81.939,105.59ZM74.313,119.796L70.5,126.9L74.024,128.792L77.837,121.688L74.313,119.796ZM66.687,134.003L64.781,137.555L68.305,139.447L70.212,135.895L66.687,134.003ZM64.781,137.555C64.733,137.643 64.68,137.728 64.62,137.807L67.823,140.203C68.002,139.964 68.163,139.712 68.305,139.447L64.781,137.555ZM64.196,138.226C64.116,138.285 64.031,138.337 63.942,138.383L65.788,141.932C66.055,141.793 66.309,141.635 66.55,141.46L64.196,138.226ZM63.942,138.383L60.187,140.337L62.034,143.885L65.788,141.932L63.942,138.383ZM52.678,144.244L45.17,148.151L47.016,151.699L54.525,147.792L52.678,144.244ZM37.661,152.057L30.152,155.964L31.998,159.513L39.507,155.606L37.661,152.057ZM22.643,159.871L18.889,161.824L20.735,165.373L24.489,163.419L22.643,159.871ZM18.889,161.824C18.622,161.963 18.367,162.121 18.126,162.297L20.481,165.53C20.561,165.472 20.646,165.419 20.735,165.373L18.889,161.824ZM16.853,163.553C16.675,163.792 16.514,164.045 16.371,164.309L19.896,166.201C19.943,166.113 19.997,166.029 20.057,165.949L16.853,163.553ZM16.371,164.309L14.385,168.01L17.909,169.902L19.896,166.201L16.371,164.309ZM10.412,175.412L6.439,182.814L9.963,184.705L13.936,177.304L10.412,175.412ZM2.466,190.215L0.48,193.916L4.004,195.808L5.99,192.107L2.466,190.215ZM0.48,193.916C0.242,194.359 0.064,194.824 -0.055,195.3L3.826,196.269C3.865,196.111 3.925,195.956 4.004,195.808L0.48,193.916ZM-0.046,198.245C0.076,198.721 0.258,199.185 0.498,199.626L4.01,197.711C3.93,197.564 3.869,197.409 3.829,197.251L-0.046,198.245ZM0.498,199.626L2.179,202.71L5.691,200.795L4.01,197.711L0.498,199.626ZM5.542,208.878L8.905,215.048L12.417,213.132L9.054,206.964L5.542,208.878ZM12.268,221.216L15.63,227.384L19.142,225.47L15.78,219.302L12.268,221.216ZM18.993,233.554L22.356,239.722L25.868,237.808L22.505,231.638L18.993,233.554ZM25.718,245.89L27.4,248.974L30.912,247.06L29.231,243.976L25.718,245.89ZM27.4,248.974C27.771,249.656 28.26,250.242 28.828,250.714L31.387,247.64C31.2,247.484 31.038,247.292 30.912,247.06L27.4,248.974ZM33.027,252.094C33.765,252.05 34.505,251.868 35.208,251.538L33.515,247.914C33.277,248.026 33.031,248.086 32.788,248.1L33.027,252.094ZM35.208,251.538L38.87,249.828L37.177,246.204L33.515,247.914L35.208,251.538ZM46.195,246.404L53.519,242.982L51.826,239.358L44.501,242.78L46.195,246.404ZM60.844,239.558L68.168,236.134L66.475,232.512L59.15,235.934L60.844,239.558ZM75.493,232.712L82.817,229.288L81.123,225.666L73.799,229.088L75.493,232.712ZM90.141,225.866L97.466,222.442L95.772,218.818L88.448,222.242L90.141,225.866ZM104.79,219.02L112.115,215.596L110.421,211.972L103.097,215.396L104.79,219.02ZM119.439,212.174L126.763,208.75L125.07,205.126L117.745,208.55L119.439,212.174ZM134.088,205.328L141.412,201.904L139.719,198.281L132.394,201.704L134.088,205.328ZM148.737,198.481L156.061,195.058L154.368,191.434L147.043,194.857L148.737,198.481ZM163.386,191.635L170.71,188.212L169.016,184.588L161.692,188.011L163.386,191.635ZM178.034,184.789L185.359,181.366L183.665,177.742L176.341,181.165L178.034,184.789ZM192.683,177.943L200.008,174.52L198.314,170.896L190.99,174.319L192.683,177.943ZM207.332,171.097L214.656,167.674L212.962,164.05L205.638,167.473L207.332,171.097ZM221.98,164.251L229.304,160.828L227.612,157.204L220.286,160.627L221.98,164.251ZM236.63,157.404L243.954,153.981L242.26,150.358L234.936,153.781L236.63,157.404ZM251.278,150.558L258.602,147.135L256.908,143.512L249.584,146.935L251.278,150.558ZM265.926,143.712L273.252,140.289L271.558,136.665L264.234,140.088L265.926,143.712ZM280.576,136.866L287.9,133.443L286.206,129.819L278.882,133.242L280.576,136.866ZM295.224,130.02L302.55,126.597L300.856,122.973L293.532,126.396L295.224,130.02ZM309.874,123.174L317.198,119.751L315.504,116.127L308.18,119.55L309.874,123.174ZM324.522,116.328L331.846,112.905L330.154,109.281L322.828,112.704L324.522,116.328ZM339.172,109.482L346.496,106.058L344.802,102.435L337.478,105.858L339.172,109.482ZM353.82,102.635L361.144,99.212L359.45,95.589L352.126,99.012L353.82,102.635ZM368.468,95.789L375.794,92.366L374.1,88.742L366.776,92.165L368.468,95.789ZM383.118,88.943L390.442,85.52L388.748,81.896L381.424,85.319L383.118,88.943ZM397.766,82.097L405.09,78.674L403.398,75.05L396.072,78.473L397.766,82.097ZM412.416,75.251L419.74,71.828L418.046,68.204L410.722,71.627L412.416,75.251ZM427.064,68.405L434.388,64.982L432.696,61.358L425.37,64.781L427.064,68.405ZM441.714,61.559L449.038,58.136L447.344,54.512L440.02,57.935L441.714,61.559ZM456.362,54.712L460.024,53.001L458.33,49.377L454.668,51.089L456.362,54.712ZM460.024,53.001C460.27,52.886 460.522,52.827 460.772,52.814L460.574,48.819C459.816,48.856 459.054,49.039 458.33,49.377L460.024,53.001ZM462.2,53.317C462.386,53.483 462.546,53.687 462.666,53.931L466.256,52.166C465.902,51.449 465.422,50.829 464.854,50.325L462.2,53.317ZM462.666,53.931L464.444,57.549L468.034,55.784L466.256,52.166L462.666,53.931ZM468.002,64.787L471.56,72.024L475.15,70.259L471.592,63.022L468.002,64.787ZM475.118,79.262L478.678,86.499L482.266,84.734L478.708,77.497L475.118,79.262ZM482.236,93.736L485.794,100.974L489.382,99.209L485.824,91.972L482.236,93.736ZM489.352,108.211L492.91,115.449L496.5,113.684L492.942,106.447L489.352,108.211ZM496.468,122.686L500.026,129.924L503.616,128.159L500.058,120.922L496.468,122.686ZM503.584,137.161L507.142,144.399L510.732,142.634L507.174,135.396L503.584,137.161ZM510.7,151.636L512.48,155.255L516.068,153.49L514.29,149.871L510.7,151.636Z" transform="rotate(123.549 257.746 127.055)" fill="#FF2A7F"/>
</svg>
