<svg width="48" height="48" viewBox="0 0 48 48" fill="none" xmlns="http://www.w3.org/2000/svg" xmlns:xlink="http://www.w3.org/1999/xlink">
<path d="M23.92,43.934L5.98,43.934C4.88,43.934 3.987,43.041 3.987,41.941L3.987,6.06C3.987,4.96 4.88,4.067 5.98,4.067L23.92,4.067C25.023,4.067 25.914,3.176 25.914,2.074C25.914,0.971 25.023,0.08 23.92,0.08L5.98,0.08C2.683,0.08 0,2.763 0,6.06L0,41.94C0,45.237 2.683,47.921 5.98,47.921L23.92,47.921C25.023,47.921 25.914,47.03 25.914,45.927C25.914,44.825 25.023,43.934 23.92,43.934Z" fill="#FFFFFF"/>
<path d="M47.406,22.581L35.286,10.621C34.505,9.847 33.241,9.857 32.468,10.641C31.694,11.424 31.702,12.686 32.488,13.459L41.149,22.007L17.94,22.007C16.838,22.007 15.947,22.898 15.947,24C15.947,25.102 16.838,25.993 17.94,25.993L41.149,25.993L32.488,34.541C31.702,35.314 31.696,36.576 32.468,37.359C32.858,37.754 33.373,37.953 33.887,37.953C34.393,37.953 34.9,37.762 35.286,37.379L47.406,25.419C47.785,25.045 48,24.534 48,24C48,23.466 47.787,22.958 47.406,22.581Z" fill="#FFFFFF"/>
</svg>
