<svg width="52" height="52" viewBox="0 0 52 52" fill="none" xmlns="http://www.w3.org/2000/svg" xmlns:xlink="http://www.w3.org/1999/xlink">
<path d="M44.383,29.047C43.135,29.047 41.973,29.377 40.932,29.912L38.873,27.465C39.786,26.925 40.774,26.51 41.818,26.277C42.669,26.085 43.512,26.015 44.391,26.002C45.527,26.01 46.644,25.562 47.48,24.734C48.352,23.871 48.852,22.671 48.852,21.251C48.852,13.449 42.279,7.719 35.339,7.719L33.617,7.719C32.775,7.719 32.094,8.4 32.094,9.242C32.094,10.084 32.775,10.766 33.617,10.766L35.339,10.766C35.792,10.766 36.225,10.844 36.664,10.9L36.664,13.844C35.779,13.924 34.946,14.198 34.158,14.565C34.148,14.553 34.135,14.546 34.126,14.534C32.875,15.119 31.797,16.033 31.017,17.205L27.549,22.406C27.311,22.761 26.936,23.001 26.512,23.066C23.428,23.54 20.754,25.506 19.35,28.378C20.651,30.322 21.43,32.639 21.43,35.141L18.281,35.141C18.281,30.1 14.181,26 9.141,26C4.1,26 0,30.1 0,35.141C0,40.181 4.1,44.281 9.141,44.281C13.108,44.281 16.458,41.726 17.72,38.188L32.094,38.188C32.936,38.188 33.617,37.506 33.617,36.664C33.617,35.817 33.718,34.953 33.916,34.096C34.331,32.318 35.256,30.699 36.498,29.376L38.554,31.819C37.454,33.14 36.766,34.815 36.766,36.664C36.766,40.864 40.183,44.281 44.383,44.281C48.583,44.281 52,40.864 52,36.664C52,32.464 48.583,29.047 44.383,29.047L44.383,29.047ZM9.141,41.234C5.78,41.234 3.047,38.501 3.047,35.141C3.047,31.78 5.78,29.047 9.141,29.047C12.501,29.047 15.234,31.78 15.234,35.141L10.664,35.141C9.823,35.141 9.141,34.458 9.141,33.617C9.141,32.775 8.459,32.094 7.617,32.094C6.775,32.094 6.094,32.775 6.094,33.617C6.094,36.137 8.144,38.188 10.664,38.188L14.387,38.188C13.33,40 11.387,41.234 9.141,41.234ZM44.383,41.234C41.863,41.234 39.812,39.184 39.812,36.664C39.812,35.781 40.076,34.964 40.511,34.264L43.193,37.616C43.722,38.277 44.682,38.376 45.335,37.854C45.991,37.327 46.098,36.37 45.573,35.712L42.894,32.364C43.363,32.201 43.859,32.094 44.383,32.094C46.903,32.094 48.953,34.144 48.953,36.664C48.953,39.184 46.903,41.234 44.383,41.234Z" fill="#FFFFFF"/>
<path d="M25.872,19.43L28.482,15.514C29.316,14.262 30.41,13.245 31.653,12.455C29.981,11.4 28.054,10.766 26,10.766C22.401,10.766 19.076,12.6 17.119,15.543L19.555,17.005C21.513,18.18 23.656,18.966 25.872,19.43L25.872,19.43Z" fill="#FFFFFF"/>
<path d="M17.987,19.617L8.211,13.813L1.523,13.813C0.682,13.813 0,14.494 0,15.336C0,19.536 3.417,22.953 7.617,22.953C10.664,22.953 13.826,23.019 17.212,25.964C17.226,25.939 17.226,25.912 17.24,25.889C18.422,23.988 20.091,22.515 22.004,21.479C20.619,20.973 19.263,20.382 17.987,19.617Z" fill="#FFFFFF"/>
</svg>
