<svg width="84" height="84" viewBox="0 0 84 84" fill="none" xmlns="http://www.w3.org/2000/svg" xmlns:xlink="http://www.w3.org/1999/xlink">
<path d="M12.094,13.528L12.094,34.884C12.094,35.737 12.786,36.428 13.639,36.428L34.995,36.428C35.848,36.428 36.54,35.737 36.54,34.884L36.54,30.835C36.54,29.981 35.848,29.29 34.995,29.29C34.143,29.29 33.451,29.981 33.451,30.835L33.451,33.34L15.183,33.34L15.183,15.072L33.451,15.072L33.451,18.789C33.451,19.643 34.143,20.334 34.995,20.334C35.848,20.334 36.54,19.643 36.54,18.789L36.54,13.528C36.54,12.675 35.848,11.983 34.995,11.983L13.639,11.983C12.786,11.983 12.094,12.675 12.094,13.528L12.094,13.528Z" fill="#343B71"/>
<path d="M21.114,19.458C20.26,19.458 19.57,20.15 19.57,21.002L19.57,27.409C19.57,28.262 20.26,28.954 21.114,28.954L27.521,28.954C28.373,28.954 29.065,28.262 29.065,27.409L29.065,21.002C29.065,20.15 28.373,19.458 27.521,19.458L21.114,19.458ZM25.977,25.866L22.658,25.866L22.658,22.547L25.977,22.547L25.977,25.866Z" fill="#343B71"/>
<path d="M34.995,47.457L13.639,47.457C12.786,47.457 12.094,48.148 12.094,49L12.094,70.358C12.094,71.21 12.786,71.902 13.639,71.902L34.995,71.902C35.848,71.902 36.54,71.21 36.54,70.358L36.54,49C36.54,48.148 35.848,47.457 34.995,47.457L34.995,47.457ZM33.451,68.813L15.183,68.813L15.183,50.545L33.451,50.545L33.451,68.813Z" fill="#343B71"/>
<path d="M49.219,36.428L70.576,36.428C71.428,36.428 72.12,35.737 72.12,34.884L72.12,13.528C72.12,12.675 71.428,11.983 70.576,11.983L49.219,11.983C48.366,11.983 47.674,12.675 47.674,13.528L47.674,34.884C47.674,35.737 48.366,36.428 49.219,36.428L49.219,36.428ZM50.763,15.072L69.031,15.072L69.031,33.34L50.763,33.34L50.763,15.072Z" fill="#343B71"/>
<path d="M72.12,70.358L72.12,49C72.12,48.148 71.428,47.457 70.576,47.457L49.219,47.457C48.366,47.457 47.674,48.148 47.674,49L47.674,70.358C47.674,71.21 48.366,71.902 49.219,71.902L70.576,71.902C71.428,71.902 72.12,71.21 72.12,70.358ZM69.031,68.813L50.763,68.813L50.763,50.545L69.031,50.545L69.031,68.813Z" fill="#343B71"/>
<path d="M70.576,43.58C71.428,43.58 72.12,42.889 72.12,42.036C72.12,41.183 71.428,40.492 70.576,40.492L43.502,40.492L43.502,13.357C43.502,12.504 42.81,11.813 41.958,11.813C41.104,11.813 40.413,12.504 40.413,13.357L40.413,40.492L19.917,40.492C19.065,40.492 18.373,41.183 18.373,42.036C18.373,42.889 19.065,43.58 19.917,43.58L40.413,43.58L40.413,70.358C40.413,71.211 41.104,71.902 41.958,71.902C42.81,71.902 43.502,71.211 43.502,70.358L43.502,43.58L70.576,43.58Z" fill="#343B71"/>
<path d="M21.114,64.542L27.521,64.542C28.373,64.542 29.065,63.85 29.065,62.997L29.065,56.59C29.065,55.737 28.373,55.046 27.521,55.046L21.114,55.046C20.26,55.046 19.57,55.737 19.57,56.59L19.57,62.997C19.57,63.85 20.26,64.542 21.114,64.542L21.114,64.542ZM22.658,58.135L25.977,58.135L25.977,61.453L22.658,61.453L22.658,58.135Z" fill="#343B71"/>
<path d="M63.1,19.458L56.693,19.458C55.841,19.458 55.149,20.15 55.149,21.002L55.149,27.409C55.149,28.262 55.841,28.954 56.693,28.954L63.1,28.954C63.954,28.954 64.645,28.262 64.645,27.409L64.645,21.002C64.645,20.15 63.954,19.458 63.1,19.458ZM61.556,25.866L58.238,25.866L58.238,22.547L61.556,22.547L61.556,25.866Z" fill="#343B71"/>
<path d="M56.693,64.542L63.1,64.542C63.954,64.542 64.645,63.85 64.645,62.997L64.645,56.59C64.645,55.737 63.954,55.046 63.1,55.046L56.693,55.046C55.841,55.046 55.149,55.737 55.149,56.59L55.149,62.997C55.149,63.85 55.841,64.542 56.693,64.542L56.693,64.542ZM58.238,58.135L61.556,58.135L61.556,61.453L58.238,61.453L58.238,58.135Z" fill="#343B71"/>
<path d="M13.326,40.498L13.243,40.518C12.413,40.714 11.899,41.545 12.094,42.375C12.262,43.086 12.896,43.566 13.596,43.566C13.713,43.566 13.832,43.552 13.951,43.524L14.034,43.504C14.865,43.309 15.379,42.477 15.183,41.647C14.988,40.818 14.156,40.303 13.326,40.498Z" fill="#343B71"/>
<path d="M34.684,23.271L34.601,23.291C33.771,23.485 33.256,24.316 33.451,25.147C33.617,25.859 34.252,26.339 34.953,26.339C35.069,26.339 35.188,26.326 35.307,26.297L35.389,26.278C36.22,26.083 36.735,25.252 36.54,24.422C36.345,23.592 35.514,23.076 34.684,23.271Z" fill="#343B71"/>
<path d="M4.128,15.314C4.981,15.314 5.672,14.623 5.672,13.771L5.672,5.754L13.397,5.754C14.25,5.754 14.942,5.063 14.942,4.21C14.942,3.358 14.25,2.666 13.397,2.666L4.128,2.666C3.276,2.666 2.584,3.358 2.584,4.21L2.584,13.771C2.584,14.623 3.276,15.314 4.128,15.314Z" fill="#343B71"/>
<path d="M79.79,2.666L70.521,2.666C69.668,2.666 68.976,3.358 68.976,4.21C68.976,5.063 69.668,5.754 70.521,5.754L78.246,5.754L78.246,13.771C78.246,14.623 78.937,15.314 79.79,15.314C80.642,15.314 81.334,14.623 81.334,13.771L81.334,4.21C81.334,3.358 80.642,2.666 79.79,2.666L79.79,2.666Z" fill="#343B71"/>
<path d="M13.397,78.261L5.672,78.261L5.672,70.246C5.672,69.393 4.981,68.702 4.128,68.702C3.276,68.702 2.584,69.393 2.584,70.246L2.584,79.806C2.584,80.658 3.276,81.35 4.128,81.35L13.397,81.35C14.25,81.35 14.942,80.658 14.942,79.806C14.942,78.953 14.25,78.261 13.397,78.261L13.397,78.261Z" fill="#343B71"/>
<path d="M79.79,68.702C78.937,68.702 78.246,69.393 78.246,70.246L78.246,78.261L70.521,78.261C69.668,78.261 68.976,78.953 68.976,79.806C68.976,80.658 69.668,81.35 70.521,81.35L79.79,81.35C80.642,81.35 81.334,80.658 81.334,79.806L81.334,70.246C81.334,69.393 80.642,68.702 79.79,68.702L79.79,68.702Z" fill="#343B71"/>
</svg>
