<svg width="46" height="40" viewBox="0 0 46 40" fill="none" xmlns="http://www.w3.org/2000/svg" xmlns:xlink="http://www.w3.org/1999/xlink">
<path d="M-0.11,21.11L20,1C21.12,-0.067 22.88,-0.067 24,1L44.11,21.11C44.598,21.593 44.744,22.324 44.481,22.958C44.218,23.592 43.597,24.004 42.91,24L32,24L32,36.45C32,38.411 30.411,40 28.45,40L15.55,40C13.589,40 12,38.411 12,36.45L12,24L1.09,24C0.403,24.004 -0.218,23.592 -0.481,22.958C-0.744,22.324 -0.598,21.593 -0.11,21.11L-0.11,21.11Z" clip-rule="evenodd" fill-rule="evenodd" fill="#000000"/>
</svg>
