<svg width="574" height="476" viewBox="0 0 574 476" fill="none" xmlns="http://www.w3.org/2000/svg" xmlns:xlink="http://www.w3.org/1999/xlink">
<circle cx="284" cy="194" r="182" fill="#F2F2F2"/>
<path d="M432,424C432,435.046 366.186,444 285,444C203.814,444 138,435.046 138,424C138,412.954 203.814,404 285,404C366.186,404 432,412.954 432,424Z" fill="#F2F2F2"/>
<path d="M369.216,164.302L366.783,164.302C366.063,164.302 365.48,164.883 365.48,165.6L365.48,204.399C365.48,205.116 366.063,205.698 366.783,205.698L369.216,205.698C369.935,205.698 370.518,205.116 370.518,204.399L370.518,165.6C370.518,164.883 369.935,164.302 369.216,164.302Z" fill="#3A3768"/>
<path d="M199.599,131.869L199.377,131.869C198.658,131.869 198.075,132.45 198.075,133.167L198.075,144.199C198.075,144.916 198.658,145.497 199.377,145.497L199.599,145.497C200.318,145.497 200.901,144.916 200.901,144.199L200.901,133.167C200.901,132.45 200.318,131.869 199.599,131.869Z" fill="#3A3768"/>
<path d="M199.854,156.824L199.274,156.824C198.555,156.824 197.972,157.405 197.972,158.122L197.972,179.245C197.972,179.962 198.555,180.544 199.274,180.544L199.854,180.544C200.573,180.544 201.156,179.962 201.156,179.245L201.156,158.122C201.156,157.405 200.573,156.824 199.854,156.824Z" fill="#3A3768"/>
<path d="M199.752,188.843L199.326,188.843C198.607,188.843 198.024,189.424 198.024,190.141L198.024,211.469C198.024,212.186 198.607,212.767 199.326,212.767L199.752,212.767C200.471,212.767 201.054,212.186 201.054,211.469L201.054,190.141C201.054,189.424 200.471,188.843 199.752,188.843Z" fill="#3A3768"/>
<path d="M346.03,86.834L221.841,86.834C209.598,86.834 199.672,96.73 199.672,108.937L199.672,406.23C199.672,418.438 209.598,428.334 221.841,428.334L346.03,428.334C358.273,428.334 368.198,418.438 368.198,406.23L368.198,108.937C368.198,96.73 358.273,86.834 346.03,86.834Z" fill="#3A3768"/>
<path d="M344.426,95.706L325.095,95.706L325.095,98.024C325.095,99.468 324.809,100.897 324.255,102.23C323.701,103.563 322.889,104.775 321.865,105.795C320.841,106.815 319.626,107.625 318.288,108.176C316.951,108.728 315.517,109.012 314.07,109.011L252.59,109.011C251.142,109.012 249.709,108.728 248.371,108.176C247.034,107.625 245.818,106.815 244.794,105.795C243.771,104.775 242.958,103.563 242.404,102.23C241.85,100.897 241.565,99.468 241.565,98.024L241.565,95.706L223.467,95.706C219.918,95.706 216.513,97.112 214.003,99.614C211.493,102.117 210.083,105.511 210.083,109.051L210.083,406.094C210.083,409.634 211.493,413.028 214.003,415.532C216.513,418.034 219.918,419.44 223.467,419.44L344.426,419.44C347.976,419.44 351.38,418.034 353.89,415.532C356.4,413.028 357.81,409.634 357.81,406.094L357.81,109.073C357.813,107.319 357.469,105.581 356.798,103.96C356.127,102.338 355.141,100.864 353.898,99.622C352.655,98.381 351.179,97.396 349.553,96.724C347.928,96.052 346.186,95.706 344.426,95.706L344.426,95.706Z" fill="#FFAA2A"/>
<path d="M289.013,97.032L269.88,97.032C268.665,97.032 267.68,98.015 267.68,99.226L267.68,99.6C267.68,100.812 268.665,101.794 269.88,101.794L289.013,101.794C290.228,101.794 291.213,100.812 291.213,99.6L291.213,99.226C291.213,98.015 290.228,97.032 289.013,97.032Z" fill="#E6E8EC"/>
<path d="M297.485,102.117C298.982,102.117 300.197,100.907 300.197,99.413C300.197,97.92 298.982,96.709 297.485,96.709C295.987,96.709 294.772,97.92 294.772,99.413C294.772,100.907 295.987,102.117 297.485,102.117Z" fill="#E6E8EC"/>
<path d="M426.545,71.856C426.545,71.856 378.671,68.976 384.312,102.424C384.312,102.424 383.174,108.336 388.564,111.018C388.564,111.018 388.65,108.54 393.477,109.385C395.196,109.669 396.941,109.753 398.679,109.635C401.024,109.481 403.255,108.572 405.036,107.044L405.036,107.044C405.036,107.044 418.494,101.499 423.725,79.571C423.725,79.571 427.597,74.787 427.444,73.557L419.364,76.998C419.364,76.998 422.127,82.808 419.933,87.639C419.933,87.639 419.671,77.207 418.119,77.434C417.806,77.48 413.923,79.447 413.923,79.447C413.923,79.447 418.671,89.566 415.089,96.924C415.089,96.924 416.447,84.453 412.439,80.178L406.753,83.489C406.753,83.489 412.302,93.943 408.539,102.475C408.539,102.475 409.505,89.39 405.554,84.294L400.402,88.302C400.402,88.302 405.616,98.603 402.438,105.678C402.438,105.678 402.023,90.45 399.288,89.3C399.288,89.3 394.779,93.268 394.091,94.889C394.091,94.889 397.662,102.372 395.444,106.318C395.444,106.318 394.085,96.171 392.971,96.114C392.971,96.114 388.479,102.837 388.013,107.452C388.013,107.452 388.206,100.598 391.885,95.479C391.885,95.479 387.541,96.222 385.005,99.028C385.005,99.028 385.705,94.277 392.994,93.858C392.994,93.858 396.706,88.755 397.696,88.449C397.696,88.449 390.452,87.843 386.057,89.787C386.057,89.787 389.923,85.303 399.026,87.344L404.115,83.2C404.115,83.2 394.574,81.901 390.526,83.336C390.526,83.336 395.183,79.367 405.485,82.259L411.023,78.959C411.023,78.959 402.887,77.213 398.043,77.825C398.043,77.825 403.16,75.076 412.649,78.058L416.629,76.283C416.629,76.283 410.671,75.116 408.925,74.928C407.18,74.741 407.089,74.265 407.089,74.265C410.864,73.638 414.739,74.067 418.284,75.507C418.284,75.507 426.687,72.383 426.545,71.856Z" fill="#FFAA2A"/>
<path d="M377.437,56.98C377.437,56.98 355.832,55.682 358.356,70.796C358.356,70.796 357.85,73.466 360.278,74.679C360.278,74.679 360.318,73.545 362.501,73.936C363.276,74.066 364.065,74.105 364.849,74.05C365.91,73.98 366.918,73.566 367.72,72.871L367.72,72.871C367.72,72.871 373.804,70.365 376.17,60.455C376.17,60.455 377.915,58.295 377.847,57.74L374.197,59.293C374.197,59.293 375.442,61.918 374.464,64.1C374.464,64.1 374.344,59.389 373.645,59.497C373.503,59.497 371.746,60.41 371.746,60.41C371.746,60.41 373.895,64.985 372.275,68.307C372.275,68.307 372.889,62.672 371.075,60.739L368.505,62.258C368.505,62.258 371.013,66.98 369.313,70.835C369.313,70.835 369.75,64.922 367.965,62.621L365.64,64.435C365.64,64.435 367.993,69.089 366.561,72.287C366.561,72.287 366.367,65.404 365.133,64.883C365.133,64.883 363.098,66.674 362.785,67.411C362.785,67.411 364.4,70.813 363.399,72.576C363.399,72.576 362.785,67.989 362.262,67.967C362.262,67.967 360.232,71.005 360.022,73.069C360.124,71.145 360.727,69.281 361.773,67.661C360.602,67.882 359.521,68.439 358.663,69.265C358.663,69.265 358.981,67.116 362.274,66.929C362.274,66.929 363.979,64.622 364.4,64.48C364.4,64.48 361.125,64.208 359.141,65.087C359.141,65.087 360.886,63.063 364.997,63.981L367.271,62.111C367.271,62.111 362.956,61.544 361.131,62.173C361.131,62.173 363.234,60.382 367.891,61.685L370.393,60.194C370.393,60.194 366.714,59.406 364.525,59.69C364.525,59.69 366.839,58.448 371.126,59.792L372.917,58.993C372.917,58.993 370.222,58.465 369.432,58.38C368.642,58.295 368.602,58.08 368.602,58.08C370.309,57.797 372.061,57.993 373.662,58.647C373.662,58.647 377.506,57.218 377.437,56.98Z" fill="#FFAA2A"/>
<path d="M158.395,258.904C158.395,258.904 110.521,256.024 116.161,289.471C116.161,289.471 115.024,295.384 120.414,298.066C120.414,298.066 120.499,295.588 125.327,296.433C127.045,296.717 128.791,296.801 130.529,296.682C132.874,296.529 135.105,295.619 136.886,294.092L136.886,294.092C136.886,294.092 150.344,288.547 155.575,266.619C155.575,266.619 159.447,261.835 159.293,260.604L151.214,264.045C151.214,264.045 153.977,269.856 151.782,274.686C151.782,274.686 151.521,264.255 149.969,264.482C149.656,264.527 145.773,266.495 145.773,266.495C145.773,266.495 150.52,276.614 146.938,283.972C146.938,283.972 148.297,271.5 144.289,267.226L138.603,270.537C138.603,270.537 144.152,280.99 140.388,289.522C140.388,289.522 141.355,276.438 137.403,271.342L132.252,275.35C132.252,275.35 137.466,285.65 134.287,292.725C134.287,292.725 133.872,277.498 131.137,276.347C131.137,276.347 126.629,280.316 125.941,281.937C125.941,281.937 129.511,289.42 127.294,293.366C127.294,293.366 125.935,283.218 124.821,283.162C124.821,283.162 120.329,289.885 119.863,294.5C119.863,294.5 120.056,287.646 123.735,282.527C123.735,282.527 119.391,283.269 116.855,286.076C116.855,286.076 117.554,281.325 124.843,280.905C124.843,280.905 128.556,275.803 129.545,275.497C129.545,275.497 122.302,274.89 117.907,276.835C117.907,276.835 121.773,272.351 130.876,274.392L135.965,270.247C135.965,270.247 126.424,268.949 122.376,270.384C122.376,270.384 127.032,266.415 137.335,269.306L142.873,266.007C142.873,266.007 134.736,264.261 129.892,264.873C129.892,264.873 135.009,262.124 144.499,265.106L148.479,263.331C148.479,263.331 142.52,262.163 140.775,261.976C139.029,261.789 138.938,261.313 138.938,261.313C142.713,260.685 146.589,261.115 150.134,262.555C150.134,262.555 158.537,259.431 158.395,258.904Z" fill="#FFAA2A"/>
<path d="M109.287,244.028C109.287,244.028 87.681,242.73 90.205,257.843C90.205,257.843 89.699,260.514 92.127,261.727C92.127,261.727 92.167,260.593 94.35,260.984C95.126,261.114 95.914,261.152 96.698,261.098C97.759,261.028 98.767,260.613 99.57,259.918L99.57,259.918C99.57,259.918 105.653,257.413 108.019,247.503C108.019,247.503 109.764,245.343 109.696,244.788L106.046,246.341C106.046,246.341 107.291,248.966 106.313,251.148C106.313,251.148 106.194,246.437 105.494,246.545C105.352,246.545 103.595,247.458 103.595,247.458C103.595,247.458 105.744,252.033 104.124,255.355C104.124,255.355 104.738,249.72 102.924,247.787L100.354,249.306C100.354,249.306 102.862,254.028 101.162,257.883C101.162,257.883 101.599,251.97 99.814,249.669L97.489,251.483C97.489,251.483 99.843,256.137 98.41,259.334C98.41,259.334 98.216,252.452 96.983,251.931C96.983,251.931 94.947,253.722 94.634,254.459C94.634,254.459 96.249,257.86 95.248,259.624C95.248,259.624 94.634,255.037 94.111,255.015C94.111,255.015 92.081,258.053 91.871,260.117C91.973,258.193 92.576,256.328 93.622,254.708C92.451,254.93 91.37,255.487 90.512,256.313C90.512,256.313 90.831,254.164 94.123,253.977C94.123,253.977 95.828,251.67 96.249,251.528C96.249,251.528 92.974,251.256 90.99,252.135C90.99,252.135 92.735,250.111 96.846,251.029L99.12,249.158C99.12,249.158 94.805,248.592 92.98,249.221C92.98,249.221 95.084,247.429 99.74,248.733L102.242,247.242C102.242,247.242 98.563,246.454 96.374,246.738C96.374,246.738 98.688,245.496 102.975,246.84L104.766,246.04C104.766,246.04 102.071,245.513 101.281,245.428C100.491,245.343 100.451,245.128 100.451,245.128C102.158,244.845 103.91,245.041 105.511,245.695C105.511,245.695 109.355,244.266 109.287,244.028Z" fill="#FFAA2A"/>
<g opacity="0.1">
<path d="M491.346,440.993C499.802,440.993 506.658,439.838 506.658,438.414C506.658,436.989 499.802,435.834 491.346,435.834C482.889,435.834 476.034,436.989 476.034,438.414C476.034,439.838 482.889,440.993 491.346,440.993Z" fill="#FF9D2C"/>
</g>
<g opacity="0.1">
<path d="M51.791,462.162C60.248,462.162 67.103,461.007 67.103,459.582C67.103,458.158 60.248,457.003 51.791,457.003C43.335,457.003 36.479,458.158 36.479,459.582C36.479,461.007 43.335,462.162 51.791,462.162Z" fill="#FF9D2C"/>
</g>
<g opacity="0.1">
<path d="M111.02,476C119.476,476 126.331,474.845 126.331,473.421C126.331,471.996 119.476,470.841 111.02,470.841C102.563,470.841 95.708,471.996 95.708,473.421C95.708,474.845 102.563,476 111.02,476Z" fill="#FF9D2C"/>
</g>
<path d="M438.838,461.836C451.465,461.836 461.7,460.11 461.7,457.981C461.7,455.852 451.465,454.126 438.838,454.126C426.211,454.126 415.976,455.852 415.976,457.981C415.976,460.11 426.211,461.836 438.838,461.836Z" fill="#FFAA2A"/>
<path d="M448.293,451.677C449.335,450.828 450.094,449.683 450.471,448.395C450.755,447.097 450.198,445.56 448.947,445.056C447.548,444.523 446.053,445.492 444.922,446.467C443.79,447.443 442.488,448.559 441.004,448.35C441.768,447.661 442.34,446.786 442.663,445.812C442.987,444.837 443.052,443.795 442.852,442.788C442.785,442.371 442.607,441.979 442.335,441.654C441.561,440.827 440.151,441.178 439.225,441.836C436.268,443.905 435.444,447.913 435.426,451.513C435.125,450.215 435.381,448.86 435.37,447.545C435.358,446.229 435,444.71 433.869,444.013C433.171,443.639 432.386,443.455 431.594,443.48C430.264,443.429 428.785,443.565 427.876,444.534C426.739,445.736 427.046,447.754 428.024,449.07C429.002,450.385 430.497,451.229 431.873,452.142C432.974,452.797 433.912,453.69 434.619,454.756C434.704,454.905 434.773,455.062 434.824,455.226L443.131,455.226C445.004,454.28 446.74,453.086 448.293,451.677L448.293,451.677Z" fill="#FFAA2A"/>
<path d="M248.862,462.666C261.489,462.666 271.725,460.94 271.725,458.811C271.725,456.682 261.489,454.956 248.862,454.956C236.236,454.956 226,456.682 226,458.811C226,460.94 236.236,462.666 248.862,462.666Z" fill="#FFAA2A"/>
<path d="M258.318,452.507C259.36,451.657 260.119,450.513 260.495,449.224C260.78,447.926 260.222,446.39 258.972,445.885C257.573,445.352 256.078,446.322 254.946,447.297C253.815,448.272 252.513,449.389 251.029,449.179C251.792,448.49 252.364,447.616 252.688,446.641C253.012,445.666 253.077,444.625 252.876,443.617C252.81,443.2 252.631,442.808 252.359,442.484C251.586,441.656 250.176,442.007 249.249,442.665C246.292,444.734 245.468,448.742 245.451,452.342C245.15,451.044 245.405,449.689 245.394,448.374C245.383,447.059 245.024,445.539 243.893,444.842C243.195,444.468 242.411,444.285 241.619,444.309C240.288,444.258 238.81,444.394 237.9,445.364C236.763,446.565 237.07,448.584 238.048,449.899C239.026,451.214 240.521,452.059 241.897,452.971C242.998,453.626 243.937,454.519 244.644,455.585C244.729,455.734 244.797,455.892 244.848,456.055L253.155,456.055C255.028,455.109 256.765,453.916 258.318,452.507L258.318,452.507Z" fill="#FFAA2A"/>
<path d="M111.811,410.029C111.811,410.029 114.938,414.105 110.372,420.233C105.807,426.361 102.043,431.571 103.549,435.409C103.549,435.409 110.44,423.986 116.058,423.827C121.676,423.669 117.98,416.9 111.811,410.029Z" fill="#FFAA2A"/>
<g opacity="0.1">
<path d="M111.81,410.029C112.083,410.423 112.298,410.855 112.447,411.31C117.917,417.716 120.834,423.697 115.574,423.844C110.679,423.986 104.806,432.716 103.396,434.922C103.441,435.092 103.498,435.256 103.56,435.426C103.56,435.426 110.452,424.003 116.069,423.844C121.687,423.686 117.98,416.9 111.81,410.029Z" fill="#000000"/>
</g>
<path d="M117.616,415.222C117.616,416.656 117.457,417.818 117.258,417.818C117.059,417.818 116.899,416.656 116.899,415.222C116.899,413.787 117.098,414.462 117.297,414.462C117.496,414.462 117.616,413.787 117.616,415.222Z" fill="#FFD037"/>
<path d="M119.611,416.934C118.349,417.62 117.246,418.033 117.155,417.858C117.064,417.682 118.002,416.985 119.264,416.299C120.527,415.613 120.032,416.112 120.123,416.299C120.214,416.486 120.873,416.248 119.611,416.934Z" fill="#FFD037"/>
<path d="M95.316,410.029C95.316,410.029 92.189,414.105 96.754,420.233C101.32,426.361 105.084,431.571 103.577,435.409C103.577,435.409 96.692,423.986 91.069,423.827C85.445,423.669 89.135,416.9 95.316,410.029Z" fill="#FFAA2A"/>
<g opacity="0.1">
<path d="M95.316,410.029C95.043,410.424 94.826,410.855 94.674,411.31C89.204,417.716 86.293,423.697 91.546,423.844C96.447,423.986 102.321,432.716 103.731,434.922C103.684,435.093 103.627,435.262 103.56,435.426C103.56,435.426 96.675,424.003 91.052,423.844C85.428,423.686 89.136,416.9 95.316,410.029Z" fill="#000000"/>
</g>
<path d="M89.505,415.222C89.505,416.656 89.67,417.818 89.869,417.818C90.068,417.818 90.227,416.656 90.227,415.222C90.227,413.787 90.028,414.462 89.829,414.462C89.63,414.462 89.505,413.787 89.505,415.222Z" fill="#FFD037"/>
<path d="M87.515,416.934C88.777,417.62 89.875,418.033 89.971,417.858C90.068,417.682 89.118,416.985 87.856,416.299C86.594,415.613 87.094,416.112 86.998,416.299C86.901,416.486 86.253,416.248 87.515,416.934Z" fill="#FFD037"/>
<path d="M90.5,434.893C90.5,434.893 99.233,434.621 101.872,432.756C104.51,430.891 115.307,428.652 115.955,431.651C116.603,434.65 129.084,446.555 119.224,446.634C109.365,446.713 96.311,445.103 93.684,443.51C91.057,441.917 90.5,434.893 90.5,434.893Z" fill="#A8A8A8"/>
<g opacity="0.2">
<path d="M119.395,445.591C109.536,445.67 96.481,444.06 93.855,442.467C91.859,441.248 91.057,436.889 90.79,434.882L90.5,434.882C90.5,434.882 91.069,441.9 93.678,443.499C96.288,445.098 109.36,446.702 119.219,446.623C122.062,446.623 123.045,445.591 122.994,444.094C122.596,445.013 121.51,445.574 119.395,445.591Z" fill="#000000"/>
</g>
<path d="M284.964,293.563C302.571,293.563 316.845,279.331 316.845,261.776C316.845,244.221 302.571,229.99 284.964,229.99C267.358,229.99 253.084,244.221 253.084,261.776C253.084,279.331 267.358,293.563 284.964,293.563Z" fill="#FFFFFF"/>
<path d="M326.852,257.587C326.852,265.989 324.353,274.203 319.671,281.19C314.989,288.176 308.334,293.622 300.548,296.837C292.762,300.053 284.195,300.894 275.93,299.255C267.665,297.615 260.072,293.569 254.113,287.628C248.154,281.686 244.096,274.116 242.452,265.875C240.808,257.634 241.652,249.092 244.877,241.329C248.102,233.566 253.563,226.931 260.57,222.262C267.577,217.594 275.815,215.103 284.243,215.103C295.543,215.103 306.381,219.579 314.372,227.546C322.362,235.513 326.852,246.319 326.852,257.587ZM279.319,280.076L310.926,248.562C311.182,248.307 311.385,248.005 311.523,247.672C311.661,247.34 311.733,246.983 311.733,246.623C311.733,246.263 311.661,245.906 311.523,245.573C311.385,245.241 311.182,244.938 310.926,244.684L307.037,240.835C306.782,240.58 306.479,240.378 306.146,240.24C305.813,240.102 305.456,240.03 305.095,240.03C304.734,240.03 304.377,240.102 304.044,240.24C303.711,240.378 303.408,240.58 303.153,240.835L277.374,266.538L265.337,254.509C264.821,253.996 264.122,253.709 263.393,253.709C262.664,253.709 261.965,253.996 261.448,254.509L257.559,258.409C257.045,258.924 256.757,259.621 256.757,260.348C256.757,261.074 257.045,261.771 257.559,262.287L275.43,280.099C275.685,280.354 275.988,280.556 276.321,280.694C276.655,280.832 277.013,280.903 277.374,280.903C277.735,280.903 278.093,280.832 278.427,280.694C278.76,280.556 279.064,280.354 279.319,280.099L279.319,280.076Z" fill="#FF6B4A"/>
</svg>
