<svg width="574" height="426" viewBox="0 0 574 426" fill="none" xmlns="http://www.w3.org/2000/svg" xmlns:xlink="http://www.w3.org/1999/xlink">
<path d="M222.192,408.562C335.388,408.562 427.152,317.102 427.152,204.28C427.152,91.46 335.388,0 222.192,0C108.994,0 17.23,91.46 17.23,204.28C17.23,317.102 108.994,408.562 222.192,408.562Z" fill="#3E457A"/>
<path d="M110.325,75.619L106.081,109.825C111.291,119.986 116.808,131.538 122.07,143.998L132.065,92.42L132.57,92.879C125.263,85.51 117.576,79.511 109.812,75.207L110.325,75.619Z" fill="#FFAA2A"/>
<path d="M105.164,108.044L109.276,74.91C100.542,70.158 91.718,67.562 83.234,67.609C82.792,67.611 82.356,67.627 81.921,67.643C83.625,70.239 93.525,85.544 105.164,108.044Z" fill="#FFAA2A"/>
<path d="M173.088,161.412L173.546,162.028C172.027,157.424 170.353,152.915 168.524,148.499L142.749,206.047L142.529,205.774C143.181,208.606 143.782,211.41 144.332,214.187L173.088,161.412Z" fill="#FFAA2A"/>
<path d="M155.635,123.17L156.122,123.718C149.668,112.739 141.932,102.561 133.075,93.396L122.89,145.958C127.768,157.659 131.972,169.081 135.502,180.223L155.635,123.17Z" fill="#FFAA2A"/>
<path d="M41.449,120.477C40.771,129.516 41.011,138.599 42.166,147.589L132.059,172.747C128.802,163.143 125.297,154.056 121.81,145.723L41.557,121.235L41.449,120.477Z" fill="#FFAA2A"/>
<path d="M43.79,158.006L43.668,157.248L134.876,181.394C134.135,179.02 133.376,176.673 132.6,174.352L42.375,149.101L42.258,148.342C42.662,151.511 43.173,154.732 43.79,158.006Z" fill="#FFAA2A"/>
<path d="M167.698,147.064L168.17,147.65C164.824,139.66 160.942,131.905 156.549,124.437L136.143,182.262C138.454,189.705 140.452,196.996 142.138,204.133L167.698,147.064Z" fill="#FFAA2A"/>
<path d="M148.504,246.221C149.434,262.732 148.229,277.984 144.886,291.808C151.971,281.699 179.565,239.517 179.559,195.779L148.504,246.221Z" fill="#FFAA2A"/>
<path d="M55.222,193.03C58.983,200.454 63.24,207.618 67.962,214.474L67.876,213.64L147.347,244.714C146.739,235.479 145.576,226.289 143.864,217.193L55.222,193.03Z" fill="#FFAA2A"/>
<path d="M104.357,108.476C91.758,84.135 81.231,68.31 81.079,68.083L81.37,67.666C68.493,68.337 58.288,75.235 51.367,86.569L104.357,108.476Z" fill="#FFAA2A"/>
<path d="M144.744,216.338C144.908,217.2 145.077,218.065 145.231,218.922C146.722,227.136 147.764,235.424 148.351,243.751L179.112,193.787L179.545,194.401C179.48,186.701 178.435,179.04 176.438,171.601C175.639,168.682 174.775,165.793 173.844,162.935L144.744,216.338Z" fill="#FFAA2A"/>
<path d="M121.11,144.062C115.899,131.747 110.443,120.333 105.292,110.291L51.087,87.881L51.018,87.139C45.896,95.775 42.642,106.908 41.511,119.773L121.11,144.062Z" fill="#FFAA2A"/>
<path d="M147.437,246.181L68.548,215.334C96.854,256.455 140.311,291.733 143.088,293.968C147.208,278.706 148.342,262.497 147.437,246.181Z" fill="#FFAA2A"/>
<path d="M143.535,215.648L143.563,215.598C141.42,204.587 138.684,193.699 135.366,182.981L43.934,158.776C44.79,163.208 45.843,167.72 47.094,172.312C48.939,178.865 51.38,185.236 54.386,191.347L143.535,215.648Z" fill="#FFAA2A"/>
<path d="M264.454,219.816L239.295,243.463C236.805,254.601 233.662,267.005 229.741,279.947L270.446,246.576L270.541,247.25C269.629,236.93 267.547,227.423 264.322,219.173L264.454,219.816Z" fill="#FFAA2A"/>
<path d="M239.729,241.508L264.099,218.603C260.413,209.391 255.278,201.782 248.714,196.425C248.372,196.146 248.027,195.88 247.681,195.616C247.332,198.699 245.163,216.78 239.729,241.508Z" fill="#FFAA2A"/>
<path d="M257.89,325.791L257.849,326.556C259.625,322.045 261.222,317.508 262.639,312.944L205.96,340.882L205.965,340.532C204.655,343.127 203.323,345.669 201.97,348.157L257.89,325.791Z" fill="#FFAA2A"/>
<path d="M268.921,285.243L268.945,285.974C271,273.416 271.555,260.659 270.598,247.97L229.118,281.977C225.387,294.09 221.316,305.56 216.903,316.385L268.921,285.243Z" fill="#FFAA2A"/>
<path d="M182.699,210.581C176.393,217.111 170.765,224.26 165.901,231.918L219.036,308.439C222.674,298.972 225.79,289.745 228.436,281.11L182.298,211.233L182.699,210.581Z" fill="#FFAA2A"/>
<path d="M160.486,240.974L160.877,240.312L215.672,316.89C216.621,314.59 217.539,312.3 218.426,310.019L165.095,233.215L165.49,232.556C163.774,235.254 162.106,238.06 160.486,240.974Z" fill="#FFAA2A"/>
<path d="M262.92,311.314L262.91,312.065C265.446,303.785 267.418,295.344 268.814,286.799L216.093,318.364C213.11,325.566 209.983,332.451 206.714,339.019L262.92,311.314Z" fill="#FFAA2A"/>
<path d="M184.683,375.482C174.834,388.79 164.144,399.771 152.724,408.292C164.65,405.011 212.896,390.064 240.881,356.373L184.683,375.482Z" fill="#FFAA2A"/>
<path d="M146.878,275.216C145.024,283.324 143.717,291.548 142.967,299.831L143.435,299.134L184.756,373.586C190.198,366.087 195.183,358.269 199.686,350.175L146.878,275.216Z" fill="#FFAA2A"/>
<path d="M238.831,241.328C244.703,214.572 246.723,195.691 246.751,195.42L247.242,195.284C236.894,187.615 224.621,186.44 212.037,190.77L238.831,241.328Z" fill="#FFAA2A"/>
<path d="M200.911,350.076C200.485,350.844 200.062,351.618 199.632,352.376C195.524,359.65 191.023,366.696 186.146,373.482L241.812,354.555L241.752,355.303C246.63,349.331 250.728,342.767 253.95,335.768C255.203,333.012 256.386,330.237 257.498,327.444L200.911,350.076Z" fill="#FFAA2A"/>
<path d="M228.96,279.386C232.828,266.588 235.929,254.329 238.389,243.321L210.982,191.602L211.404,190.987C201.932,194.383 192.301,200.888 183.198,210.078L228.96,279.386Z" fill="#FFAA2A"/>
<path d="M183.887,374.772L142.868,300.865C138.354,350.53 149.248,405.327 149.956,408.814C162.896,399.678 174.143,387.914 183.887,374.772Z" fill="#FFAA2A"/>
<path d="M200.421,348.776L200.475,348.755C205.871,338.913 210.731,328.788 215.034,318.424L160.104,241.658C157.927,245.615 155.851,249.76 153.875,254.092C151.103,260.312 148.906,266.771 147.311,273.388L200.421,348.776Z" fill="#FFAA2A"/>
<path d="M54.244,220.994L60.816,254.832C68.921,262.89 77.751,272.177 86.62,282.406L80.129,230.274L80.752,230.555C71.517,225.798 62.347,222.461 53.628,220.76L54.244,220.994Z" fill="#FFAA2A"/>
<path d="M59.391,253.421L53.026,220.642C43.246,218.814 34.049,219.064 25.995,221.722C25.576,221.86 25.166,222.009 24.757,222.159C27.183,224.103 41.344,235.608 59.391,253.421Z" fill="#FFAA2A"/>
<path d="M140.54,283.25L141.166,283.694C138.294,279.784 135.303,276.011 132.194,272.375L125.529,335.046L125.235,334.854C126.733,337.346 128.175,339.828 129.558,342.299L140.54,283.25Z" fill="#FFAA2A"/>
<path d="M112.082,252.257L112.715,252.629C103.172,244.176 92.658,236.88 81.393,230.892L88.007,284.017C96.275,293.642 103.816,303.21 110.628,312.719L112.082,252.257Z" fill="#FFAA2A"/>
<path d="M2.652,284.874C4.811,293.678 7.856,302.243 11.742,310.437L105.035,306.67C98.96,298.54 92.808,290.977 86.907,284.127L2.99,285.561L2.652,284.874Z" fill="#FFAA2A"/>
<path d="M16.517,319.844L16.166,319.16L110.396,314.026C108.955,311.996 107.505,309.997 106.048,308.029L12.41,311.81L12.063,311.125C13.43,314.014 14.915,316.92 16.517,319.844Z" fill="#FFAA2A"/>
<path d="M130.964,271.265L131.595,271.676C125.935,265.109 119.838,258.93 113.344,253.181L111.87,314.461C116.377,320.827 120.538,327.145 124.354,333.414L130.964,271.265Z" fill="#FFAA2A"/>
<path d="M143.461,371.48C149.466,386.895 153.05,401.772 154.158,415.948C157.761,404.152 170.922,355.535 157.352,313.94L143.461,371.48Z" fill="#FFAA2A"/>
<path d="M38.251,349.631C44.131,355.532 50.4,361.034 57.018,366.1L56.678,365.333L141.893,370.403C138.451,361.807 134.495,353.426 130.046,345.302L38.251,349.631Z" fill="#FFAA2A"/>
<path d="M58.758,254.08C39.227,234.813 24.307,223.005 24.093,222.836L24.24,222.35C12.202,226.956 4.636,236.659 1.569,249.57L58.758,254.08Z" fill="#FFAA2A"/>
<path d="M130.618,344.218C131.041,344.988 131.47,345.758 131.882,346.526C135.848,353.878 139.409,361.44 142.55,369.177L156.309,312.184L156.912,312.634C154.461,305.331 151.092,298.367 146.885,291.908C145.221,289.378 143.503,286.897 141.731,284.465L130.618,344.218Z" fill="#FFAA2A"/>
<path d="M85.727,282.762C76.952,272.656 68.223,263.482 60.21,255.518L1.709,250.905L1.414,250.22C-0.779,260.011 -0.422,271.602 2.493,284.185L85.727,282.762Z" fill="#FFAA2A"/>
<path d="M142.434,371.77L57.842,366.737C97.514,397.124 149.784,417.287 153.118,418.557C152.303,402.773 148.355,387.008 142.434,371.77Z" fill="#FFAA2A"/>
<path d="M129.254,343.935L129.265,343.878C123.812,334.067 117.834,324.555 111.355,315.384L16.893,320.531C19.081,324.483 21.482,328.449 24.095,332.431C27.883,338.095 32.18,343.402 36.935,348.288L129.254,343.935Z" fill="#FFAA2A"/>
<path d="M63.471,426C63.471,426 195.946,373.684 355.915,426Z" fill="#3E457A"/>
<path d="M159.785,385.862C159.887,387.262 160.061,388.656 160.305,390.039C160.305,390.039 171.705,397.765 172.617,389.13C173.209,383.503 171.869,380.962 170.856,379.876L170.84,379.859C170.232,379.218 169.889,378.371 169.881,377.489L169.881,367.314L159.849,370.496L160.305,379.131C159.63,380.926 159.621,383.608 159.785,385.862Z" fill="#FFB9B9"/>
<g opacity="0.05">
<path d="M159.785,385.862C159.887,387.262 160.061,388.656 160.305,390.038C160.305,390.038 171.705,397.765 172.617,389.13C173.209,383.503 171.869,380.962 170.857,379.876C170.461,379.578 169.991,379.394 169.497,379.342C169.004,379.291 168.506,379.375 168.057,379.585C166.233,378.776 164.226,380.126 162.566,381.871C161.442,383.053 160.504,384.399 159.785,385.862Z" fill="#000000"/>
</g>
<path d="M168.057,380.494C168.057,380.494 173.073,377.767 173.985,390.038C174.897,402.31 175.353,400.946 175.353,400.946C175.353,400.946 179.913,411.854 170.337,410.49C160.761,409.127 156.201,408.218 156.657,402.764C156.932,399.477 157.703,394.704 158.273,391.43C158.816,388.187 160.309,385.177 162.565,382.779C164.229,381.033 166.233,379.686 168.057,380.494Z" fill="#2F2E41"/>
<path d="M221.627,396.094L226.855,398.607C226.855,398.607 243.187,401.106 238.007,391.837C236.508,389.067 235.363,386.121 234.6,383.067C233.509,378.814 232.903,374.452 232.792,370.063L218.975,371.984C223.481,377.964 222.91,387.666 222.212,392.747C221.93,394.794 221.627,396.094 221.627,396.094Z" fill="#FFB9B9"/>
<g opacity="0.05">
<path d="M221.627,396.094L226.855,398.607C226.855,398.607 243.187,401.106 238.007,391.837C236.508,389.067 235.363,386.121 234.6,383.067C231.428,383.675 229.014,388.227 229.014,388.227C226.455,397.08 224.154,394.868 222.212,392.747C221.93,394.795 221.627,396.094 221.627,396.094Z" fill="#000000"/>
</g>
<path d="M229.314,389.085C229.314,389.085 233.387,381.41 237.904,384.651C242.421,387.893 240.179,392.524 254.81,397.06C269.44,401.595 259.771,411.219 250.82,410.484C241.868,409.748 222.782,406.283 222.782,406.283C222.782,406.283 217.821,392.123 220.123,391.803C222.426,391.483 225.604,401.93 229.314,389.085Z" fill="#2F2E41"/>
<g opacity="0.3">
<path d="M250.218,408.767C256.03,409.245 262.141,405.356 261.712,401.327C264.489,405.876 257.459,411.029 250.82,410.484C241.868,409.748 222.782,406.283 222.782,406.283C222.782,406.283 222.549,405.616 222.207,404.571C222.763,404.672 241.4,408.043 250.218,408.767Z" fill="#FFFFFF"/>
</g>
<g opacity="0.3">
<path d="M156.68,402.502C157.206,406.591 161.756,407.45 170.337,408.672C174.7,409.294 176.125,407.365 176.387,405.084C176.672,408.006 175.839,411.274 170.337,410.49C160.761,409.127 156.201,408.218 156.657,402.764C156.664,402.679 156.673,402.589 156.68,402.502Z" fill="#FFFFFF"/>
</g>
<path d="M135.823,225.108L134.309,247.737C134.309,247.737 133.098,270.669 142.483,272.479C151.868,274.29 142.483,243.211 142.483,243.211L142.483,222.694L135.823,225.108Z" fill="#FBBEBE"/>
<path d="M143.694,142.735L142.483,145.45C142.483,145.45 142.786,164.46 142.483,165.968C142.18,167.477 138.245,179.244 138.245,180.451C138.245,181.658 135.217,216.659 134.612,218.771C134.006,220.883 131.282,227.522 133.704,228.427C136.126,229.332 140.667,225.711 142.483,228.427C144.299,231.142 145.813,228.427 145.813,227.522C145.813,226.616 146.419,209.418 150.051,204.59C153.684,199.762 157.014,188.9 157.62,186.788C158.225,184.676 159.133,154.201 159.436,153.597C159.739,152.994 158.225,144.847 158.225,144.847L143.694,142.735Z" fill="#3F3D56"/>
<path d="M160.95,174.718C160.95,174.718 157.317,188.9 154.895,191.615C152.473,194.331 140.364,214.547 143.997,241.401C147.629,268.255 153.987,303.256 153.987,303.256C153.987,303.256 154.895,315.627 153.684,318.946C152.473,322.265 159.134,375.068 159.134,375.068C159.134,375.068 168.518,382.31 173.665,373.258C173.665,373.258 172.454,353.645 173.665,351.835C174.876,350.024 173.665,317.437 173.665,317.437C173.665,317.437 174.573,236.272 179.417,239.591C184.261,242.91 199.095,299.333 199.095,299.333C199.095,299.333 205.452,321.058 205.15,322.869C204.847,324.679 210.599,347.309 210.599,347.309C210.599,347.309 216.048,378.688 218.167,379.292C220.286,379.896 233.304,380.198 234.515,376.878L230.882,348.516C230.882,348.516 227.249,316.23 225.433,311.705C223.616,307.179 220.589,242.91 211.81,223.901C211.81,223.901 208.48,193.426 206.058,188.9C206.058,188.9 204.637,182.682 206.39,176.877C206.39,176.877 164.28,177.132 160.95,174.718Z" fill="#2F2E41"/>
<path d="M178.963,118.144C193.007,118.144 204.393,103.757 204.393,86.009C204.393,68.262 193.007,53.875 178.963,53.875C164.918,53.875 153.533,68.262 153.533,86.009C153.533,103.757 164.918,118.144 178.963,118.144Z" fill="#2F2E41"/>
<path d="M231.185,123.726L227.249,132.174L180.628,145.752C180.628,145.752 148.235,155.106 144.905,140.019C141.575,124.932 157.62,123.424 157.62,123.424C157.62,123.424 163.675,119.2 171.243,114.975C173.774,113.56 174.613,111.27 174.606,108.847C174.6,108.127 174.532,107.408 174.404,106.699C174.258,105.879 174.055,105.071 173.798,104.279C173.157,102.325 172.3,100.447 171.243,98.682C171.243,98.682 191.224,90.837 190.921,95.061C190.793,96.583 190.957,98.115 191.405,99.575C191.819,100.854 192.376,102.081 193.067,103.235C193.406,103.817 193.785,104.421 194.206,105.06C194.751,105.89 195.371,106.774 196.067,107.734C200.003,113.165 213.021,113.165 213.021,113.165C223.314,111.958 231.185,123.726 231.185,123.726Z" fill="#FBBEBE"/>
<path d="M279.32,172.003C279.32,172.003 301.117,187.995 305.356,187.693C309.594,187.391 334.418,185.882 328.666,191.615C322.914,197.348 296.879,193.727 296.879,193.727L272.963,178.641L279.32,172.003Z" fill="#FBBEBE"/>
<g opacity="0.1">
<path d="M191.405,99.575C189.203,101.918 186.387,103.6 183.275,104.431C180.164,105.263 176.881,105.21 173.798,104.279C173.157,102.325 172.3,100.447 171.243,98.682C171.243,98.682 191.224,90.837 190.921,95.061C190.793,96.583 190.957,98.115 191.405,99.575Z" fill="#000000"/>
</g>
<path d="M178.811,102.906C188.342,102.906 196.067,95.206 196.067,85.707C196.067,76.209 188.342,68.509 178.811,68.509C169.281,68.509 161.555,76.209 161.555,85.707C161.555,95.206 169.281,102.906 178.811,102.906Z" fill="#FBBEBE"/>
<path d="M157.317,135.795C157.317,135.795 232.396,118.898 232.699,121.312C233.001,123.726 236.029,128.553 236.029,128.553L218.47,148.468C218.47,148.468 220.589,158.123 216.351,160.235C212.113,162.347 211.507,178.339 207.571,178.641C203.636,178.943 157.62,178.339 157.317,175.925C157.014,173.511 158.528,172.003 157.317,171.399C156.106,170.796 154.29,170.796 155.803,167.779C157.317,164.761 157.317,152.088 157.317,152.088L143.088,145.45C143.088,145.45 141.137,139.828 144.686,138.868C148.235,137.907 157.317,135.795 157.317,135.795Z" fill="#3F3D56"/>
<path d="M233.304,127.95L236.029,127.95C236.029,127.95 244.202,133.381 246.322,138.209C248.441,143.036 256.009,149.373 257.826,151.183C259.642,152.994 284.466,170.192 284.164,172.606C283.861,175.02 276.898,177.434 276.595,180.149C276.293,182.865 279.623,184.072 277.503,184.072C275.384,184.072 262.367,176.529 257.523,173.813C252.679,171.097 242.689,163.252 241.478,161.14C240.267,159.028 232.093,155.407 231.185,153.899C230.277,152.39 216.048,145.45 216.048,145.45L233.304,127.95Z" fill="#3F3D56"/>
<path d="M153.533,76.203C158.883,76.203 163.22,71.88 163.22,66.547C163.22,61.215 158.883,56.892 153.533,56.892C148.182,56.892 143.845,61.215 143.845,66.547C143.845,71.88 148.182,76.203 153.533,76.203Z" fill="#2F2E41"/>
<path d="M196.219,63.53C201.569,63.53 205.906,59.207 205.906,53.875C205.906,48.542 201.569,44.219 196.219,44.219C190.869,44.219 186.531,48.542 186.531,53.875C186.531,59.207 190.869,63.53 196.219,63.53Z" fill="#2F2E41"/>
<path d="M181.233,85.557C191.181,85.557 199.246,80.626 199.246,74.543C199.246,68.461 191.181,63.53 181.233,63.53C171.285,63.53 163.22,68.461 163.22,74.543C163.22,80.626 171.285,85.557 181.233,85.557Z" fill="#2F2E41"/>
<path d="M193.067,103.235C184.766,106.491 178.206,106.877 174.404,106.699C174.532,107.408 174.6,108.127 174.606,108.847C175.048,108.865 175.524,108.874 176.029,108.874C180.228,108.874 186.501,108.147 194.206,105.061L193.067,103.235Z" fill="#2F2E41"/>
<path d="M560.607,193.07L324.318,193.07C316.921,193.07 310.925,199.047 310.925,206.419L310.925,336.669C310.925,344.041 316.921,350.018 324.318,350.018L560.607,350.018C568.005,350.018 574.001,344.041 574.001,336.669L574.001,206.419C574.001,199.047 568.005,193.07 560.607,193.07Z" fill="#FFFFFF"/>
<g opacity="0.3">
<path d="M545.502,303.151L339.29,303.151L339.29,310.625L545.502,310.625L545.502,303.151Z" fill="#858DC3"/>
</g>
<g opacity="0.3">
<path d="M545.635,283.533L339.423,283.533L339.423,291.007L545.635,291.007L545.635,283.533Z" fill="#858DC3"/>
</g>
<g opacity="0.3">
<path d="M545.634,256.752L508.767,256.752L508.767,264.226L545.634,264.226L545.634,256.752Z" fill="#858DC3"/>
</g>
<g opacity="0.3">
<path d="M545.635,236.822L410.66,236.822L410.66,244.296L545.635,244.296L545.635,236.822Z" fill="#858DC3"/>
</g>
<g opacity="0.3">
<path d="M442.529,323.081L339.29,323.081L339.29,330.555L442.529,330.555L442.529,323.081Z" fill="#858DC3"/>
</g>
<path d="M384.937,212.533L345.775,212.533C342.267,212.533 339.423,215.367 339.423,218.864L339.423,257.895C339.423,261.391 342.267,264.226 345.775,264.226L384.937,264.226C388.445,264.226 391.289,261.391 391.289,257.895L391.289,218.864C391.289,215.367 388.445,212.533 384.937,212.533Z" fill="#FFAA2A"/>
</svg>
