<svg width="528" height="478" viewBox="0 0 528 478" fill="none" xmlns="http://www.w3.org/2000/svg" xmlns:xlink="http://www.w3.org/1999/xlink">
<path d="M504.718,16.802L271.106,16.802C258.248,16.802 247.824,27.236 247.824,40.106L247.824,356.426C247.824,369.296 258.248,379.73 271.106,379.73L504.718,379.73C517.576,379.73 528,369.296 528,356.426L528,40.106C528,27.236 517.576,16.802 504.718,16.802Z" fill="#F2F2F2"/>
<path d="M257.677,1.306L491.29,1.306L491.29,-0.694L257.677,-0.694L257.677,1.306ZM491.29,1.306C503.594,1.306 513.572,11.291 513.572,23.61L515.572,23.61C515.572,10.188 504.702,-0.694 491.29,-0.694L491.29,1.306ZM513.572,23.61L513.572,339.93L515.572,339.93L515.572,23.61L513.572,23.61ZM513.572,339.93C513.572,352.248 503.594,362.234 491.29,362.234L491.29,364.234C504.702,364.234 515.572,353.352 515.572,339.93L513.572,339.93ZM491.29,362.234L257.677,362.234L257.677,364.234L491.29,364.234L491.29,362.234ZM257.677,362.234C245.372,362.234 235.396,352.248 235.396,339.93L233.396,339.93C233.396,353.352 244.266,364.234 257.677,364.234L257.677,362.234ZM235.396,339.93L235.396,23.61L233.396,23.61L233.396,339.93L235.396,339.93ZM235.396,23.61C235.396,11.291 245.372,1.306 257.677,1.306L257.677,-0.694C244.266,-0.694 233.396,10.188 233.396,23.61L235.396,23.61Z" fill="#3F3D56"/>
<path d="M248.74,37.863L248.74,36.863L247.74,36.863L247.74,37.863L248.74,37.863ZM497.786,37.863L498.786,37.863L498.786,36.863L497.786,36.863L497.786,37.863ZM497.786,325.675L497.786,326.675L498.786,326.675L498.786,325.675L497.786,325.675ZM248.74,325.675L247.74,325.675L247.74,326.675L248.74,326.675L248.74,325.675ZM248.74,38.863L497.786,38.863L497.786,36.863L248.74,36.863L248.74,38.863ZM496.786,37.863L496.786,325.675L498.786,325.675L498.786,37.863L496.786,37.863ZM497.786,324.675L248.74,324.675L248.74,326.675L497.786,326.675L497.786,324.675ZM249.74,325.675L249.74,37.863L247.74,37.863L247.74,325.675L249.74,325.675Z" fill="#3F3D56"/>
<path d="M379.588,18.941C379.588,21.764 377.301,24.051 374.483,24.051L374.483,26.051C378.408,26.051 381.588,22.866 381.588,18.941L379.588,18.941ZM374.483,24.051C371.665,24.051 369.379,21.764 369.379,18.941L367.379,18.941C367.379,22.866 370.559,26.051 374.483,26.051L374.483,24.051ZM369.379,18.941C369.379,16.118 371.665,13.831 374.483,13.831L374.483,11.831C370.559,11.831 367.379,15.015 367.379,18.941L369.379,18.941ZM374.483,13.831C377.301,13.831 379.588,16.118 379.588,18.941L381.588,18.941C381.588,15.015 378.408,11.831 374.483,11.831L374.483,13.831Z" fill="#3F3D56"/>
<path d="M386.912,344.293C386.912,351.165 381.347,356.734 374.483,356.734L374.483,358.734C382.453,358.734 388.912,352.268 388.912,344.293L386.912,344.293ZM374.483,356.734C367.62,356.734 362.054,351.165 362.054,344.293L360.054,344.293C360.054,352.268 366.513,358.734 374.483,358.734L374.483,356.734ZM362.054,344.293C362.054,337.42 367.62,331.851 374.483,331.851L374.483,329.851C366.513,329.851 360.054,336.318 360.054,344.293L362.054,344.293ZM374.483,331.851C381.347,331.851 386.912,337.42 386.912,344.293L388.912,344.293C388.912,336.318 382.453,329.851 374.483,329.851L374.483,331.851Z" fill="#3F3D56"/>
<path d="M366.847,69.388C361.476,69.388 356.157,70.447 351.195,72.505C346.232,74.562 341.723,77.578 337.925,81.38C334.126,85.182 331.113,89.695 329.058,94.663C327.002,99.63 325.944,104.954 325.944,110.331C325.944,132.942 368.795,216.342 368.795,216.342C368.795,216.342 407.75,132.942 407.75,110.331C407.75,99.472 403.441,89.058 395.77,81.38C388.099,73.702 377.696,69.388 366.847,69.388L366.847,69.388ZM366.847,137.625C362.61,137.625 358.468,136.368 354.944,134.011C351.421,131.655 348.675,128.305 347.053,124.387C345.431,120.468 345.007,116.156 345.834,111.996C346.66,107.836 348.701,104.014 351.697,101.015C354.694,98.016 358.511,95.973 362.668,95.146C366.824,94.318 371.132,94.743 375.047,96.366C378.962,97.989 382.308,100.738 384.662,104.265C387.016,107.792 388.273,111.938 388.273,116.18C388.273,121.867 386.016,127.322 381.997,131.344C377.979,135.366 372.53,137.625 366.847,137.625L366.847,137.625Z" fill="#FFAA2A"/>
<path d="M366.853,258.143C389.44,258.143 407.75,252.125 407.75,244.701C407.75,237.278 389.44,231.259 366.853,231.259C344.266,231.259 325.956,237.278 325.956,244.701C325.956,252.125 344.266,258.143 366.853,258.143Z" fill="#FFAA2A"/>
<path d="M208.801,67.092L207.883,66.696L207.877,66.71L208.801,67.092ZM235.688,100.728L236.195,99.866L236.195,99.866L235.688,100.728ZM257.35,153.82L256.488,153.313L256.488,153.313L257.35,153.82ZM220.837,57.631C218.049,57.788 215.361,58.72 213.073,60.321L214.22,61.96C216.203,60.572 218.534,59.764 220.95,59.627L220.837,57.631ZM213.073,60.321C210.785,61.923 208.988,64.13 207.883,66.696L209.72,67.487C210.678,65.262 212.236,63.348 214.22,61.96L213.073,60.321ZM207.877,66.71C204.624,74.582 208.845,83.601 214.841,89.075L216.189,87.598C210.497,82.401 206.932,74.233 209.726,67.474L207.877,66.71ZM214.841,89.075C217.847,91.819 221.263,93.959 224.748,95.903C228.289,97.878 231.763,99.582 235.182,101.591L236.195,99.866C232.792,97.867 229.102,96.041 225.723,94.156C222.287,92.24 219.027,90.188 216.189,87.598L214.841,89.075ZM235.182,101.591C244.233,106.909 252.293,114.252 256.765,123.61L258.569,122.747C253.873,112.919 245.467,105.315 236.195,99.866L235.182,101.591ZM256.765,123.61C261.237,132.97 261.674,144.493 256.488,153.313L258.212,154.326C263.804,144.817 263.265,132.574 258.569,122.747L256.765,123.61ZM256.488,153.313C251.65,161.541 242.821,166.514 234.105,171.233L235.057,172.992C243.688,168.32 253.047,163.111 258.212,154.326L256.488,153.313Z" fill="#3F3D56"/>
<path d="M228.597,64.459C234.496,64.459 239.279,62.134 239.279,59.266C239.279,56.398 234.496,54.073 228.597,54.073C222.697,54.073 217.915,56.398 217.915,59.266C217.915,62.134 222.697,64.459 228.597,64.459Z" fill="#57B894"/>
<path d="M237.142,98.675C243.042,98.675 247.824,96.35 247.824,93.481C247.824,90.613 243.042,88.288 237.142,88.288C231.243,88.288 226.46,90.613 226.46,93.481C226.46,96.35 231.243,98.675 237.142,98.675Z" fill="#57B894"/>
<path d="M217.609,104.174C223.509,104.174 228.291,101.849 228.291,98.98C228.291,96.112 223.509,93.787 217.609,93.787C211.71,93.787 206.927,96.112 206.927,98.98C206.927,101.849 211.71,104.174 217.609,104.174Z" fill="#57B894"/>
<path d="M248.13,132.89C254.029,132.89 258.812,130.565 258.812,127.697C258.812,124.829 254.029,122.503 248.13,122.503C242.23,122.503 237.448,124.829 237.448,127.697C237.448,130.565 242.23,132.89 248.13,132.89Z" fill="#57B894"/>
<path d="M269.494,132.89C275.393,132.89 280.176,130.565 280.176,127.697C280.176,124.829 275.393,122.503 269.494,122.503C263.594,122.503 258.812,124.829 258.812,127.697C258.812,130.565 263.594,132.89 269.494,132.89Z" fill="#57B894"/>
<line x1="28.989" y1="474.695" x2="247.824" y2="474.695" stroke="#3F3D56" stroke-width="1" stroke-miterlimit="10"/>
<path d="M9.703,377.726L8.785,377.331L8.779,377.344L9.703,377.726ZM34.74,409.048L34.233,409.911L34.233,409.911L34.74,409.048ZM54.911,458.487L55.773,458.993L55.773,458.993L54.911,458.487ZM20.907,368.847C18.298,368.995 15.782,369.867 13.641,371.365L14.788,373.004C16.625,371.718 18.783,370.971 21.02,370.844L20.907,368.847ZM13.641,371.365C11.5,372.864 9.819,374.929 8.785,377.331L10.622,378.122C11.509,376.061 12.951,374.289 14.788,373.004L13.641,371.365ZM8.779,377.344C5.734,384.713 9.687,393.141 15.281,398.247L16.629,396.77C11.339,391.941 8.042,384.365 10.627,378.108L8.779,377.344ZM15.281,398.247C18.086,400.808 21.273,402.804 24.519,404.615C27.822,406.458 31.049,408.04 34.233,409.911L35.246,408.186C32.079,406.325 28.635,404.621 25.494,402.869C22.296,401.085 19.266,399.177 16.629,396.77L15.281,398.247ZM34.233,409.911C42.654,414.859 50.148,421.687 54.304,430.385L56.109,429.523C51.728,420.355 43.888,413.264 35.246,408.186L34.233,409.911ZM54.304,430.385C58.461,439.085 58.864,449.79 54.049,457.98L55.773,458.993C60.994,450.114 60.489,438.689 56.109,429.523L54.304,430.385ZM54.049,457.98C49.556,465.622 41.352,470.246 33.233,474.641L34.185,476.4C42.219,472.051 50.952,467.193 55.773,458.993L54.049,457.98Z" fill="#3F3D56"/>
<path d="M28.136,375.275C33.63,375.275 38.083,373.11 38.083,370.439C38.083,367.768 33.63,365.603 28.136,365.603C22.642,365.603 18.189,367.768 18.189,370.439C18.189,373.11 22.642,375.275 28.136,375.275Z" fill="#57B894"/>
<path d="M36.094,407.136C41.587,407.136 46.041,404.971 46.041,402.3C46.041,399.629 41.587,397.464 36.094,397.464C30.6,397.464 26.146,399.629 26.146,402.3C26.146,404.971 30.6,407.136 36.094,407.136Z" fill="#57B894"/>
<path d="M17.905,412.257C23.398,412.257 27.852,410.092 27.852,407.421C27.852,404.75 23.398,402.585 17.905,402.585C12.411,402.585 7.958,404.75 7.958,407.421C7.958,410.092 12.411,412.257 17.905,412.257Z" fill="#57B894"/>
<path d="M46.325,438.997C51.819,438.997 56.272,436.832 56.272,434.161C56.272,431.49 51.819,429.325 46.325,429.325C40.831,429.325 36.378,431.49 36.378,434.161C36.378,436.832 40.831,438.997 46.325,438.997Z" fill="#57B894"/>
<path d="M66.219,438.997C71.713,438.997 76.166,436.832 76.166,434.161C76.166,431.49 71.713,429.325 66.219,429.325C60.725,429.325 56.272,431.49 56.272,434.161C56.272,436.832 60.725,438.997 66.219,438.997Z" fill="#57B894"/>
<path d="M54.278,395.82L55.203,395.438L55.197,395.425L54.278,395.82ZM33.832,421.4L34.338,422.262L34.338,422.262L33.832,421.4ZM17.358,461.775L18.22,461.268L18.22,461.268L17.358,461.775ZM45.026,390.383C46.819,390.485 48.549,391.084 50.021,392.114L51.167,390.475C49.391,389.232 47.303,388.509 45.139,388.386L45.026,390.383ZM50.021,392.114C51.493,393.144 52.649,394.565 53.36,396.216L55.197,395.425C54.339,393.433 52.944,391.719 51.167,390.475L50.021,392.114ZM53.354,396.202C55.424,401.21 52.791,407.319 48.498,411.238L49.847,412.715C54.443,408.519 57.732,401.558 55.202,395.439L53.354,396.202ZM48.498,411.238C46.36,413.189 43.9,414.739 41.294,416.193C38.743,417.616 35.911,419.019 33.325,420.538L34.338,422.262C36.94,420.734 39.556,419.453 42.268,417.94C44.924,416.458 47.54,414.82 49.847,412.715L48.498,411.238ZM33.325,420.538C26.247,424.697 19.814,430.511 16.215,438.042L18.02,438.904C21.393,431.844 27.481,426.292 34.338,422.262L33.325,420.538ZM16.215,438.042C12.617,445.57 12.196,454.967 16.496,462.282L18.22,461.268C14.325,454.643 14.645,445.966 18.02,438.904L16.215,438.042ZM16.496,462.282C20.463,469.029 27.644,473.018 34.198,476.565L35.15,474.807C28.511,471.213 21.86,467.458 18.22,461.268L16.496,462.282Z" fill="#3F3D56"/>
<path d="M39.225,393.819C43.711,393.819 47.348,392.05 47.348,389.869C47.348,387.688 43.711,385.92 39.225,385.92C34.738,385.92 31.101,387.688 31.101,389.869C31.101,392.05 34.738,393.819 39.225,393.819Z" fill="#57B894"/>
<path d="M32.726,419.839C37.212,419.839 40.849,418.07 40.849,415.889C40.849,413.708 37.212,411.94 32.726,411.94C28.24,411.94 24.603,413.708 24.603,415.889C24.603,418.07 28.24,419.839 32.726,419.839Z" fill="#57B894"/>
<path d="M47.58,424.02C52.066,424.02 55.703,422.252 55.703,420.071C55.703,417.89 52.066,416.121 47.58,416.121C43.094,416.121 39.457,417.89 39.457,420.071C39.457,422.252 43.094,424.02 47.58,424.02Z" fill="#57B894"/>
<path d="M24.37,445.859C28.856,445.859 32.493,444.09 32.493,441.909C32.493,439.728 28.856,437.96 24.37,437.96C19.884,437.96 16.247,439.728 16.247,441.909C16.247,444.09 19.884,445.859 24.37,445.859Z" fill="#57B894"/>
<path d="M8.123,445.859C12.61,445.859 16.247,444.09 16.247,441.909C16.247,439.728 12.61,437.96 8.123,437.96C3.637,437.96 0,439.728 0,441.909C0,444.09 3.637,445.859 8.123,445.859Z" fill="#57B894"/>
<path d="M79.258,450.607C79.258,450.607 84.942,453.452 88.921,454.021C92.9,454.59 95.138,450.562 94.303,449.162C93.468,447.763 96.879,448.901 99.153,454.021C99.153,454.021 108.815,465.4 114.499,465.969C120.183,466.538 120.228,474.241 117.341,474.503C114.215,474.788 108.815,476.779 101.995,474.503C95.174,472.227 88.921,465.969 86.079,465.969C83.237,465.969 73.574,461.417 76.416,459.142C79.258,456.866 79.258,450.607 79.258,450.607Z" fill="#3F3D56"/>
<path d="M135.28,463.462C138.182,463.686 141.101,463.506 143.953,462.929C147.859,461.979 148.443,457.407 147.149,456.418C145.855,455.429 149.443,455.218 153.454,459.128C153.454,459.128 166.646,466.104 172.135,464.52C177.624,462.937 180.521,470.073 177.938,471.389C173.558,473.793 168.69,475.168 163.7,475.41C156.523,475.831 148.384,474.024 145.745,475.08C143.106,476.136 132.445,475.499 134.241,472.33C136.036,469.161 135.28,463.462 135.28,463.462Z" fill="#3F3D56"/>
<path d="M125.618,192.073C137.86,192.073 147.785,182.139 147.785,169.884C147.785,157.63 137.86,147.695 125.618,147.695C113.375,147.695 103.45,157.63 103.45,169.884C103.45,182.139 113.375,192.073 125.618,192.073Z" fill="#FFC1C7"/>
<path d="M108.281,178.703C108.281,178.703 111.691,202.599 103.734,206.013C95.776,209.426 144.09,208.289 144.09,208.289C144.09,208.289 137.27,186.668 138.975,180.979C140.68,175.29 108.281,178.703 108.281,178.703Z" fill="#FFC1C7"/>
<path d="M100.324,314.682C100.324,314.682 98.618,357.922 96.913,362.474C95.208,367.025 93.503,397.748 93.503,397.748L78.724,453.505L92.366,458.057C92.366,458.057 111.123,425.058 113.397,421.075C115.671,417.093 133.859,353.37 133.859,353.37C133.859,353.37 132.154,392.628 132.154,405.714C132.154,418.799 135.565,466.591 135.565,466.591L146.364,465.453L160.574,405.145C160.574,405.145 181.037,323.785 167.395,314.682C153.754,305.579 100.324,314.682 100.324,314.682Z" fill="#2F2E41"/>
<path d="M183.31,328.337C183.31,328.337 183.879,361.336 177.058,356.215C170.237,351.095 177.058,325.492 177.058,325.492L183.31,328.337Z" fill="#FFC1C7"/>
<path d="M88.955,316.958C88.955,316.958 89.524,349.957 82.703,344.836C75.882,339.716 82.703,314.113 82.703,314.113L88.955,316.958Z" fill="#FFC1C7"/>
<path d="M172.511,220.805C172.511,220.805 161.143,207.72 151.48,209.426C141.817,211.133 88.955,210.564 88.955,210.564C88.955,210.564 71.335,232.753 75.882,237.305C80.429,241.856 95.208,322.647 95.208,322.647C95.208,322.647 134.428,317.527 148.07,317.527C161.711,317.527 167.395,315.251 167.395,315.251C167.395,315.251 149.206,278.838 157.732,262.339C166.259,245.839 178.763,228.202 178.763,228.202L172.511,220.805Z" fill="#FFAA2A"/>
<path d="M169.1,224.788L178.763,228.202C178.763,228.202 184.447,248.115 184.447,264.045C184.447,279.976 185.016,287.941 187.289,293.631C189.563,299.32 196.952,326.061 192.973,331.75C190.776,334.989 188.092,337.868 185.016,340.285L171.942,339.147C171.942,339.147 171.374,320.371 167.964,318.665C164.553,316.958 160.006,306.148 160.006,306.148C160.006,306.148 149.206,271.442 156.027,260.063C162.848,248.684 169.1,224.788 169.1,224.788Z" fill="#FFAA2A"/>
<path d="M132.722,245.839C132.722,245.839 138.406,220.805 127.607,221.943C116.807,223.081 102.029,223.65 98.05,223.65C94.071,223.65 71.335,220.805 67.924,235.598C64.514,250.391 59.967,268.597 69.63,279.976C69.63,279.976 73.04,330.044 86.113,333.457C99.187,336.871 133.859,340.853 146.364,324.354C158.869,307.854 153.753,289.648 153.753,289.648L148.069,289.648L132.722,245.839Z" fill="#3F3D56"/>
<path d="M151.479,290.786L156.026,260.063L153.753,291.924L151.479,290.786Z" fill="#3F3D56"/>
<g opacity="0.1">
<path d="M75.313,283.959C75.313,283.959 84.976,288.51 104.87,285.666L104.87,294.2L75.313,291.924L75.313,283.959Z" fill="#000000"/>
</g>
<path d="M127.323,221.659L142.101,213.694L129.597,224.504L127.323,221.659Z" fill="#3F3D56"/>
<path d="M158.869,213.409C158.869,213.409 170.237,217.392 170.237,213.409C170.237,209.426 160.006,206.013 153.753,203.737C147.501,201.461 117.944,198.047 113.397,196.341C108.85,194.634 87.25,191.789 85.545,198.616C83.84,205.444 83.271,219.667 91.797,221.374C100.324,223.081 122.491,218.53 133.859,219.667C145.227,220.805 158.869,213.409 158.869,213.409Z" fill="#343B71"/>
<path d="M158.869,213.409C158.869,213.409 170.237,217.392 170.237,213.409C170.237,209.426 160.006,206.013 153.753,203.737C147.501,201.461 117.944,198.047 113.397,196.341C108.85,194.634 87.25,191.789 85.545,198.616C83.84,205.444 83.271,219.667 91.797,221.374C100.324,223.081 122.491,218.53 133.859,219.667C145.227,220.805 158.869,213.409 158.869,213.409Z" fill="#FFAA2A"/>
<path d="M79.577,226.21L83.44,218.088L84.124,227.917L79.577,226.21Z" fill="#3F3D56"/>
<path d="M121.776,192.787C133.238,192.787 142.53,181.982 142.53,168.653C142.53,155.324 133.238,144.519 121.776,144.519C110.314,144.519 101.022,155.324 101.022,168.653C101.022,181.982 110.314,192.787 121.776,192.787Z" fill="#2F2E41"/>
<path d="M125.438,168.958C136.9,168.958 146.192,163.077 146.192,155.822C146.192,148.567 136.9,142.686 125.438,142.686C113.976,142.686 104.685,148.567 104.685,155.822C104.685,163.077 113.976,168.958 125.438,168.958Z" fill="#2F2E41"/>
<path d="M141.614,179.345C142.794,179.345 143.75,177.704 143.75,175.679C143.75,173.654 142.794,172.013 141.614,172.013C140.434,172.013 139.478,173.654 139.478,175.679C139.478,177.704 140.434,179.345 141.614,179.345Z" fill="#FFC1C7"/>
<path d="M138.634,152.514C140.817,151.318 142.682,149.156 144.078,146.202C144.215,146.858 144.252,147.532 144.187,148.2C145.094,148.097 145.975,147.832 146.787,147.415L146.592,149.545C148.16,148.583 149.602,147.428 150.882,146.107C151.229,149.214 150.709,152.356 149.379,155.185C148.247,157.423 146.708,158.879 145.185,160.313Z" fill="#2F2E41"/>
</svg>
