<svg width="574" height="378" viewBox="0 0 574 378" fill="none" xmlns="http://www.w3.org/2000/svg" xmlns:xlink="http://www.w3.org/1999/xlink">
<circle cx="384" cy="200" r="150" fill="#F2F2F2"/>
<path d="M247.864,51.238L48.67,51.238L48.67,195.516L247.864,195.516L247.864,51.238Z" fill="#FFAA2A"/>
<path d="M478.166,349.345L290.512,349.345L290.512,350.351L478.166,350.351L478.166,349.345Z" fill="#3F3D56"/>
<path d="M568.944,322.702L418.744,322.702C418.744,322.702 415.7,277.962 433.713,277.454C451.727,276.945 449.698,297.281 472.278,269.319C494.859,241.357 522.26,242.882 525.812,259.405C529.364,275.928 518.962,289.147 537.991,285.08C557.02,281.012 584.421,291.689 568.944,322.702Z" fill="#FFAA2A"/>
<path d="M491.309,322.712L490.802,322.692C491.984,293.235 498.141,274.309 503.099,263.62C508.481,252.013 513.667,247.314 513.719,247.268L514.056,247.648C514.005,247.693 508.879,252.345 503.54,263.874C498.61,274.518 492.487,293.367 491.309,322.712Z" fill="#F2F2F2"/>
<path d="M545.67,322.773L545.183,322.631C551.048,302.459 564.861,289.723 565,289.597L565.341,289.973C565.203,290.098 551.494,302.744 545.67,322.773Z" fill="#F2F2F2"/>
<path d="M442.401,322.737L441.899,322.667C443.889,308.286 440.294,297.129 436.928,290.302C433.283,282.91 429.124,278.872 429.083,278.832L429.434,278.465C429.476,278.506 433.699,282.605 437.383,290.077C440.78,296.968 444.409,308.228 442.401,322.737Z" fill="#F2F2F2"/>
<path d="M573.999,322.702L21.575,322.702L21.575,323.707L573.999,323.707L573.999,322.702Z" fill="#3F3D56"/>
<path d="M411.148,19.814L363.635,19.814L363.635,78.958L411.148,78.958L411.148,19.814Z" fill="#2F2E41"/>
<path d="M324.4,295.701L317.921,319.503L328.72,327.437L331.6,325.273L336.639,300.75L324.4,295.701Z" fill="#FFB8B8"/>
<path d="M405.748,293.537L403.589,322.388L417.267,322.388L417.267,295.701L405.748,293.537Z" fill="#FFB8B8"/>
<path d="M362.555,111.055L362.555,128.365L389.191,132.693L412.227,123.316L407.908,112.497L362.555,111.055Z" fill="#FFB8B8"/>
<path d="M384.152,125.48L361.115,121.153L355.356,168.035L340.958,226.459C340.958,226.459 319.361,276.227 322.241,287.767L323.681,291.373L322.241,297.865L336.639,303.635L342.398,294.259C342.398,294.259 346.717,300.75 353.916,287.046C361.115,273.342 391.351,188.231 391.351,188.231L396.39,202.657C395.086,207.106 394.84,211.799 395.67,216.361C397.11,223.574 398.55,245.933 398.55,245.933C398.55,245.933 390.631,284.882 401.429,287.767L403.589,296.422L418.707,297.865L421.586,289.21C421.586,289.21 435.984,284.161 432.385,258.916C428.785,233.671 427.345,150.725 427.345,150.725L413.163,115.689L384.152,125.48Z" fill="#2F2E41"/>
<path d="M322.241,318.061C322.241,318.061 318.641,315.176 317.202,315.897C315.762,316.618 300.644,336.093 300.644,336.093C300.644,336.093 284.806,348.354 296.325,349.797C307.843,351.239 339.518,335.371 339.518,331.765C339.518,328.158 332.863,319.126 332.863,319.126C332.863,319.126 328,323.11 322.241,318.061Z" fill="#2F2E41"/>
<path d="M402.149,315.897C402.149,315.897 415.107,315.09 417.267,317.297C419.427,319.503 418.707,330.322 418.707,330.322C418.707,330.322 420.146,349.797 408.628,349.797C397.11,349.797 399.989,336.814 399.989,336.814L402.149,315.897Z" fill="#2F2E41"/>
<path d="M389.191,47.583C399.13,47.583 407.188,39.509 407.188,29.551C407.188,19.592 399.13,11.519 389.191,11.519C379.251,11.519 371.193,19.592 371.193,29.551C371.193,39.509 379.251,47.583 389.191,47.583Z" fill="#FFB8B8"/>
<path d="M377.312,40.73C377.312,40.73 387.391,52.992 367.234,62.369C347.077,71.745 381.632,110.694 381.632,110.694C381.632,110.694 421.946,95.547 418.346,65.975C418.346,65.975 393.87,61.647 399.629,41.452L377.312,40.73Z" fill="#FFB8B8"/>
<path d="M366.514,61.647C366.514,61.647 349.957,59.484 349.237,73.188C348.517,86.892 349.237,120.071 349.237,120.071C349.237,120.071 342.038,148.922 345.637,174.166C345.637,174.166 341.318,203.739 352.836,202.296C364.354,200.854 355.716,172.003 355.716,172.003L360.755,125.12L358.595,90.498L367.954,69.582L366.514,61.647Z" fill="#FFB8B8"/>
<path d="M414.167,64.834C414.167,64.834 429.865,64.533 430.585,76.073C431.305,87.613 425.546,122.956 425.546,122.956L416.907,127.283L408.988,102.76L414.167,64.834Z" fill="#FFB8B8"/>
<path d="M418.706,124.038L417.267,127.644L421.586,138.463C421.586,138.463 404.309,152.168 405.748,155.053C407.188,157.938 415.107,151.446 415.107,151.446L426.625,157.216C426.625,157.216 435.984,147.119 431.664,137.742C427.345,128.365 425.677,122.138 425.677,122.138C425.677,122.138 419.426,121.874 418.706,124.038Z" fill="#FFB8B8"/>
<path d="M363.275,59.123L361.115,82.925C361.115,82.925 351.037,93.023 362.555,106.727L361.115,117.546C361.115,117.546 387.751,116.104 392.79,117.546C397.83,118.989 413.392,116.385 413.392,116.385L413.667,108.17C413.667,108.17 420.866,98.072 418.707,82.925C416.547,67.778 418.707,62.729 418.707,62.729L413.667,62.008C413.667,62.008 410.428,84.007 388.111,86.171C388.111,86.171 360.395,88.695 368.314,59.123L363.275,59.123Z" fill="#FFAA2A"/>
<path d="M390.99,0.339C390.99,0.339 372.273,-0.823 367.954,10.838C363.634,22.5 356.076,28.622 356.076,28.622C356.076,28.622 344.169,36.915 350.122,51.718C350.122,51.718 331.599,64.19 343.837,75.268C343.837,75.268 343.118,86.347 350.316,93.927C350.316,93.927 356.076,96.842 353.916,98.591C351.756,100.34 368.314,99.174 366.874,83.431C365.434,67.688 375.153,56.599 375.153,56.599C375.153,56.599 365.794,36.187 370.114,29.19C372.736,24.942 373.862,21.774 376.039,19.941C377.252,18.944 378.376,17.844 379.4,16.654C380.368,15.428 381.683,14.523 383.173,14.057C384.663,13.592 386.259,13.587 387.751,14.045C394.23,15.794 395.67,21.042 395.67,21.042C395.67,21.042 400.349,33.578 408.268,39.409C416.187,45.24 402.149,55.444 402.149,55.444C402.149,55.444 404.589,67.457 410.928,74.57C417.267,81.682 409.101,87.882 408.628,88.679C407.548,90.498 403.236,101.988 421.049,102.039C421.049,102.039 425.185,93.344 430.945,88.096C436.704,82.848 432.384,67.688 432.384,67.688C432.384,67.688 441.023,62.44 431.664,49.613C431.664,49.613 434.544,37.951 426.625,30.371C426.625,30.371 415.467,-3.742 390.99,0.339Z" fill="#2F2E41"/>
<path d="M369.754,32.075C370.748,32.075 371.554,30.783 371.554,29.19C371.554,27.597 370.748,26.305 369.754,26.305C368.76,26.305 367.954,27.597 367.954,29.19C367.954,30.783 368.76,32.075 369.754,32.075Z" fill="#FFB8B8"/>
<path d="M297.538,377.497L0.502,377.497C0.502,377.497 -5.519,289.02 30.105,288.015C65.729,287.009 61.715,327.226 106.371,271.928C151.026,216.63 205.216,219.646 212.24,252.322C219.264,284.998 198.692,311.139 236.324,303.096C273.956,295.053 328.144,316.167 297.538,377.497Z" fill="#FFAA2A"/>
<path d="M144.005,377.517L143.002,377.477C145.34,319.224 157.517,281.797 167.32,260.657C177.964,237.703 188.221,228.41 188.324,228.319L188.991,229.07C188.89,229.161 178.752,238.361 168.193,261.159C158.444,282.21 146.334,319.484 144.005,377.517Z" fill="#F2F2F2"/>
<path d="M251.51,377.638L250.546,377.357C262.146,337.465 289.463,312.278 289.738,312.028L290.412,312.773C290.139,313.021 263.027,338.029 251.51,377.638Z" fill="#F2F2F2"/>
<path d="M47.286,377.567L46.292,377.428C50.227,348.99 43.118,326.925 36.461,313.424C29.253,298.805 21.029,290.82 20.947,290.741L21.641,290.016C21.725,290.096 30.076,298.203 37.361,312.978C44.08,326.607 51.257,348.875 47.286,377.567Z" fill="#F2F2F2"/>
<path d="M419.964,376.995L0,376.995L0,378L419.964,378L419.964,376.995Z" fill="#3F3D56"/>
<path d="M283.488,196.019L48.168,196.019L48.168,9.01L283.488,9.01L283.488,196.019ZM49.171,195.013L282.484,195.013L282.484,10.016L49.171,10.016L49.171,195.013Z" fill="#3F3D56"/>
<path d="M68.74,94.471C73.451,94.471 77.269,90.645 77.269,85.925C77.269,81.205 73.451,77.379 68.74,77.379C64.029,77.379 60.21,81.205 60.21,85.925C60.21,90.645 64.029,94.471 68.74,94.471Z" fill="#343B71"/>
<path d="M92.823,94.471C97.534,94.471 101.353,90.645 101.353,85.925C101.353,81.205 97.534,77.379 92.823,77.379C88.112,77.379 84.293,81.205 84.293,85.925C84.293,90.645 88.112,94.471 92.823,94.471Z" fill="#D0CDE1"/>
<g opacity="0.5">
<path d="M116.907,94.471C121.618,94.471 125.437,90.645 125.437,85.925C125.437,81.205 121.618,77.379 116.907,77.379C112.196,77.379 108.377,81.205 108.377,85.925C108.377,90.645 112.196,94.471 116.907,94.471Z" fill="#343B71"/>
</g>
<path d="M140.991,94.471C145.702,94.471 149.521,90.645 149.521,85.925C149.521,81.205 145.702,77.379 140.991,77.379C136.28,77.379 132.461,81.205 132.461,85.925C132.461,90.645 136.28,94.471 140.991,94.471Z" fill="#F2F2F2"/>
<path d="M235.822,81.903L165.577,81.903L165.577,89.947L235.822,89.947L235.822,81.903Z" fill="#F2F2F2"/>
<path d="M144.503,165.856C157.25,165.856 167.584,155.503 167.584,142.731C167.584,129.96 157.25,119.607 144.503,119.607C131.756,119.607 121.423,129.96 121.423,142.731C121.423,155.503 131.756,165.856 144.503,165.856Z" fill="#F2F2F2"/>
<path d="M144.6,149.693L133.049,138.121C132.673,137.744 132.461,137.232 132.461,136.699C132.461,136.166 132.673,135.654 133.049,135.277C133.426,134.9 133.936,134.688 134.469,134.688C135.001,134.688 135.511,134.9 135.888,135.277L144.407,143.813L171.594,112.751C171.768,112.553 171.979,112.39 172.215,112.274C172.452,112.157 172.709,112.088 172.972,112.07C173.235,112.053 173.499,112.088 173.748,112.173C173.998,112.258 174.228,112.391 174.426,112.565C174.625,112.739 174.786,112.951 174.903,113.188C175.02,113.424 175.089,113.682 175.106,113.945C175.123,114.209 175.088,114.473 175.004,114.723C174.919,114.973 174.786,115.204 174.612,115.403L144.6,149.693Z" fill="#343B71"/>
</svg>
