<svg width="24" height="24" viewBox="0 0 24 24" fill="none" xmlns="http://www.w3.org/2000/svg">
<path d="M16 18.2218V19.9996H0.444444C0.198667 19.9996 0 20.1987 0 20.444C0 20.6893 0.198667 20.8885 0.444444 20.8885H16V22.6662C16 22.9116 16.1987 23.1107 16.4444 23.1107H21.7778C22.0236 23.1107 22.2222 22.9116 22.2222 22.6662V20.8885H23.5556C23.8013 20.8885 24 20.6893 24 20.444C24 20.1987 23.8013 19.9996 23.5556 19.9996H22.2222V18.2218C22.2222 17.9765 22.0236 17.7773 21.7778 17.7773H16.4444C16.1987 17.7773 16 17.9765 16 18.2218Z" fill="white"/>
<path d="M8.88889 9.77745V11.5552H0.444444C0.198667 11.5552 0 11.7543 0 11.9997C0 12.245 0.198667 12.4441 0.444444 12.4441H8.88889V14.2219C8.88889 14.4672 9.08756 14.6663 9.33333 14.6663H14.6667C14.9124 14.6663 15.1111 14.4672 15.1111 14.2219V12.4441H23.5556C23.8013 12.4441 24 12.245 24 11.9997C24 11.7543 23.8013 11.5552 23.5556 11.5552H15.1111V9.77745C15.1111 9.53212 14.9124 9.33301 14.6667 9.33301H9.33333C9.08756 9.33301 8.88889 9.53212 8.88889 9.77745Z" fill="white"/>
<path d="M1.77778 1.33312V3.11089H0.444444C0.198667 3.11089 0 3.31001 0 3.55534C0 3.80067 0.198667 3.99978 0.444444 3.99978H1.77778V5.77756C1.77778 6.02289 1.97644 6.22201 2.22222 6.22201H7.55556C7.80133 6.22201 8 6.02289 8 5.77756V3.99978H23.5556C23.8013 3.99978 24 3.80067 24 3.55534C24 3.31001 23.8013 3.11089 23.5556 3.11089H8V1.33312C8 1.08778 7.80133 0.888672 7.55556 0.888672H2.22222C1.97644 0.888672 1.77778 1.08778 1.77778 1.33312Z" fill="white"/>
</svg>
