<svg width="10" height="12" viewBox="0 0 10 12" fill="none" xmlns="http://www.w3.org/2000/svg" xmlns:xlink="http://www.w3.org/1999/xlink">
<path d="M8.391,-0.663L2.227,-0.966C1.751,-0.99 1.265,-0.631 1.147,-0.17L0.026,10.006C-0.092,10.467 0.201,10.86 0.677,10.878L7.508,10.878C7.984,10.896 8.403,10.523 8.44,10.047L9.19,0.244C9.226,-0.231 8.867,-0.639 8.391,-0.663ZM4.762,9.53C3.821,9.53 3.058,8.767 3.058,7.826C3.058,6.884 3.821,6.121 4.762,6.121C5.703,6.121 6.466,6.884 6.466,7.826C6.466,8.767 5.703,9.53 4.762,9.53Z" fill="#FFFFFF"/>
</svg>
