<svg width="32" height="32" viewBox="0 0 32 32" fill="none" xmlns="http://www.w3.org/2000/svg" xmlns:xlink="http://www.w3.org/1999/xlink">
<path d="M30.938,29.137L23.575,21.775C25.4,19.55 26.5,16.7 26.5,13.594C26.5,6.469 20.719,0.688 13.594,0.688C6.462,0.688 0.688,6.469 0.688,13.594C0.688,20.719 6.462,26.5 13.594,26.5C16.7,26.5 19.544,25.406 21.769,23.581L29.131,30.938C29.631,31.438 30.438,31.438 30.938,30.938C31.438,30.444 31.438,29.631 30.938,29.137ZM13.594,23.931C7.887,23.931 3.25,19.294 3.25,13.594C3.25,7.894 7.887,3.25 13.594,3.25C19.294,3.25 23.938,7.894 23.938,13.594C23.938,19.294 19.294,23.931 13.594,23.931Z" fill="#FFFFFF"/>
</svg>
