<svg width="48" height="12" viewBox="0 0 48 12" fill="none" xmlns="http://www.w3.org/2000/svg" xmlns:xlink="http://www.w3.org/1999/xlink">
<path d="M17.778,1.555L17.778,5.111L0.889,5.111C0.397,5.111 0,5.509 0,6C0,6.491 0.397,6.889 0.889,6.889L17.778,6.889L17.778,10.444C17.778,10.935 18.175,11.333 18.667,11.333L29.333,11.333C29.825,11.333 30.222,10.935 30.222,10.444L30.222,6.889L47.111,6.889C47.603,6.889 48,6.491 48,6C48,5.509 47.603,5.111 47.111,5.111L30.222,5.111L30.222,1.555C30.222,1.065 29.825,0.667 29.333,0.667L18.667,0.667C18.175,0.667 17.778,1.065 17.778,1.555Z" fill="#FFFFFF"/>
</svg>
