<svg width="48" height="12" viewBox="0 0 48 12" fill="none" xmlns="http://www.w3.org/2000/svg" xmlns:xlink="http://www.w3.org/1999/xlink">
<path d="M32,0.445L32,4L0.889,4C0.397,4 0,4.398 0,4.889C0,5.38 0.397,5.778 0.889,5.778L32,5.778L32,9.333C32,9.824 32.397,10.222 32.889,10.222L43.556,10.222C44.047,10.222 44.444,9.824 44.444,9.333L44.444,5.778L47.111,5.778C47.603,5.778 48,5.38 48,4.889C48,4.398 47.603,4 47.111,4L44.444,4L44.444,0.445C44.444,-0.046 44.047,-0.444 43.556,-0.444L32.889,-0.444C32.397,-0.444 32,-0.046 32,0.445Z" fill="#FFFFFF"/>
</svg>
