<svg width="28" height="28" viewBox="0 0 28 28" fill="none" xmlns="http://www.w3.org/2000/svg" xmlns:xlink="http://www.w3.org/1999/xlink">
<path d="M0.99,14.996C0.438,14.996 0,14.544 0,13.993C0,13.442 0.438,13.004 0.99,13.004L12.995,13.004L12.995,1.004C12.996,0.452 13.449,0 14,0C14.552,0 14.99,0.452 14.99,1.004L14.99,13.004L26.996,13.004C27.547,13.004 28,13.442 28,13.993C28,14.544 27.547,14.996 26.996,14.996L14.99,14.996L14.99,26.996C14.99,27.548 14.552,28 14,28C13.449,28 12.996,27.548 12.996,26.996L12.996,14.996L0.99,14.996Z" fill="#343B71"/>
</svg>
