<svg width="32" height="32" viewBox="0 0 32 32" fill="none" xmlns="http://www.w3.org/2000/svg" xmlns:xlink="http://www.w3.org/1999/xlink">
<path d="M31.305,14.565C31.935,13.951 32.158,13.05 31.886,12.212C31.614,11.375 30.904,10.777 30.033,10.65L22.285,9.524C21.955,9.476 21.669,9.269 21.522,8.97L18.058,1.95C17.669,1.161 16.88,0.671 16,0.671C15.121,0.671 14.331,1.161 13.942,1.95L10.478,8.971C10.33,9.27 10.045,9.477 9.715,9.525L1.967,10.651C1.096,10.777 0.386,11.376 0.113,12.213C-0.158,13.051 0.064,13.951 0.694,14.565L6.3,20.03C6.539,20.263 6.649,20.599 6.592,20.927L5.27,28.643C5.152,29.322 5.331,29.983 5.77,30.504C6.453,31.316 7.646,31.563 8.599,31.062L15.528,27.418C15.818,27.267 16.183,27.268 16.472,27.418L23.401,31.062C23.738,31.239 24.098,31.329 24.469,31.329C25.146,31.329 25.788,31.028 26.23,30.504C26.67,29.983 26.847,29.321 26.73,28.643L25.407,20.927C25.351,20.598 25.46,20.263 25.699,20.03L31.305,14.565Z" fill="#FFAA2A"/>
</svg>
