<svg width="48" height="48" viewBox="0 0 48 48" fill="none" xmlns="http://www.w3.org/2000/svg" xmlns:xlink="http://www.w3.org/1999/xlink">
<path d="M47.837,37.133C47.701,36.724 46.837,36.121 45.246,35.327C44.815,35.076 44.201,34.736 43.406,34.304C42.61,33.872 41.888,33.474 41.241,33.11C40.593,32.747 39.985,32.394 39.417,32.054C39.326,31.986 39.042,31.787 38.565,31.457C38.087,31.128 37.684,30.883 37.354,30.724C37.025,30.565 36.701,30.486 36.383,30.486C35.928,30.486 35.361,30.81 34.679,31.457C33.997,32.105 33.372,32.809 32.804,33.571C32.236,34.333 31.634,35.037 30.998,35.685C30.362,36.333 29.838,36.656 29.43,36.656C29.225,36.656 28.969,36.599 28.662,36.486C28.356,36.373 28.123,36.275 27.963,36.197C27.804,36.117 27.532,35.958 27.146,35.719C26.758,35.48 26.543,35.349 26.498,35.327C23.384,33.599 20.714,31.622 18.486,29.395C16.26,27.167 14.282,24.497 12.555,21.383C12.532,21.338 12.401,21.122 12.163,20.736C11.924,20.349 11.765,20.077 11.685,19.917C11.606,19.758 11.509,19.525 11.396,19.219C11.282,18.912 11.225,18.656 11.225,18.452C11.225,18.043 11.549,17.52 12.197,16.883C12.845,16.247 13.549,15.645 14.31,15.077C15.072,14.509 15.776,13.884 16.424,13.202C17.072,12.521 17.395,11.953 17.395,11.498C17.395,11.18 17.316,10.856 17.157,10.527C16.998,10.197 16.754,9.794 16.424,9.316C16.094,8.839 15.895,8.555 15.827,8.464C15.487,7.896 15.135,7.288 14.771,6.64C14.407,5.993 14.009,5.271 13.577,4.475C13.146,3.68 12.805,3.067 12.555,2.635C11.76,1.044 11.157,0.18 10.748,0.044C10.589,-0.024 10.35,-0.058 10.032,-0.058C9.418,-0.058 8.618,0.055 7.629,0.283C6.64,0.51 5.862,0.748 5.294,0.999C4.157,1.476 2.953,2.862 1.68,5.157C0.521,7.293 -0.058,9.407 -0.058,11.498C-0.058,12.111 -0.019,12.707 0.061,13.287C0.14,13.867 0.282,14.52 0.487,15.248C0.692,15.975 0.857,16.515 0.981,16.867C1.106,17.219 1.339,17.849 1.68,18.759C2.02,19.668 2.225,20.225 2.293,20.429C3.089,22.656 4.032,24.645 5.123,26.395C6.917,29.304 9.366,32.31 12.469,35.412C15.571,38.515 18.576,40.963 21.486,42.759C23.235,43.849 25.225,44.793 27.452,45.588C27.656,45.656 28.213,45.861 29.122,46.202C30.031,46.543 30.662,46.776 31.014,46.901C31.366,47.026 31.906,47.191 32.633,47.396C33.361,47.601 34.014,47.743 34.593,47.823C35.173,47.901 35.769,47.942 36.383,47.942C38.473,47.942 40.587,47.362 42.724,46.203C45.018,44.931 46.404,43.726 46.882,42.589C47.133,42.021 47.37,41.243 47.598,40.254C47.826,39.266 47.939,38.465 47.939,37.851C47.939,37.532 47.905,37.294 47.837,37.133Z" transform="rotate(269.88 23.94 23.942)" fill="#FFFFFF"/>
</svg>
