<svg width="32" height="32" viewBox="0 0 32 32" fill="none" xmlns="http://www.w3.org/2000/svg" xmlns:xlink="http://www.w3.org/1999/xlink">
<path d="M1.131,17.139C0.501,17.139 0,16.622 0,15.992C0,15.362 0.501,14.861 1.131,14.861L14.852,14.861L14.852,1.147C14.853,0.517 15.37,0 16,0C16.631,0 17.132,0.517 17.132,1.147L17.132,14.861L30.852,14.861C31.483,14.861 32,15.362 32,15.992C32,16.622 31.483,17.139 30.852,17.139L17.132,17.139L17.132,30.853C17.132,31.483 16.631,32 16,32C15.37,32 14.853,31.483 14.853,30.853L14.853,17.139L1.131,17.139Z" fill="#343B71"/>
</svg>
