<svg width="12" height="16" viewBox="0 0 12 16" fill="none" xmlns="http://www.w3.org/2000/svg" xmlns:xlink="http://www.w3.org/1999/xlink">
<path d="M10.069,0.405L2.673,0.04C2.101,0.012 1.518,0.443 1.376,0.996L0.031,13.207C-0.11,13.761 0.241,14.232 0.812,14.254L9.01,14.253C9.581,14.275 10.084,13.827 10.128,13.257L11.028,1.492C11.072,0.922 10.64,0.433 10.069,0.405ZM5.715,12.636C4.585,12.636 3.67,11.72 3.67,10.591C3.67,9.461 4.585,8.546 5.715,8.546C6.844,8.546 7.76,9.461 7.76,10.591C7.76,11.72 6.844,12.636 5.715,12.636Z" fill="#343B71"/>
</svg>
