<svg width="48" height="40" viewBox="0 0 48 40" fill="none" xmlns="http://www.w3.org/2000/svg" xmlns:xlink="http://www.w3.org/1999/xlink">
<path d="M24.014,34.963C24.014,35.808 23.526,36.576 22.761,36.935C22.466,37.075 22.149,37.142 21.834,37.142C21.336,37.142 20.842,36.971 20.443,36.64L8.527,26.766L2.18,26.766C0.976,26.767 0,25.79 0,24.587L0,15.902C0,14.698 0.976,13.722 2.18,13.722L8.527,13.722L20.444,3.847C21.095,3.307 21.998,3.192 22.762,3.554C23.526,3.912 24.015,4.681 24.015,5.526L24.014,34.963ZM32.391,31.557C32.338,31.56 32.287,31.562 32.235,31.562C31.659,31.562 31.104,31.335 30.694,30.924L30.402,30.632C29.637,29.868 29.548,28.66 30.192,27.792C31.824,25.591 32.685,22.982 32.685,20.245C32.685,17.301 31.707,14.54 29.856,12.26C29.151,11.393 29.216,10.134 30.006,9.345L30.297,9.053C30.733,8.618 31.316,8.38 31.948,8.418C32.563,8.449 33.137,8.739 33.527,9.215C36.095,12.357 37.451,16.172 37.451,20.246C37.451,24.04 36.252,27.651 33.981,30.688C33.602,31.194 33.022,31.512 32.391,31.557ZM41.403,38.293C41.009,38.759 40.439,39.038 39.829,39.064C39.799,39.065 39.769,39.066 39.738,39.066C39.16,39.066 38.606,38.838 38.196,38.428L37.91,38.142C37.109,37.342 37.055,36.063 37.783,35.197C41.298,31.016 43.235,25.707 43.235,20.245C43.235,14.564 41.161,9.096 37.398,4.846C36.635,3.984 36.674,2.678 37.486,1.863L37.771,1.577C38.195,1.15 38.746,0.916 39.378,0.936C39.979,0.953 40.546,1.218 40.945,1.667C45.494,6.789 48,13.387 48,20.245C48.001,26.843 45.658,33.253 41.403,38.293Z" fill="#343B71"/>
</svg>
