<svg width="32" height="32" viewBox="0 0 32 32" fill="none" xmlns="http://www.w3.org/2000/svg" xmlns:xlink="http://www.w3.org/1999/xlink">
<path d="M30.62,21.755C31.276,20.918 31.59,20.022 31.55,19.098C31.51,18.081 31.055,17.285 30.68,16.796C31.115,15.712 31.282,14.006 29.83,12.681C28.766,11.711 26.959,11.276 24.457,11.396C22.697,11.476 21.225,11.804 21.164,11.818L21.158,11.818C20.823,11.878 20.468,11.951 20.107,12.032C20.08,11.604 20.154,10.54 20.943,8.144C21.88,5.293 21.827,3.112 20.769,1.653C19.659,0.12 17.885,0 17.363,0C16.862,0 16.4,0.207 16.072,0.589C15.329,1.452 15.416,3.045 15.51,3.781C14.627,6.15 12.151,11.958 10.056,13.571C10.016,13.598 9.982,13.631 9.949,13.665C9.333,14.314 8.918,15.016 8.637,15.632C8.243,15.418 7.794,15.297 7.312,15.297L3.23,15.297C1.691,15.297 0.447,16.549 0.447,18.081L0.447,28.955C0.447,30.494 1.698,31.739 3.23,31.739L7.312,31.739C7.908,31.739 8.463,31.552 8.918,31.23L10.491,31.418C10.732,31.451 15.015,31.993 19.411,31.906C20.207,31.967 20.957,32 21.653,32C22.851,32 23.895,31.906 24.764,31.719C26.812,31.284 28.211,30.414 28.92,29.136C29.462,28.159 29.462,27.189 29.375,26.573C30.707,25.368 30.941,24.037 30.894,23.1C30.867,22.558 30.747,22.096 30.62,21.755ZM3.23,29.932C2.688,29.932 2.253,29.491 2.253,28.955L2.253,18.074C2.253,17.532 2.695,17.097 3.23,17.097L7.312,17.097C7.854,17.097 8.289,17.539 8.289,18.074L8.289,28.949C8.289,29.491 7.848,29.926 7.312,29.926L3.23,29.926L3.23,29.932L3.23,29.932ZM28.907,20.972C28.626,21.266 28.572,21.715 28.786,22.063C28.786,22.069 29.061,22.538 29.094,23.18C29.141,24.057 28.719,24.833 27.836,25.496C27.521,25.737 27.394,26.151 27.528,26.526C27.528,26.533 27.816,27.416 27.347,28.253C26.899,29.056 25.902,29.631 24.39,29.952C23.179,30.213 21.532,30.26 19.512,30.1C19.485,30.1 19.451,30.1 19.418,30.1C15.115,30.193 10.765,29.631 10.719,29.624L10.712,29.624L10.036,29.544C10.076,29.357 10.096,29.156 10.096,28.955L10.096,18.074C10.096,17.787 10.049,17.506 9.969,17.245C10.09,16.796 10.424,15.799 11.214,14.949C14.218,12.567 17.156,4.53 17.283,4.182C17.337,4.042 17.35,3.888 17.323,3.734C17.21,2.985 17.25,2.068 17.41,1.793C17.765,1.8 18.722,1.9 19.297,2.697C19.98,3.64 19.953,5.327 19.217,7.562C18.093,10.968 17.999,12.761 18.889,13.551C19.331,13.946 19.92,13.966 20.348,13.812C20.756,13.718 21.144,13.638 21.512,13.578C21.539,13.571 21.572,13.564 21.599,13.557C23.654,13.109 27.334,12.835 28.612,13.999C29.696,14.99 28.927,16.301 28.84,16.442C28.592,16.816 28.666,17.305 29,17.606C29.007,17.613 29.71,18.275 29.743,19.165C29.77,19.761 29.489,20.37 28.907,20.972Z" fill="#FFAA2A"/>
</svg>
