<svg width="48" height="12" viewBox="0 0 48 12" fill="none" xmlns="http://www.w3.org/2000/svg" xmlns:xlink="http://www.w3.org/1999/xlink">
<path d="M3.556,0.667L3.556,4.222L0.889,4.222C0.397,4.222 0,4.62 0,5.111C0,5.602 0.397,6 0.889,6L3.556,6L3.556,9.556C3.556,10.046 3.953,10.444 4.444,10.444L15.111,10.444C15.603,10.444 16,10.046 16,9.556L16,6L47.111,6C47.603,6 48,5.602 48,5.111C48,4.62 47.603,4.222 47.111,4.222L16,4.222L16,0.667C16,0.176 15.603,-0.222 15.111,-0.222L4.444,-0.222C3.953,-0.222 3.556,0.176 3.556,0.667Z" fill="#FFFFFF"/>
</svg>
