<svg width="40" height="40" viewBox="0 0 40 40" fill="none" xmlns="http://www.w3.org/2000/svg" xmlns:xlink="http://www.w3.org/1999/xlink">
<path d="M20,12.727C16,12.727 12.727,16 12.727,20C12.727,24 16,27.273 20,27.273C24,27.273 27.273,24 27.273,20C27.273,16 24,12.727 20,12.727ZM36.182,18.182C35.273,10.545 29.273,4.545 21.818,3.818L21.818,0L18.182,0L18.182,3.818C10.545,4.545 4.545,10.545 3.818,18.182L0,18.182L0,21.818L3.818,21.818C4.727,29.455 10.727,35.455 18.182,36.182L18.182,40L21.818,40L21.818,36.182C29.455,35.273 35.455,29.273 36.182,21.818L40,21.818L40,18.182L36.182,18.182ZM20,32.727C12.909,32.727 7.273,27.091 7.273,20C7.273,12.909 12.909,7.273 20,7.273C27.091,7.273 32.727,12.909 32.727,20C32.727,27.091 27.091,32.727 20,32.727Z" fill="#FFFFFF"/>
</svg>
