<svg width="52" height="24" viewBox="0 0 52 24" fill="none" xmlns="http://www.w3.org/2000/svg" xmlns:xlink="http://www.w3.org/1999/xlink">
<path d="M50.074,9.454C49.119,9.135 42.48,7.684 42.48,7.684C42.48,7.684 30.171,0.684 28.694,0.684C27.217,0.684 17.084,0.689 17.084,0.689C14.609,0.689 12.54,2.575 10.144,4.76C9.015,5.789 7.769,6.921 6.395,7.929L1.276,8.609C0.536,8.845 0,9.537 0,10.355L0,16.221C0,17.233 0.82,18.053 1.833,18.053L5.35,18.053C5.606,20.998 8.082,23.316 11.092,23.316C14.101,23.316 16.577,20.997 16.833,18.053L33.63,18.053C33.885,20.998 36.362,23.316 39.371,23.316C42.38,23.316 44.857,20.997 45.112,18.053L48.002,18.053C50.292,18.053 51.411,17.064 51.692,16.136C52.403,13.787 51.892,10.061 50.074,9.454ZM11.092,20.537C9.445,20.537 8.105,19.198 8.105,17.551C8.105,15.905 9.445,14.565 11.092,14.565C12.738,14.565 14.078,15.904 14.078,17.551C14.078,19.198 12.738,20.537 11.092,20.537ZM22.177,7.684L12.162,7.684C12.886,7.111 13.556,6.504 14.173,5.941C15.795,4.463 17.195,3.186 18.871,3.186C18.871,3.186 20.388,3.185 22.177,3.184L22.177,7.684L22.177,7.684ZM24.616,3.183C25.855,3.183 26.96,3.183 27.515,3.183C28.895,3.183 34.493,6.434 36.595,7.684L24.616,7.684L24.616,3.183ZM39.371,20.537C37.724,20.537 36.385,19.198 36.385,17.551C36.385,15.905 37.724,14.565 39.371,14.565C41.018,14.565 42.357,15.904 42.357,17.551C42.357,19.198 41.018,20.537 39.371,20.537Z" fill="#343B71"/>
</svg>
