<svg width="48" height="48" viewBox="0 0 48 48" fill="none" xmlns="http://www.w3.org/2000/svg" xmlns:xlink="http://www.w3.org/1999/xlink">
<path d="M46.909,3.272C47.512,2.67 47.512,1.693 46.909,1.091L46.909,1.091C46.307,0.488 45.33,0.488 44.728,1.091L24,21.818L3.272,1.091C2.67,0.488 1.693,0.488 1.091,1.091L1.091,1.091C0.488,1.693 0.488,2.67 1.091,3.272L21.818,24L1.091,44.728C0.488,45.33 0.488,46.307 1.091,46.909L1.091,46.909C1.693,47.512 2.67,47.512 3.272,46.909L24,26.182L44.728,46.909C45.33,47.512 46.307,47.512 46.909,46.909L46.909,46.909C47.512,46.307 47.512,45.33 46.909,44.728L26.182,24L46.909,3.272Z" fill="#FFFFFF"/>
</svg>
