<svg width="12" height="16" viewBox="0 0 12 16" fill="none" xmlns="http://www.w3.org/2000/svg" xmlns:xlink="http://www.w3.org/1999/xlink">
<path d="M10.069,0.405L2.673,0.041C2.101,0.013 1.518,0.443 1.376,0.997L0.031,13.207C-0.11,13.761 0.241,14.233 0.812,14.255L9.01,14.254C9.581,14.276 10.084,13.827 10.128,13.257L11.028,1.493C11.072,0.923 10.64,0.433 10.069,0.405ZM5.715,12.636C4.585,12.636 3.67,11.72 3.67,10.591C3.67,9.462 4.585,8.546 5.715,8.546C6.844,8.546 7.76,9.462 7.76,10.591C7.76,11.721 6.844,12.636 5.715,12.636Z" fill="#343B71"/>
</svg>
