<svg width="32" height="32" viewBox="0 0 32 32" fill="none" xmlns="http://www.w3.org/2000/svg" xmlns:xlink="http://www.w3.org/1999/xlink">
<path d="M31.273,2.182C31.674,1.78 31.674,1.129 31.273,0.727L31.273,0.727C30.871,0.326 30.22,0.326 29.818,0.727L16,14.546L2.182,0.727C1.78,0.326 1.129,0.326 0.727,0.727L0.727,0.727C0.326,1.129 0.326,1.78 0.727,2.182L14.546,16L0.727,29.818C0.326,30.22 0.326,30.871 0.727,31.273L0.727,31.273C1.129,31.674 1.78,31.674 2.182,31.273L16,17.454L29.818,31.273C30.22,31.674 30.871,31.674 31.273,31.273L31.273,31.273C31.674,30.871 31.674,30.22 31.273,29.818L17.454,16L31.273,2.182Z" fill="#FFFFFF"/>
</svg>
