<svg width="34" height="16" viewBox="0 0 34 16" fill="none" xmlns="http://www.w3.org/2000/svg" xmlns:xlink="http://www.w3.org/1999/xlink">
<path d="M31.421,4.581C28.722,6.071 25.01,7.449 21.308,8.029C18.014,8.546 11.818,7.3 11.818,5.829C11.818,5.271 17.252,7.202 20.54,6.325C23.06,5.653 22.703,3.295 21.331,2.984C19.968,2.674 11.982,-0.251 8.57,-0.352C6.963,-0.4 2.996,0.207 1.076,0.519C0.419,0.626 0.006,0.614 -0.035,1.244C-0.226,4.169 -0.602,10.15 -0.808,13.274C-0.812,13.34 -0.72,14.228 0.012,13.604C0.814,12.92 1.939,12.162 2.979,12.398C4.611,12.768 18.73,15.355 20.678,14.902C23.464,14.254 31.35,9.581 32.862,8.128C35.206,5.876 33.384,3.498 31.421,4.581Z" fill="#343B71"/>
</svg>
