<svg width="30" height="14" viewBox="0 0 30 14" fill="none" xmlns="http://www.w3.org/2000/svg" xmlns:xlink="http://www.w3.org/1999/xlink">
<path d="M27.851,4.818C25.602,6.059 22.508,7.207 19.423,7.691C16.678,8.121 11.515,7.083 11.515,5.857C11.515,5.392 16.043,7.002 18.783,6.271C20.884,5.71 20.585,3.745 19.443,3.486C18.307,3.228 11.651,0.79 8.809,0.706C7.47,0.667 4.163,1.172 2.564,1.432C2.016,1.522 1.672,1.512 1.638,2.036C1.479,4.474 1.165,9.458 0.994,12.062C0.99,12.117 1.067,12.857 1.677,12.336C2.345,11.766 3.283,11.135 4.149,11.331C5.509,11.64 17.275,13.795 18.898,13.418C21.22,12.878 27.792,8.984 29.052,7.773C31.005,5.896 29.487,3.915 27.851,4.818Z" fill="#FFFFFF"/>
</svg>
